{
.appVersion = "3039";
DisplayStrings = (
A,
"/ya.base.cap/ye-ethiopic.etcp",
"/circumflex/ye-ethiopic.etcp",
"/ye-ethiopic.etcp/_smart.ye/ye-ethiopic",
"/ga.base.cap/ggo-ethiopic.etcp",
"/_smart.go/ggo-ethiopic.etcp",
"/nye-ethiopic.etcp",
"/_smart.ye/ye-ethiopic.etcp",
"/ggo-ethiopic.etcp",
"ç",
"Ø",
"Æ",
k,
"¾",
"½",
"¼",
"î",
"/oe",
"/threeeighths",
"/twothirds",
"r/pa.base",
"/na.base.cap",
"/ta.base.cap",
"/oPh.base.cap",
"/wa.base.cap",
"/wa.base.001",
"/tsa.base.cap",
"/hha.base.cap",
"/le-ethiopic.etcp",
"/ra.base/fa.base/fa-ethiopic",
"/ra.base/fa.base/fa-ethiopic",
"r/fa.base/fa-ethiopic",
"r/ra.base",
"/wa.base",
"/pa.base",
"/aGl.base.cap/iGlottal-ethiopic.etcp",

glyphs = (
{
glyphname = exclam;
lastChange = "2020-12-26 20:31:33 +0000";
layers = (
{
layerId = "1691882E-B915-4755-A5B2-757873D945FF";
paths = (
{
closed = 1;
nodes = (
"265 122 OFFCURVE",
"713 777 OFFCURVE",
"730 823 CURVE",
"727 832 LINE",
"720 834 LINE",
"676 836 LINE SMOOTH",
"637 836 OFFCURVE",
"612 826 OFFCURVE",
"601 806 CURVE SMOOTH",
"239 114 LINE",
"238 105 LINE",
"252 103 LINE"
);
},
{
closed = 1;
nodes = (
"207 -70 OFFCURVE",
"249 -49 OFFCURVE",
"249 6 CURVE SMOOTH",
"249 21 OFFCURVE",
"231 48 OFFCURVE",
"199 48 CURVE SMOOTH",
"166 48 OFFCURVE",
"129 23 OFFCURVE",
"129 -28 CURVE SMOOTH",
"129 -44 OFFCURVE",
"146 -70 OFFCURVE",
"179 -70 CURVE SMOOTH"
);
}
);
width = 450;
}
);
note = exclam;
unicode = 0021;
},
{
glyphname = quotedbl;
lastChange = "2020-12-26 00:24:00 +0000";
layers = (
{
layerId = "1691882E-B915-4755-A5B2-757873D945FF";
paths = (
{
closed = 1;
nodes = (
"317 497 LINE",
"319 503 OFFCURVE",
"367 679 OFFCURVE",
"367 738 CURVE SMOOTH",
"367 766 OFFCURVE",
"356 780 OFFCURVE",
"333 780 CURVE SMOOTH",
"306 780 OFFCURVE",
"289 761 OFFCURVE",
"291 734 CURVE SMOOTH",
"302 497 LINE"
);
},
{
closed = 1;
nodes = (
"162 497 LINE",
"195 621 OFFCURVE",
"211 698 OFFCURVE",
"211 731 CURVE SMOOTH",
"211 764 OFFCURVE",
"201 780 OFFCURVE",
"179 780 CURVE SMOOTH",
"154 780 OFFCURVE",
"134 757 OFFCURVE",
"136 732 CURVE SMOOTH",
"148 497 LINE"
);
}
);
width = 318;
}
);
note = quotedbl;
unicode = 0022;
},
{
glyphname = numbersign;
lastChange = "2020-12-26 00:20:57 +0000";
layers = (
{
layerId = "1691882E-B915-4755-A5B2-757873D945FF";
paths = (
{
closed = 1;
nodes = (
"218 -115 LINE",
"408 197 LINE",
"596 197 LINE",
"409 -115 LINE",
"481 -115 LINE",
"670 197 LINE",
"889 197 LINE",
"928 260 LINE",
"710 260 LINE",
"822 452 LINE",
"1025 452 LINE",
"1064 518 LINE",
"862 518 LINE",
"1051 831 LINE",
"977 831 LINE",
"789 518 LINE",
"598 518 LINE",
"789 831 LINE",
"713 831 LINE",
"526 518 LINE",
"294 518 LINE",
"255 452 LINE",
"487 452 LINE",
"372 260 LINE",
"159 260 LINE",
"118 197 LINE",
"334 197 LINE",
"146 -115 LINE"
);
},
{
closed = 1;
nodes = (
"560 452 LINE",
"749 452 LINE",
"635 260 LINE",
"444 260 LINE"
);
}
);
width = 995;
}
);
note = numbersign;
unicode = 0023;
},
{
glyphname = dollar;
lastChange = "2020-12-26 00:09:37 +0000";
layers = (
{
layerId = "1691882E-B915-4755-A5B2-757873D945FF";
paths = (
{
closed = 1;
nodes = (
"178 -184 LINE",
"212 -120 LINE",
"304 -120 OFFCURVE",
"402 -88 OFFCURVE",
"469 -14 CURVE SMOOTH",
"541 66 OFFCURVE",
"538 160 OFFCURVE",
"439 291 CURVE",
"579 545 LINE",
"623 536 OFFCURVE",
"649 512 OFFCURVE",
"655 473 CURVE",
"651 483 OFFCURVE",
"632 494 OFFCURVE",
"611 494 CURVE SMOOTH",
"589 494 OFFCURVE",
"563 471 OFFCURVE",
"563 441 CURVE SMOOTH",
"563 412 OFFCURVE",
"585 388 OFFCURVE",
"619 388 CURVE SMOOTH",
"654 388 OFFCURVE",
"683 423 OFFCURVE",
"683 470 CURVE SMOOTH",
"683 516 OFFCURVE",
"655 560 OFFCURVE",
"594 569 CURVE",
"633 643 LINE",
"595 636 LINE",
"561 573 LINE",
"471 573 OFFCURVE",
"399 546 OFFCURVE",
"345 492 CURVE SMOOTH",
"315 463 OFFCURVE",
"301 428 OFFCURVE",
"301 386 CURVE SMOOTH",
"301 344 OFFCURVE",
"325 293 OFFCURVE",
"373 235 CURVE",
"194 -92 LINE",
"140 -81 OFFCURVE",
"97 -60 OFFCURVE",
"64 -24 CURVE",
"53 -24 LINE",
"40 -38 OFFCURVE",
"33 -48 OFFCURVE",
"31 -53 CURVE",
"52 -81 OFFCURVE",
"102 -103 OFFCURVE",
"179 -117 CURVE",
"137 -191 LINE"
);
},
{
closed = 1;
nodes = (
"395 209 LINE",
"427 165 OFFCURVE",
"443 126 OFFCURVE",
"443 92 CURVE SMOOTH",
"443 -16 OFFCURVE",
"335 -96 OFFCURVE",
"225 -96 CURVE"
);
},
{
closed = 1;
nodes = (
"403 348 OFFCURVE",
"359 407 OFFCURVE",
"376 418 CURVE",
"376 493 OFFCURVE",
"455 552 OFFCURVE",
"532 552 CURVE SMOOTH",
"549 550 LINE",
"419 317 LINE"
);
}
);
width = 752;
}
);
note = dollar;
unicode = 0024;
},
{
glyphname = percent;
lastChange = "2020-12-26 00:15:19 +0000";
layers = (
{
layerId = "1691882E-B915-4755-A5B2-757873D945FF";
paths = (
{
closed = 1;
nodes = (
"244 -86 LINE",
"981 809 LINE",
"965 866 OFFCURVE",
"878 702 OFFCURVE",
"733 586 CURVE SMOOTH",
"664 531 OFFCURVE",
"611 504 OFFCURVE",
"573 504 CURVE SMOOTH",
"551 504 OFFCURVE",
"534 514 OFFCURVE",
"523 534 CURVE",
"535 545 OFFCURVE",
"548 560 OFFCURVE",
"561 579 CURVE SMOOTH",
"622 662 OFFCURVE",
"652 738 OFFCURVE",
"652 807 CURVE SMOOTH",
"652 865 OFFCURVE",
"623 894 OFFCURVE",
"563 894 CURVE SMOOTH",
"484 894 OFFCURVE",
"385 802 OFFCURVE",
"337 692 CURVE SMOOTH",
"320 654 OFFCURVE",
"311 618 OFFCURVE",
"311 583 CURVE SMOOTH",
"311 510 OFFCURVE",
"340 473 OFFCURVE",
"398 473 CURVE SMOOTH",
"431 473 OFFCURVE",
"465 486 OFFCURVE",
"500 514 CURVE",
"520 493 OFFCURVE",
"543 483 OFFCURVE",
"571 483 CURVE SMOOTH",
"620 483 OFFCURVE",
"684 517 OFFCURVE",
"762 583 CURVE",
"571 348 LINE SMOOTH",
"436 183 OFFCURVE",
"312 40 OFFCURVE",
"198 -80 CURVE",
"199 -86 LINE"
);
},
{
closed = 1;
nodes = (
"720 -20 OFFCURVE",
"780 23 OFFCURVE",
"840 110 CURVE SMOOTH",
"889 182 OFFCURVE",
"914 248 OFFCURVE",
"914 310 CURVE SMOOTH",
"914 370 OFFCURVE",
"884 401 OFFCURVE",
"823 401 CURVE SMOOTH",
"744 401 OFFCURVE",
"645 310 OFFCURVE",
"597 199 CURVE SMOOTH",
"580 161 OFFCURVE",
"571 125 OFFCURVE",
"571 91 CURVE SMOOTH",
"571 18 OFFCURVE",
"600 -20 OFFCURVE",
"659 -20 CURVE SMOOTH"
);
},
{
closed = 1;
nodes = (
"652 6 OFFCURVE",
"638 23 OFFCURVE",
"638 59 CURVE SMOOTH",
"638 96 OFFCURVE",
"652 143 OFFCURVE",
"680 202 CURVE SMOOTH",
"728 303 OFFCURVE",
"792 362 OFFCURVE",
"837 362 CURVE SMOOTH",
"867 362 OFFCURVE",
"882 344 OFFCURVE",
"882 310 CURVE SMOOTH",
"882 265 OFFCURVE",
"841 147 OFFCURVE",
"806 103 CURVE SMOOTH",
"788 80 OFFCURVE",
"776 64 OFFCURVE",
"766 54 CURVE SMOOTH",
"748 33 OFFCURVE",
"706 6 OFFCURVE",
"680 6 CURVE SMOOTH"
);
},
{
closed = 1;
nodes = (
"392 499 OFFCURVE",
"378 517 OFFCURVE",
"378 553 CURVE SMOOTH",
"378 589 OFFCURVE",
"392 636 OFFCURVE",
"420 694 CURVE SMOOTH",
"468 795 OFFCURVE",
"532 855 OFFCURVE",
"576 855 CURVE SMOOTH",
"580 855 OFFCURVE",
"585 854 OFFCURVE",
"590 853 CURVE SMOOTH",
"611 847 OFFCURVE",
"621 829 OFFCURVE",
"621 799 CURVE SMOOTH",
"621 769 OFFCURVE",
"610 727 OFFCURVE",
"588 675 CURVE SMOOTH",
"572 639 OFFCURVE",
"558 611 OFFCURVE",
"544 591 CURVE",
"546 631 OFFCURVE",
"536 641 OFFCURVE",
"510 641 CURVE SMOOTH",
"483 641 OFFCURVE",
"469 623 OFFCURVE",
"469 589 CURVE SMOOTH",
"468 570 OFFCURVE",
"473 550 OFFCURVE",
"487 530 CURVE",
"462 510 OFFCURVE",
"440 499 OFFCURVE",
"421 499 CURVE SMOOTH"
);
}
);
width = 917;
}
);
note = percent;
unicode = 0025;
},
{
glyphname = ampersand;
lastChange = "2020-12-26 00:02:07 +0000";
layers = (
{
layerId = "1691882E-B915-4755-A5B2-757873D945FF";
paths = (
{
closed = 1;
nodes = (
"422 -10 OFFCURVE",
"500 21 OFFCURVE",
"548 65 CURVE SMOOTH",
"598 111 OFFCURVE",
"623 155 OFFCURVE",
"623 199 CURVE SMOOTH",
"623 229 OFFCURVE",
"611 254 OFFCURVE",
"586 274 CURVE",
"591 274 LINE SMOOTH",
"673 274 OFFCURVE",
"760 306 OFFCURVE",
"792 355 CURVE SMOOTH",
"800 366 OFFCURVE",
"804 379 OFFCURVE",
"804 393 CURVE SMOOTH",
"804 407 OFFCURVE",
"800 421 OFFCURVE",
"791 437 CURVE SMOOTH",
"785 446 OFFCURVE",
"771 442 OFFCURVE",
"783 424 CURVE SMOOTH",
"787 417 OFFCURVE",
"789 410 OFFCURVE",
"789 401 CURVE SMOOTH",
"789 393 OFFCURVE",
"787 385 OFFCURVE",
"781 377 CURVE SMOOTH",
"771 362 OFFCURVE",
"753 349 OFFCURVE",
"730 339 CURVE SMOOTH",
"681 316 OFFCURVE",
"640 305 OFFCURVE",
"607 305 CURVE SMOOTH",
"436 305 LINE SMOOTH",
"342 305 OFFCURVE",
"277 270 OFFCURVE",
"262 225 CURVE SMOOTH",
"259 218 OFFCURVE",
"257 208 OFFCURVE",
"257 195 CURVE SMOOTH",
"257 183 OFFCURVE",
"263 169 OFFCURVE",
"275 151 CURVE SMOOTH",
"291 122 OFFCURVE",
"319 98 OFFCURVE",
"360 76 CURVE SMOOTH",
"364 74 OFFCURVE",
"367 76 OFFCURVE",
"368 81 CURVE SMOOTH",
"369 88 OFFCURVE",
"366 93 OFFCURVE",
"360 97 CURVE SMOOTH",
"317 119 OFFCURVE",
"296 144 OFFCURVE",
"296 172 CURVE SMOOTH",
"296 199 OFFCURVE",
"308 221 OFFCURVE",
"332 238 CURVE SMOOTH",
"373 266 OFFCURVE",
"419 268 OFFCURVE",
"445 268 CURVE SMOOTH",
"471 268 OFFCURVE",
"513 267 OFFCURVE",
"547 241 CURVE SMOOTH",
"564 228 OFFCURVE",
"572 211 OFFCURVE",
"572 192 CURVE SMOOTH",
"572 108 OFFCURVE",
"465 2 OFFCURVE",
"340 2 CURVE SMOOTH",
"269 2 OFFCURVE",
"223 33 OFFCURVE",
"202 95 CURVE SMOOTH",
"195 117 OFFCURVE",
"192 138 OFFCURVE",
"192 161 CURVE SMOOTH",
"192 201 OFFCURVE",
"203 243 OFFCURVE",
"227 285 CURVE SMOOTH",
"264 350 OFFCURVE",
"319 388 OFFCURVE",
"390 399 CURVE",
"419 371 OFFCURVE",
"451 357 OFFCURVE",
"488 357 CURVE SMOOTH",
"509 357 OFFCURVE",
"523 362 OFFCURVE",
"531 371 CURVE SMOOTH",
"534 375 OFFCURVE",
"536 380 OFFCURVE",
"536 385 CURVE SMOOTH",
"536 389 OFFCURVE",
"533 395 OFFCURVE",
"529 400 CURVE SMOOTH",
"520 412 OFFCURVE",
"502 417 OFFCURVE",
"475 417 CURVE SMOOTH",
"411 416 LINE",
"405 428 OFFCURVE",
"402 442 OFFCURVE",
"402 458 CURVE SMOOTH",
"402 474 OFFCURVE",
"406 493 OFFCURVE",
"415 513 CURVE SMOOTH",
"478 650 OFFCURVE",
"653 715 OFFCURVE",
"716 669 CURVE SMOOTH",
"728 661 OFFCURVE",
"733 650 OFFCURVE",
"733 636 CURVE SMOOTH",
"733 633 OFFCURVE",
"733 629 OFFCURVE",
"732 625 CURVE",
"730 633 OFFCURVE",
"713 642 OFFCURVE",
"698 642 CURVE SMOOTH",
"675 642 OFFCURVE",
"655 624 OFFCURVE",
"655 598 CURVE SMOOTH",
"655 572 OFFCURVE",
"673 553 OFFCURVE",
"702 553 CURVE SMOOTH",
"731 553 OFFCURVE",
"758 586 OFFCURVE",
"758 624 CURVE SMOOTH",
"758 682 OFFCURVE",
"705 708 OFFCURVE",
"638 708 CURVE SMOOTH",
"403 708 OFFCURVE",
"342 556 OFFCURVE",
"342 497 CURVE SMOOTH",
"342 419 OFFCURVE",
"273 389 OFFCURVE",
"246 376 CURVE SMOOTH",
"179 343 OFFCURVE",
"134 295 OFFCURVE",
"111 235 CURVE SMOOTH",
"103 212 OFFCURVE",
"99 187 OFFCURVE",
"99 160 CURVE SMOOTH",
"99 133 OFFCURVE",
"109 105 OFFCURVE",
"129 76 CURVE SMOOTH",
"170 19 OFFCURVE",
"241 -10 OFFCURVE",
"340 -10 CURVE SMOOTH"
);
},
{
closed = 1;
nodes = (
"454 373 OFFCURVE",
"434 383 OFFCURVE",
"419 402 CURVE",
"429 403 OFFCURVE",
"438 403 OFFCURVE",
"448 403 CURVE SMOOTH",
"495 403 OFFCURVE",
"519 397 OFFCURVE",
"519 385 CURVE SMOOTH",
"519 377 OFFCURVE",
"506 373 OFFCURVE",
"481 373 CURVE SMOOTH"
);
}
);
width = 680;
}
);
note = ampersand;
unicode = 0026;
},
{
glyphname = quotesingle;
lastChange = "2020-12-26 00:24:00 +0000";
layers = (
{
layerId = "1691882E-B915-4755-A5B2-757873D945FF";
paths = (
{
closed = 1;
nodes = (
"63 430 OFFCURVE",
"66 430 OFFCURVE",
"69 432 CURVE SMOOTH",
"143 456 OFFCURVE",
"212 513 OFFCURVE",
"212 598 CURVE SMOOTH",
"212 639 OFFCURVE",
"191 676 OFFCURVE",
"156 676 CURVE SMOOTH",
"125 676 OFFCURVE",
"83 656 OFFCURVE",
"83 601 CURVE",
"90 546 OFFCURVE",
"170 550 OFFCURVE",
"175 570 CURVE",
"166 510 OFFCURVE",
"122 468 OFFCURVE",
"64 447 CURVE SMOOTH",
"57 444 OFFCURVE",
"53 441 OFFCURVE",
"53 435 CURVE SMOOTH",
"53 432 OFFCURVE",
"55 430 OFFCURVE",
"59 430 CURVE SMOOTH"
);
}
);
width = 158;
}
);
note = quotesingle;
unicode = 0027;
},
{
glyphname = parenleft;
lastChange = "2020-12-26 00:22:42 +0000";
layers = (
{
layerId = "1691882E-B915-4755-A5B2-757873D945FF";
paths = (
{
closed = 1;
nodes = (
"392 -82 OFFCURVE",
"413 -75 OFFCURVE",
"412 -62 CURVE SMOOTH",
"411 -55 OFFCURVE",
"405 -53 OFFCURVE",
"394 -54 CURVE SMOOTH",
"383 -55 OFFCURVE",
"373 -55 OFFCURVE",
"366 -55 CURVE SMOOTH",
"333 -55 OFFCURVE",
"304 -46 OFFCURVE",
"280 -26 CURVE SMOOTH",
"229 17 OFFCURVE",
"204 90 OFFCURVE",
"204 193 CURVE SMOOTH",
"204 330 OFFCURVE",
"249 465 OFFCURVE",
"340 599 CURVE SMOOTH",
"465 779 OFFCURVE",
"631 866 OFFCURVE",
"700 871 CURVE",
"717 877 OFFCURVE",
"726 883 OFFCURVE",
"728 891 CURVE SMOOTH",
"728 896 OFFCURVE",
"725 899 OFFCURVE",
"719 899 CURVE SMOOTH",
"713 899 OFFCURVE",
"707 898 OFFCURVE",
"700 896 CURVE SMOOTH",
"569 863 OFFCURVE",
"434 776 OFFCURVE",
"341 678 CURVE SMOOTH",
"247 579 OFFCURVE",
"177 469 OFFCURVE",
"153 379 CURVE SMOOTH",
"141 323 OFFCURVE",
"134 275 OFFCURVE",
"134 235 CURVE SMOOTH",
"134 195 OFFCURVE",
"137 161 OFFCURVE",
"143 133 CURVE SMOOTH",
"172 -8 OFFCURVE",
"265 -82 OFFCURVE",
"349 -82 CURVE SMOOTH"
);
}
);
width = 549;
}
);
note = parenleft;
unicode = 0028;
},
{
glyphname = parenright;
lastChange = "2020-12-26 00:22:53 +0000";
layers = (
{
layerId = "1691882E-B915-4755-A5B2-757873D945FF";
paths = (
{
closed = 1;
nodes = (
"199 -95 OFFCURVE",
"205 -94 OFFCURVE",
"212 -92 CURVE SMOOTH",
"387 -47 OFFCURVE",
"560 90 OFFCURVE",
"660 230 CURVE SMOOTH",
"709 299 OFFCURVE",
"743 364 OFFCURVE",
"759 425 CURVE SMOOTH",
"771 481 OFFCURVE",
"778 529 OFFCURVE",
"778 569 CURVE SMOOTH",
"778 609 OFFCURVE",
"775 643 OFFCURVE",
"769 671 CURVE SMOOTH",
"740 812 OFFCURVE",
"647 886 OFFCURVE",
"563 886 CURVE SMOOTH",
"520 886 OFFCURVE",
"499 879 OFFCURVE",
"500 866 CURVE SMOOTH",
"502 859 OFFCURVE",
"508 857 OFFCURVE",
"519 858 CURVE SMOOTH",
"530 859 OFFCURVE",
"539 859 OFFCURVE",
"545 859 CURVE SMOOTH",
"579 859 OFFCURVE",
"607 849 OFFCURVE",
"632 828 CURVE SMOOTH",
"683 786 OFFCURVE",
"708 714 OFFCURVE",
"708 611 CURVE SMOOTH",
"708 459 OFFCURVE",
"649 306 OFFCURVE",
"533 150 CURVE SMOOTH",
"459 53 OFFCURVE",
"342 -34 OFFCURVE",
"213 -67 CURVE SMOOTH",
"194 -72 OFFCURVE",
"184 -79 OFFCURVE",
"184 -87 CURVE SMOOTH",
"184 -92 OFFCURVE",
"187 -95 OFFCURVE",
"193 -95 CURVE SMOOTH"
);
}
);
width = 728;
}
);
note = parenright;
unicode = 0029;
},
{
glyphname = asterisk;
lastChange = "2020-12-26 00:20:43 +0000";
layers = (
{
layerId = "1691882E-B915-4755-A5B2-757873D945FF";
paths = (
{
closed = 1;
nodes = (
"487 231 OFFCURVE",
"495 238 OFFCURVE",
"503 253 CURVE SMOOTH",
"508 264 OFFCURVE",
"509 274 OFFCURVE",
"506 282 CURVE SMOOTH",
"483 325 OFFCURVE",
"459 372 OFFCURVE",
"434 424 CURVE",
"614 431 LINE",
"627 432 LINE",
"650 438 OFFCURVE",
"661 448 OFFCURVE",
"661 461 CURVE SMOOTH",
"661 470 OFFCURVE",
"653 475 OFFCURVE",
"639 475 CURVE SMOOTH",
"454 475 LINE",
"570 600 LINE SMOOTH",
"584 614 OFFCURVE",
"590 625 OFFCURVE",
"590 634 CURVE SMOOTH",
"590 642 OFFCURVE",
"589 648 OFFCURVE",
"587 652 CURVE SMOOTH",
"583 663 OFFCURVE",
"574 663 OFFCURVE",
"560 649 CURVE SMOOTH",
"402 489 LINE",
"322 646 LINE SMOOTH",
"312 666 OFFCURVE",
"301 676 OFFCURVE",
"288 676 CURVE",
"282 674 LINE SMOOTH",
"269 672 OFFCURVE",
"268 662 OFFCURVE",
"276 644 CURVE SMOOTH",
"301 589 OFFCURVE",
"328 533 OFFCURVE",
"353 475 CURVE",
"155 475 LINE SMOOTH",
"136 475 OFFCURVE",
"127 466 OFFCURVE",
"127 448 CURVE SMOOTH",
"127 435 OFFCURVE",
"138 413 OFFCURVE",
"155 413 CURVE SMOOTH",
"334 420 LINE",
"198 283 LINE SMOOTH",
"155 240 OFFCURVE",
"243 219 OFFCURVE",
"238 239 CURVE",
"386 401 LINE",
"454 249 LINE",
"461 237 OFFCURVE",
"469 231 OFFCURVE",
"477 231 CURVE SMOOTH"
);
}
);
width = 613;
}
);
note = asterisk;
unicode = 002A;
},
{
glyphname = plus;
lastChange = "2020-12-26 00:14:48 +0000";
layers = (
{
layerId = "1691882E-B915-4755-A5B2-757873D945FF";
paths = (
{
closed = 1;
nodes = (
"213 56 OFFCURVE",
"217 56 OFFCURVE",
"222 57 CURVE SMOOTH",
"240 61 OFFCURVE",
"249 67 OFFCURVE",
"251 76 CURVE SMOOTH",
"252 87 OFFCURVE",
"257 123 OFFCURVE",
"268 182 CURVE SMOOTH",
"279 241 LINE",
"348 246 OFFCURVE",
"400 248 OFFCURVE",
"438 248 CURVE SMOOTH",
"455 248 OFFCURVE",
"464 253 OFFCURVE",
"464 263 CURVE SMOOTH",
"464 270 OFFCURVE",
"460 280 OFFCURVE",
"442 280 CURVE SMOOTH",
"363 280 LINE SMOOTH",
"327 280 OFFCURVE",
"301 280 OFFCURVE",
"286 282 CURVE",
"306 386 OFFCURVE",
"318 445 OFFCURVE",
"321 459 CURVE SMOOTH",
"325 474 OFFCURVE",
"322 481 OFFCURVE",
"313 481 CURVE SMOOTH",
"301 481 OFFCURVE",
"292 470 OFFCURVE",
"286 448 CURVE SMOOTH",
"258 333 LINE",
"246 282 LINE",
"80 285 LINE",
"64 283 OFFCURVE",
"54 271 OFFCURVE",
"52 251 CURVE SMOOTH",
"52 235 OFFCURVE",
"56 227 OFFCURVE",
"65 227 CURVE SMOOTH",
"234 239 LINE",
"206 131 OFFCURVE",
"192 75 OFFCURVE",
"192 71 CURVE SMOOTH",
"192 61 OFFCURVE",
"198 56 OFFCURVE",
"209 56 CURVE SMOOTH"
);
}
);
width = 458;
}
);
note = plus;
unicode = 002B;
},
{
glyphname = comma;
lastChange = "2020-12-26 05:13:37 +0000";
layers = (
{
layerId = "1691882E-B915-4755-A5B2-757873D945FF";
paths = (
{
closed = 1;
nodes = (
"194 -33 OFFCURVE",
"268 31 OFFCURVE",
"268 116 CURVE SMOOTH",
"268 205 OFFCURVE",
"146 210 OFFCURVE",
"136 126 CURVE SMOOTH",
"128 78 OFFCURVE",
"178 48 OFFCURVE",
"225 82 CURVE",
"217 21 OFFCURVE",
"174 -24 OFFCURVE",
"116 -43 CURVE SMOOTH",
"98 -49 OFFCURVE",
"100 -66 OFFCURVE",
"119 -58 CURVE SMOOTH"
);
}
);
width = 302;
}
);
note = comma;
unicode = 002C;
},
{
glyphname = hyphen;
lastChange = "2020-12-26 00:22:14 +0000";
layers = (
{
layerId = "1691882E-B915-4755-A5B2-757873D945FF";
paths = (
{
closed = 1;
nodes = (
"220 276 LINE SMOOTH",
"289 284 OFFCURVE",
"362 288 OFFCURVE",
"436 288 CURVE",
"450 289 OFFCURVE",
"459 297 OFFCURVE",
"461 308 CURVE",
"456 320 OFFCURVE",
"447 326 OFFCURVE",
"430 327 CURVE SMOOTH",
"283 330 OFFCURVE",
"178 332 OFFCURVE",
"116 332 CURVE SMOOTH",
"100 332 OFFCURVE",
"92 323 OFFCURVE",
"92 303 CURVE SMOOTH",
"92 287 OFFCURVE",
"104 264 OFFCURVE",
"115 264 CURVE"
);
}
);
width = 406;
}
);
note = hyphen;
unicode = 002D;
},
{
glyphname = period;
lastChange = "2020-12-26 20:30:36 +0000";
layers = (
{
layerId = "1691882E-B915-4755-A5B2-757873D945FF";
paths = (
{
closed = 1;
nodes = (
"203 49 OFFCURVE",
"245 69 OFFCURVE",
"245 124 CURVE SMOOTH",
"245 139 OFFCURVE",
"228 166 OFFCURVE",
"195 166 CURVE SMOOTH",
"162 166 OFFCURVE",
"125 141 OFFCURVE",
"125 90 CURVE SMOOTH",
"125 75 OFFCURVE",
"142 49 OFFCURVE",
"175 49 CURVE SMOOTH"
);
}
);
width = 346;
}
);
note = period;
unicode = 002E;
},
{
glyphname = slash;
lastChange = "2020-12-26 20:32:08 +0000";
layers = (
{
layerId = "1691882E-B915-4755-A5B2-757873D945FF";
paths = (
{
closed = 1;
nodes = (
"177 -147 OFFCURVE",
"260 -66 OFFCURVE",
"397 94 CURVE SMOOTH",
"504 219 OFFCURVE",
"624 364 OFFCURVE",
"756 529 CURVE SMOOTH",
"888 694 OFFCURVE",
"975 800 OFFCURVE",
"1016 848 CURVE SMOOTH",
"1022 854 OFFCURVE",
"1024 859 OFFCURVE",
"1024 865 CURVE SMOOTH",
"1024 876 OFFCURVE",
"1016 882 OFFCURVE",
"998 882 CURVE SMOOTH",
"980 882 OFFCURVE",
"966 875 OFFCURVE",
"956 862 CURVE SMOOTH",
"884 774 OFFCURVE",
"822 690 OFFCURVE",
"672 502 CURVE SMOOTH",
"540 337 LINE SMOOTH",
"436 207 OFFCURVE",
"380 138 OFFCURVE",
"307 51 CURVE SMOOTH",
"272 10 OFFCURVE",
"229 -37 OFFCURVE",
"204 -65 CURVE SMOOTH",
"134 -133 OFFCURVE",
"133 -147 OFFCURVE",
"148 -147 CURVE SMOOTH"
);
}
);
width = 914;
}
);
note = slash;
unicode = 002F;
},
{
glyphname = zero;
lastChange = "2020-12-25 22:38:55 +0000";
layers = (
{
layerId = "1691882E-B915-4755-A5B2-757873D945FF";
paths = (
{
closed = 1;
nodes = (
"306 -3 OFFCURVE",
"451 226 OFFCURVE",
"506 382 CURVE SMOOTH",
"529 447 OFFCURVE",
"550 524 OFFCURVE",
"550 572 CURVE SMOOTH",
"550 661 OFFCURVE",
"513 705 OFFCURVE",
"439 705 CURVE SMOOTH",
"313 705 OFFCURVE",
"158 548 OFFCURVE",
"72 375 CURVE SMOOTH",
"28 289 OFFCURVE",
"7 214 OFFCURVE",
"7 153 CURVE SMOOTH",
"7 65 OFFCURVE",
"50 -3 OFFCURVE",
"145 -3 CURVE SMOOTH"
);
},
{
closed = 1;
nodes = (
"103 21 OFFCURVE",
"67 85 OFFCURVE",
"67 145 CURVE SMOOTH",
"67 195 OFFCURVE",
"89 274 OFFCURVE",
"132 355 CURVE SMOOTH",
"214 513 OFFCURVE",
"356 682 OFFCURVE",
"440 682 CURVE SMOOTH",
"523 682 OFFCURVE",
"536 585 OFFCURVE",
"462 384 CURVE SMOOTH",
"391 204 OFFCURVE",
"252 21 OFFCURVE",
"152 21 CURVE SMOOTH"
);
}
);
width = 502;
}
);
note = zero;
unicode = 0030;
},
{
glyphname = one;
lastChange = "2020-12-25 23:28:07 +0000";
layers = (
{
layerId = "1691882E-B915-4755-A5B2-757873D945FF";
paths = (
{
closed = 1;
nodes = (
"73 3 OFFCURVE",
"96 6 OFFCURVE",
"100 8 CURVE",
"465 694 LINE",
"398 697 LINE SMOOTH",
"369 697 OFFCURVE",
"342 672 OFFCURVE",
"175 559 CURVE SMOOTH",
"143 537 OFFCURVE",
"161 536 OFFCURVE",
"166 537 CURVE",
"180.159 537 OFFCURVE",
"287.522 582.566 OFFCURVE",
"364.915 621.443 CURVE",
"40 9 LINE",
"35 0 LINE"
);
}
);
width = 378;
}
);
note = one;
unicode = 0031;
},
{
glyphname = two;
lastChange = "2020-12-25 23:43:45 +0000";
layers = (
{
layerId = "1691882E-B915-4755-A5B2-757873D945FF";
paths = (
{
closed = 1;
nodes = (
"286 -5 OFFCURVE",
"349 43 OFFCURVE",
"427 138 CURVE",
"427 143 LINE",
"418 150 LINE",
"404 146 OFFCURVE",
"378 113 OFFCURVE",
"343 83 CURVE SMOOTH",
"328 70 OFFCURVE",
"285 32 OFFCURVE",
"266 32 CURVE SMOOTH",
"247 32 OFFCURVE",
"206 49 OFFCURVE",
"114 94 CURVE",
"118 97 OFFCURVE",
"379 346 OFFCURVE",
"478 461 CURVE SMOOTH",
"533 524 OFFCURVE",
"553 574 OFFCURVE",
"553 612 CURVE SMOOTH",
"553 638 OFFCURVE",
"540 658 OFFCURVE",
"522 674 CURVE SMOOTH",
"502 692 OFFCURVE",
"476 701 OFFCURVE",
"444 701 CURVE SMOOTH",
"332 701 OFFCURVE",
"234 597 OFFCURVE",
"192 480 CURVE",
"194 473 LINE",
"209 473 LINE",
"214 478 LINE",
"249 570 OFFCURVE",
"329 664 OFFCURVE",
"409 665 CURVE SMOOTH",
"463 666 OFFCURVE",
"493 646 OFFCURVE",
"493 611 CURVE SMOOTH",
"493 576 OFFCURVE",
"484 526 OFFCURVE",
"438 471 CURVE SMOOTH",
"356 373 OFFCURVE",
"227 247 OFFCURVE",
"76 108 CURVE",
"71 111 OFFCURVE",
"62 112 OFFCURVE",
"50 109 CURVE SMOOTH",
"42 107 OFFCURVE",
"-48 18 OFFCURVE",
"-50 10 CURVE",
"-34 0 LINE",
"50 66 LINE",
"82 55 OFFCURVE",
"160 -5 OFFCURVE",
"238 -5 CURVE SMOOTH"
);
}
);
width = 488;
}
);
note = two;
unicode = 0032;
},
{
glyphname = three;
lastChange = "2020-12-25 23:04:42 +0000";
layers = (
{
layerId = "1691882E-B915-4755-A5B2-757873D945FF";
paths = (
{
closed = 1;
nodes = (
"30 23 OFFCURVE",
"2 28 OFFCURVE",
"-23 40 CURVE",
"-30 38 LINE",
"-38 31 LINE",
"-38 25 LINE",
"20 -17 OFFCURVE",
"120 -15 OFFCURVE",
"226 38 CURVE SMOOTH",
"281 66 OFFCURVE",
"328 103 OFFCURVE",
"369 151 CURVE SMOOTH",
"410 198 OFFCURVE",
"430 247 OFFCURVE",
"430 289 CURVE SMOOTH",
"430 375 OFFCURVE",
"346 402 OFFCURVE",
"267 402 CURVE",
"340 428 OFFCURVE",
"398 456 OFFCURVE",
"441 486 CURVE SMOOTH",
"503 529 OFFCURVE",
"534 577 OFFCURVE",
"534 628 CURVE SMOOTH",
"534 679 OFFCURVE",
"495 703 OFFCURVE",
"442 703 CURVE SMOOTH",
"369 703 OFFCURVE",
"296 659 OFFCURVE",
"224 571 CURVE",
"224 565 LINE",
"233 558 LINE",
"238 558 LINE",
"314 643 OFFCURVE",
"391 667 OFFCURVE",
"439 665 CURVE SMOOTH",
"466 664 OFFCURVE",
"474 648 OFFCURVE",
"474 627 CURVE SMOOTH",
"474 581 OFFCURVE",
"448 541 OFFCURVE",
"409 507 CURVE SMOOTH",
"344 448 OFFCURVE",
"243 407 OFFCURVE",
"175 379 CURVE",
"170 373 LINE",
"171 362 LINE",
"180 359 LINE",
"345 379 OFFCURVE",
"370 322 OFFCURVE",
"370 292 CURVE SMOOTH",
"370 261 OFFCURVE",
"357 212 OFFCURVE",
"309 165 CURVE SMOOTH",
"267 124 OFFCURVE",
"219 83 OFFCURVE",
"166 56 CURVE SMOOTH",
"124 35 OFFCURVE",
"86 23 OFFCURVE",
"61 23 CURVE SMOOTH"
);
}
);
width = 458;
}
);
note = three;
unicode = 0033;
},
{
glyphname = four;
lastChange = "2020-12-25 23:08:44 +0000";
layers = (
{
layerId = "1691882E-B915-4755-A5B2-757873D945FF";
paths = (
{
closed = 1;
nodes = (
"290 0 LINE",
"292 4 OFFCURVE",
"311 43 OFFCURVE",
"338 97 CURVE SMOOTH",
"356 132 OFFCURVE",
"378 176 OFFCURVE",
"406 232 CURVE",
"440 233 LINE",
"449 239 LINE",
"455 252 LINE",
"448 257 LINE",
"419 257 LINE",
"430 276 OFFCURVE",
"501 412 OFFCURVE",
"500 416 CURVE SMOOTH",
"498 424 LINE",
"491 428 LINE",
"478 425 OFFCURVE",
"473 423 OFFCURVE",
"460 420 CURVE SMOOTH",
"452 418 OFFCURVE",
"447 412 OFFCURVE",
"443 404 CURVE SMOOTH",
"364 253 LINE",
"84 248 LINE",
"92 256 OFFCURVE",
"187 340 OFFCURVE",
"366 504 CURVE SMOOTH",
"418 553 OFFCURVE",
"458 591 OFFCURVE",
"485 620 CURVE SMOOTH",
"514 650 OFFCURVE",
"528 669 OFFCURVE",
"526 677 CURVE SMOOTH",
"524 685 LINE",
"516 689 LINE",
"487 684 OFFCURVE",
"472 692 OFFCURVE",
"425 634 CURVE SMOOTH",
"353 536 OFFCURVE",
"232 436 OFFCURVE",
"128 332 CURVE SMOOTH",
"76 279 OFFCURVE",
"45 245 OFFCURVE",
"38 231 CURVE",
"38 221 LINE",
"349 228 LINE",
"321 178 OFFCURVE",
"295 135 OFFCURVE",
"278 100 CURVE SMOOTH",
"246 37 OFFCURVE",
"240 17 OFFCURVE",
"240 0 CURVE"
);
}
);
width = 464;
}
);
note = four;
unicode = 0034;
},
{
glyphname = five;
lastChange = "2020-12-25 23:44:29 +0000";
layers = (
{
layerId = "1691882E-B915-4755-A5B2-757873D945FF";
paths = (
{
closed = 1;
nodes = (
"42 -46 OFFCURVE",
"410 101 OFFCURVE",
"410 339 CURVE SMOOTH",
"410 408 OFFCURVE",
"361 444 OFFCURVE",
"290 444 CURVE SMOOTH",
"237 444 OFFCURVE",
"193 426 OFFCURVE",
"140 390 CURVE",
"302 659 LINE",
"414 655 LINE SMOOTH",
"483 653 OFFCURVE",
"511 650 OFFCURVE",
"559 715 CURVE",
"554 718 LINE",
"503 679 OFFCURVE",
"427 689 OFFCURVE",
"378 696 CURVE SMOOTH",
"343 701 OFFCURVE",
"318 702 OFFCURVE",
"278 689 CURVE",
"275 687 OFFCURVE",
"269 678 OFFCURVE",
"261 665 CURVE SMOOTH",
"225 609 OFFCURVE",
"147 472 OFFCURVE",
"108 399 CURVE SMOOTH",
"96 377 OFFCURVE",
"88 361 OFFCURVE",
"86 355 CURVE",
"86 348 LINE",
"94 346 LINE",
"152 379 OFFCURVE",
"219 413 OFFCURVE",
"270 416 CURVE SMOOTH",
"317 419 OFFCURVE",
"350 395 OFFCURVE",
"350 336 CURVE SMOOTH",
"350 202 OFFCURVE",
"157 31 OFFCURVE",
"22 31 CURVE SMOOTH",
"-8 31 OFFCURVE",
"-33 34 OFFCURVE",
"-52 42 CURVE",
"-57 39 LINE",
"-64 31 LINE",
"-64 22 LINE"
);
}
);
width = 445;
}
);
note = five;
unicode = 0035;
},
{
glyphname = six;
lastChange = "2020-12-26 00:35:37 +0000";
layers = (
{
layerId = "1691882E-B915-4755-A5B2-757873D945FF";
paths = (
{
closed = 1;
nodes = (
"216 -11 OFFCURVE",
"318 79 OFFCURVE",
"386 181 CURVE SMOOTH",
"419 231 OFFCURVE",
"433 266 OFFCURVE",
"433 312 CURVE SMOOTH",
"433 368 OFFCURVE",
"402 407 OFFCURVE",
"348 407 CURVE SMOOTH",
"249 407 OFFCURVE",
"151 286 OFFCURVE",
"126 179 CURVE",
"129 171 LINE",
"141 173 LINE",
"145 179 LINE",
"172 245 OFFCURVE",
"204 297 OFFCURVE",
"244 334 CURVE SMOOTH",
"269 358 OFFCURVE",
"294 373 OFFCURVE",
"319 373 CURVE SMOOTH",
"348 373 OFFCURVE",
"377 351 OFFCURVE",
"379 315 CURVE SMOOTH",
"381 276 OFFCURVE",
"378 247 OFFCURVE",
"344 199 CURVE SMOOTH",
"280 110 OFFCURVE",
"185 26 OFFCURVE",
"129 26 CURVE SMOOTH",
"75 26 OFFCURVE",
"55 84 OFFCURVE",
"57 127 CURVE SMOOTH",
"60 209 OFFCURVE",
"125 326 OFFCURVE",
"227 447 CURVE SMOOTH",
"277 506 OFFCURVE",
"329 560 OFFCURVE",
"461 679 CURVE SMOOTH",
"468 687 OFFCURVE",
"471 693 OFFCURVE",
"473 695 CURVE",
"465 708 LINE",
"457 707 LINE",
"357 636 OFFCURVE",
"259 552 OFFCURVE",
"167 454 CURVE SMOOTH",
"66 347 OFFCURVE",
"-3 217 OFFCURVE",
"-3 126 CURVE SMOOTH",
"-3 34 OFFCURVE",
"45 -11 OFFCURVE",
"131 -11 CURVE SMOOTH"
);
}
);
width = 421;
}
);
note = six;
unicode = 0036;
},
{
glyphname = seven;
lastChange = "2020-12-25 23:17:06 +0000";
layers = (
{
layerId = "1691882E-B915-4755-A5B2-757873D945FF";
paths = (
{
closed = 1;
nodes = (
"95 10 OFFCURVE",
"51 7 OFFCURVE",
"107 82 CURVE SMOOTH",
"212 223 OFFCURVE",
"322 344 OFFCURVE",
"433 460 CURVE SMOOTH",
"541 574 OFFCURVE",
"608 644 OFFCURVE",
"632 672 CURVE",
"635 681 LINE",
"630 688 LINE",
"624 688 OFFCURVE",
"616 684 OFFCURVE",
"606 676 CURVE",
"541 684 OFFCURVE",
"467 694 OFFCURVE",
"403 689 CURVE SMOOTH",
"360 686 OFFCURVE",
"321 676 OFFCURVE",
"293 656 CURVE SMOOTH",
"267 637 OFFCURVE",
"236 595 OFFCURVE",
"203 528 CURVE",
"203 521 LINE",
"207 519 LINE",
"217 520 OFFCURVE",
"232 535 OFFCURVE",
"251 563 CURVE SMOOTH",
"265 584 OFFCURVE",
"301 643 OFFCURVE",
"349 642 CURVE SMOOTH",
"540 637 LINE",
"373 461 LINE SMOOTH",
"204 282 OFFCURVE",
"131 195 OFFCURVE",
"47 95 CURVE SMOOTH",
"-3 36 OFFCURVE",
"-14 19 OFFCURVE",
"-16 9 CURVE",
"-15 4 LINE",
"-8 0 LINE"
);
}
);
width = 488;
}
);
note = seven;
unicode = 0037;
},
{
glyphname = eight;
lastChange = "2020-12-25 23:21:45 +0000";
layers = (
{
layerId = "1691882E-B915-4755-A5B2-757873D945FF";
paths = (
{
closed = 1;
nodes = (
"224 -6 OFFCURVE",
"346 77 OFFCURVE",
"348 192 CURVE SMOOTH",
"349 249 OFFCURVE",
"322 315 OFFCURVE",
"306 349 CURVE",
"349 385 OFFCURVE",
"405 423 OFFCURVE",
"440 461 CURVE SMOOTH",
"483 510 OFFCURVE",
"506 541 OFFCURVE",
"507 613 CURVE SMOOTH",
"508 666 OFFCURVE",
"460 700 OFFCURVE",
"396 700 CURVE SMOOTH",
"292 700 OFFCURVE",
"197 609 OFFCURVE",
"194 505 CURVE SMOOTH",
"193 471 OFFCURVE",
"209 430 OFFCURVE",
"223 399 CURVE",
"174 363 OFFCURVE",
"115 330 OFFCURVE",
"63 281 CURVE SMOOTH",
"2 224 OFFCURVE",
"-31 166 OFFCURVE",
"-31 103 CURVE SMOOTH",
"-31 40 OFFCURVE",
"31 -6 OFFCURVE",
"106 -6 CURVE SMOOTH"
);
},
{
closed = 1;
nodes = (
"54 19 OFFCURVE",
"18 53 OFFCURVE",
"18 107 CURVE SMOOTH",
"18 196 OFFCURVE",
"111 264 OFFCURVE",
"241 360 CURVE",
"275 279 OFFCURVE",
"290 241 OFFCURVE",
"288 196 CURVE SMOOTH",
"284 106 OFFCURVE",
"196 19 OFFCURVE",
"108 19 CURVE SMOOTH"
);
},
{
closed = 1;
nodes = (
"250 468 OFFCURVE",
"252 471 OFFCURVE",
"254 505 CURVE SMOOTH",
"258 573 OFFCURVE",
"326 675 OFFCURVE",
"396 676 CURVE SMOOTH",
"438 677 OFFCURVE",
"463 650 OFFCURVE",
"463 609 CURVE SMOOTH",
"463 529 OFFCURVE",
"367 452 OFFCURVE",
"290 388 CURVE"
);
}
);
width = 420;
}
);
note = eight;
unicode = 0038;
},
{
glyphname = nine;
lastChange = "2020-12-26 05:21:25 +0000";
layers = (
{
layerId = "1691882E-B915-4755-A5B2-757873D945FF";
paths = (
{
closed = 1;
nodes = (
"93 -12 LINE",
"190 51 OFFCURVE",
"285 133 OFFCURVE",
"378 233 CURVE SMOOTH",
"472 334 OFFCURVE",
"534 459 OFFCURVE",
"536 552 CURVE SMOOTH",
"538 645 OFFCURVE",
"495 707 OFFCURVE",
"418 707 CURVE SMOOTH",
"284 707 OFFCURVE",
"99 517 OFFCURVE",
"99 378 CURVE SMOOTH",
"99 323 OFFCURVE",
"132 264 OFFCURVE",
"185 264 CURVE SMOOTH",
"279 264 OFFCURVE",
"368 385 OFFCURVE",
"411 497 CURVE",
"410 503 LINE",
"397 504 LINE",
"392 501 LINE",
"346 390 OFFCURVE",
"291 315 OFFCURVE",
"228 310 CURVE SMOOTH",
"188 307 OFFCURVE",
"159 336 OFFCURVE",
"159 381 CURVE SMOOTH",
"161 541 OFFCURVE",
"327 682 OFFCURVE",
"398 682 CURVE SMOOTH",
"471 682 OFFCURVE",
"482 603 OFFCURVE",
"476 559 CURVE SMOOTH",
"449 358 OFFCURVE",
"277 141 OFFCURVE",
"85 6 CURVE",
"80 -1 LINE",
"86 -12 LINE"
);
}
);
width = 495;
}
);
note = nine;
unicode = 0039;
},
{
glyphname = colon;
lastChange = "2020-12-26 20:31:15 +0000";
layers = (
{
layerId = "1691882E-B915-4755-A5B2-757873D945FF";
paths = (
{
closed = 1;
nodes = (
"202 0 OFFCURVE",
"240 25 OFFCURVE",
"240 76 CURVE SMOOTH",
"240 91 OFFCURVE",
"222 118 OFFCURVE",
"189 118 CURVE SMOOTH",
"162 118 OFFCURVE",
"120 97 OFFCURVE",
"120 42 CURVE SMOOTH",
"120 27 OFFCURVE",
"137 0 OFFCURVE",
"169 0 CURVE SMOOTH"
);
},
{
closed = 1;
nodes = (
"354 321 OFFCURVE",
"397 341 OFFCURVE",
"397 396 CURVE SMOOTH",
"397 411 OFFCURVE",
"379 438 OFFCURVE",
"347 438 CURVE SMOOTH",
"314 438 OFFCURVE",
"282 411 OFFCURVE",
"278 379 CURVE SMOOTH",
"272 347 OFFCURVE",
"294 321 OFFCURVE",
"327 321 CURVE SMOOTH"
);
}
);
width = 438;
}
);
note = colon;
unicode = 003A;
},
{
glyphname = semicolon;
lastChange = "2020-12-26 05:13:08 +0000";
layers = (
{
layerId = "1691882E-B915-4755-A5B2-757873D945FF";
paths = (
{
closed = 1;
nodes = (
"198 -81 OFFCURVE",
"267 -26 OFFCURVE",
"267 60 CURVE SMOOTH",
"267 102 OFFCURVE",
"246 137 OFFCURVE",
"211 137 CURVE SMOOTH",
"128 137 OFFCURVE",
"114 20 OFFCURVE",
"186 20 CURVE SMOOTH",
"201 20 OFFCURVE",
"215 24 OFFCURVE",
"230 34 CURVE",
"222 -27 OFFCURVE",
"176 -72 OFFCURVE",
"119 -91 CURVE SMOOTH",
"107 -96 OFFCURVE",
"99 -116 OFFCURVE",
"124 -106 CURVE SMOOTH"
);
},
{
closed = 1;
nodes = (
"373 340 OFFCURVE",
"415 361 OFFCURVE",
"415 415 CURVE SMOOTH",
"415 430 OFFCURVE",
"397 457 OFFCURVE",
"365 457 CURVE SMOOTH",
"332 457 OFFCURVE",
"300 430 OFFCURVE",
"296 398 CURVE SMOOTH",
"291 365 OFFCURVE",
"312 340 OFFCURVE",
"345 340 CURVE SMOOTH"
);
}
);
width = 415;
}
);
note = semicolon;
unicode = 003B;
},
{
glyphname = less;
lastChange = "2020-12-27 08:43:12 +0000";
layers = (
{
layerId = "1691882E-B915-4755-A5B2-757873D945FF";
paths = (
{
closed = 1;
nodes = (
"231 23 OFFCURVE",
"224 40 OFFCURVE",
"217 56 CURVE SMOOTH",
"131 254 LINE",
"340 359 LINE SMOOTH",
"358 369 OFFCURVE",
"372 408 OFFCURVE",
"357 403 CURVE SMOOTH",
"173 332 LINE SMOOTH",
"127 314 OFFCURVE",
"63 285 OFFCURVE",
"55 265 CURVE SMOOTH",
"48 248 OFFCURVE",
"86 176 OFFCURVE",
"132 113 CURVE SMOOTH",
"191 32 OFFCURVE",
"212 11 OFFCURVE",
"225 19 CURVE SMOOTH"
);
}
);
width = 329;
}
);
note = less;
unicode = 003C;
},
{
glyphname = equal;
lastChange = "2020-12-26 00:14:48 +0000";
layers = (
{
layerId = "1691882E-B915-4755-A5B2-757873D945FF";
paths = (
{
closed = 1;
nodes = (
"128 387 OFFCURVE",
"165 392 OFFCURVE",
"227 402 CURVE SMOOTH",
"271 409 OFFCURVE",
"345 413 OFFCURVE",
"449 413 CURVE SMOOTH",
"466 413 OFFCURVE",
"475 418 OFFCURVE",
"475 429 CURVE SMOOTH",
"475 449 OFFCURVE",
"425 459 OFFCURVE",
"328 459 CURVE SMOOTH",
"107 459 LINE SMOOTH",
"90 459 OFFCURVE",
"82 450 OFFCURVE",
"82 431 CURVE SMOOTH",
"82 402 OFFCURVE",
"92 387 OFFCURVE",
"115 387 CURVE SMOOTH"
);
},
{
closed = 1;
nodes = (
"128 237 OFFCURVE",
"165 242 OFFCURVE",
"227 252 CURVE SMOOTH",
"271 259 OFFCURVE",
"345 263 OFFCURVE",
"449 263 CURVE SMOOTH",
"466 263 OFFCURVE",
"475 268 OFFCURVE",
"475 279 CURVE SMOOTH",
"475 299 OFFCURVE",
"425 309 OFFCURVE",
"328 309 CURVE SMOOTH",
"107 309 LINE SMOOTH",
"90 309 OFFCURVE",
"82 300 OFFCURVE",
"82 281 CURVE SMOOTH",
"82 252 OFFCURVE",
"92 237 OFFCURVE",
"115 237 CURVE SMOOTH"
);
}
);
width = 458;
}
);
note = equal;
unicode = 003D;
},
{
glyphname = greater;
lastChange = "2020-12-27 08:42:07 +0000";
layers = (
{
layerId = "1691882E-B915-4755-A5B2-757873D945FF";
paths = (
{
closed = 1;
nodes = (
"176 47 OFFCURVE",
"203 59 OFFCURVE",
"288 112 CURVE SMOOTH",
"354 153 OFFCURVE",
"417 206 OFFCURVE",
"417 224 CURVE SMOOTH",
"417 246 OFFCURVE",
"368 297 OFFCURVE",
"332 331 CURVE SMOOTH",
"188 465 LINE SMOOTH",
"176 476 OFFCURVE",
"174 434 OFFCURVE",
"188 418 CURVE SMOOTH",
"342 243 LINE",
"188 91 LINE SMOOTH",
"176 79 OFFCURVE",
"163 66 OFFCURVE",
"167 60 CURVE SMOOTH"
);
}
);
width = 457;
}
);
note = greater;
unicode = 003E;
},
{
glyphname = question;
lastChange = "2020-12-26 13:35:44 +0000";
layers = (
{
layerId = "1691882E-B915-4755-A5B2-757873D945FF";
paths = (
{
closed = 1;
nodes = (
"255 294 OFFCURVE",
"309 361 OFFCURVE",
"410 461 CURVE SMOOTH",
"461 510 OFFCURVE",
"497 546 OFFCURVE",
"518 569 CURVE SMOOTH",
"578 637 OFFCURVE",
"609 697 OFFCURVE",
"609 748 CURVE SMOOTH",
"609 798 OFFCURVE",
"559 847 OFFCURVE",
"480 849 CURVE SMOOTH",
"381 852 OFFCURVE",
"223 768 OFFCURVE",
"223 669 CURVE SMOOTH",
"223 639 OFFCURVE",
"240 598 OFFCURVE",
"291 598 CURVE SMOOTH",
"331 598 OFFCURVE",
"364 627 OFFCURVE",
"364 672 CURVE SMOOTH",
"364 704 OFFCURVE",
"346 720 OFFCURVE",
"316 720 CURVE SMOOTH",
"289 720 OFFCURVE",
"256 702 OFFCURVE",
"247 670 CURVE",
"247 677 LINE SMOOTH",
"247 744 OFFCURVE",
"350 794 OFFCURVE",
"432 793 CURVE SMOOTH",
"486 792 OFFCURVE",
"531 766 OFFCURVE",
"531 716 CURVE SMOOTH",
"531 683 OFFCURVE",
"494 646 OFFCURVE",
"461 604 CURVE SMOOTH",
"449 588 OFFCURVE",
"395 526 OFFCURVE",
"293 396 CURVE SMOOTH",
"261 352 OFFCURVE",
"202 256 OFFCURVE",
"187 193 CURVE SMOOTH",
"184 175 OFFCURVE",
"206 167 OFFCURVE",
"214 183 CURVE SMOOTH"
);
},
{
closed = 1;
nodes = (
"176 -51 OFFCURVE",
"214 -32 OFFCURVE",
"214 18 CURVE SMOOTH",
"214 32 OFFCURVE",
"199 55 OFFCURVE",
"170 55 CURVE SMOOTH",
"140 55 OFFCURVE",
"106 33 OFFCURVE",
"106 -13 CURVE SMOOTH",
"106 -27 OFFCURVE",
"122 -51 OFFCURVE",
"151 -51 CURVE SMOOTH"
);
}
);
width = 432;
}
);
note = question;
unicode = 003F;
},
{
glyphname = at;
lastChange = "2020-12-26 00:05:17 +0000";
layers = (
{
layerId = "1691882E-B915-4755-A5B2-757873D945FF";
paths = (
{
closed = 1;
nodes = (
"443 -43 OFFCURVE",
"527 -15 OFFCURVE",
"608 38 CURVE",
"620 44 OFFCURVE",
"608 60 OFFCURVE",
"599 51 CURVE",
"524 0 OFFCURVE",
"445 -26 OFFCURVE",
"362 -26 CURVE SMOOTH",
"276 -26 OFFCURVE",
"203 -2 OFFCURVE",
"147 65 CURVE SMOOTH",
"119 98 OFFCURVE",
"104 144 OFFCURVE",
"104 201 CURVE SMOOTH",
"104 318 OFFCURVE",
"170 444 OFFCURVE",
"290 520 CURVE SMOOTH",
"351 558 OFFCURVE",
"415 577 OFFCURVE",
"483 577 CURVE SMOOTH",
"558 577 OFFCURVE",
"619 559 OFFCURVE",
"667 504 CURVE SMOOTH",
"691 476 OFFCURVE",
"703 438 OFFCURVE",
"703 389 CURVE SMOOTH",
"703 311 OFFCURVE",
"665 218 OFFCURVE",
"598 163 CURVE SMOOTH",
"564 136 OFFCURVE",
"531 122 OFFCURVE",
"499 122 CURVE SMOOTH",
"473 122 OFFCURVE",
"460 136 OFFCURVE",
"460 164 CURVE SMOOTH",
"460 191 OFFCURVE",
"475 232 OFFCURVE",
"503 286 CURVE SMOOTH",
"524 327 OFFCURVE",
"541 353 OFFCURVE",
"552 365 CURVE",
"547 363 OFFCURVE",
"539 364 OFFCURVE",
"529 366 CURVE SMOOTH",
"519 368 OFFCURVE",
"511 369 OFFCURVE",
"508 369 CURVE SMOOTH",
"477 369 OFFCURVE",
"464 343 OFFCURVE",
"431 280 CURVE SMOOTH",
"410 238 OFFCURVE",
"386 202 OFFCURVE",
"359 171 CURVE SMOOTH",
"335 142 OFFCURVE",
"314 128 OFFCURVE",
"295 128 CURVE SMOOTH",
"278 128 OFFCURVE",
"269 139 OFFCURVE",
"269 161 CURVE SMOOTH",
"269 192 OFFCURVE",
"281 228 OFFCURVE",
"307 270 CURVE SMOOTH",
"347 336 OFFCURVE",
"396 390 OFFCURVE",
"439 413 CURVE SMOOTH",
"451 420 OFFCURVE",
"463 423 OFFCURVE",
"475 423 CURVE SMOOTH",
"499 423 OFFCURVE",
"515 412 OFFCURVE",
"522 389 CURVE",
"537 386 OFFCURVE",
"544 402 OFFCURVE",
"531 417 CURVE",
"511 437 OFFCURVE",
"486 447 OFFCURVE",
"455 447 CURVE SMOOTH",
"444 447 OFFCURVE",
"433 446 OFFCURVE",
"420 442 CURVE SMOOTH",
"375 432 OFFCURVE",
"338 409 OFFCURVE",
"307 372 CURVE SMOOTH",
"253 307 OFFCURVE",
"226 244 OFFCURVE",
"226 181 CURVE SMOOTH",
"226 145 OFFCURVE",
"236 121 OFFCURVE",
"257 109 CURVE SMOOTH",
"264 103 OFFCURVE",
"273 101 OFFCURVE",
"283 101 CURVE SMOOTH",
"319 101 OFFCURVE",
"371 151 OFFCURVE",
"416 225 CURVE",
"411 205 OFFCURVE",
"407 186 OFFCURVE",
"407 170 CURVE SMOOTH",
"407 154 OFFCURVE",
"411 141 OFFCURVE",
"419 131 CURVE SMOOTH",
"434 114 OFFCURVE",
"451 106 OFFCURVE",
"471 106 CURVE SMOOTH",
"476 106 LINE SMOOTH",
"514 106 OFFCURVE",
"573 125 OFFCURVE",
"601 147 CURVE SMOOTH",
"683 214 OFFCURVE",
"735 307 OFFCURVE",
"735 390 CURVE SMOOTH",
"735 430 OFFCURVE",
"725 466 OFFCURVE",
"706 494 CURVE SMOOTH",
"691 518 OFFCURVE",
"671 537 OFFCURVE",
"647 551 CURVE SMOOTH",
"598 579 OFFCURVE",
"543 594 OFFCURVE",
"481 594 CURVE SMOOTH",
"275 594 OFFCURVE",
"67 418 OFFCURVE",
"67 206 CURVE SMOOTH",
"67 145 OFFCURVE",
"84 93 OFFCURVE",
"117 53 CURVE SMOOTH",
"171 -11 OFFCURVE",
"250 -43 OFFCURVE",
"356 -43 CURVE SMOOTH"
);
}
);
width = 788;
}
);
note = at;
rightKerningGroup = "-";
unicode = 0040;
},
{
glyphname = B;
lastChange = "2020-12-27 09:03:25 +0000";
layers = (
{
layerId = "1691882E-B915-4755-A5B2-757873D945FF";
paths = (
{
closed = 1;
nodes = (
"261 -39 OFFCURVE",
"331 -15 OFFCURVE",
"397 34 CURVE",
"470 1 OFFCURVE",
"558 -22 OFFCURVE",
"663 -35 CURVE SMOOTH",
"679 -37 OFFCURVE",
"695 -38 OFFCURVE",
"712 -38 CURVE SMOOTH",
"757 -38 OFFCURVE",
"804 -30 OFFCURVE",
"852 -15 CURVE SMOOTH",
"917 6 OFFCURVE",
"968 39 OFFCURVE",
"1007 86 CURVE SMOOTH",
"1034 119 OFFCURVE",
"1048 154 OFFCURVE",
"1048 192 CURVE SMOOTH",
"1048 249 OFFCURVE",
"1022 294 OFFCURVE",
"970 328 CURVE SMOOTH",
"933 352 OFFCURVE",
"894 371 OFFCURVE",
"851 384 CURVE",
"939 388 OFFCURVE",
"1037 421 OFFCURVE",
"1076 488 CURVE SMOOTH",
"1091 513 OFFCURVE",
"1098 539 OFFCURVE",
"1098 564 CURVE SMOOTH",
"1098 589 OFFCURVE",
"1087 613 OFFCURVE",
"1066 637 CURVE SMOOTH",
"1026 680 OFFCURVE",
"961 714 OFFCURVE",
"870 737 CURVE",
"882 768 OFFCURVE",
"933 784 OFFCURVE",
"912 784 CURVE",
"906 790 OFFCURVE",
"870 776 OFFCURVE",
"834 745 CURVE",
"765 760 OFFCURVE",
"698 767 OFFCURVE",
"632 767 CURVE SMOOTH",
"565 767 OFFCURVE",
"501 763 OFFCURVE",
"440 754 CURVE SMOOTH",
"313 736 OFFCURVE",
"217 690 OFFCURVE",
"152 617 CURVE SMOOTH",
"111 572 OFFCURVE",
"91 527 OFFCURVE",
"91 481 CURVE SMOOTH",
"91 414 OFFCURVE",
"126 368 OFFCURVE",
"197 343 CURVE",
"249 334 LINE",
"276 334 OFFCURVE",
"304 341 OFFCURVE",
"331 356 CURVE SMOOTH",
"376 381 OFFCURVE",
"402 418 OFFCURVE",
"409 467 CURVE SMOOTH",
"409 468 LINE SMOOTH",
"408 477 OFFCURVE",
"405 481 OFFCURVE",
"398 482 CURVE SMOOTH",
"384 482 OFFCURVE",
"390 465 OFFCURVE",
"378 440 CURVE SMOOTH",
"371 426 OFFCURVE",
"359 412 OFFCURVE",
"344 397 CURVE SMOOTH",
"302 357 OFFCURVE",
"252 354 OFFCURVE",
"207 367 CURVE SMOOTH",
"160 382 OFFCURVE",
"136 413 OFFCURVE",
"136 462 CURVE SMOOTH",
"136 499 OFFCURVE",
"153 537 OFFCURVE",
"187 578 CURVE SMOOTH",
"243 645 OFFCURVE",
"323 690 OFFCURVE",
"427 712 CURVE SMOOTH",
"503 729 OFFCURVE",
"573 737 OFFCURVE",
"636 737 CURVE SMOOTH",
"699 737 OFFCURVE",
"757 732 OFFCURVE",
"810 723 CURVE",
"753 658 LINE SMOOTH",
"677 574 OFFCURVE",
"598 440 OFFCURVE",
"551 342 CURVE SMOOTH",
"503 244 OFFCURVE",
"436 129 OFFCURVE",
"377 72 CURVE",
"333 94 OFFCURVE",
"274 130 OFFCURVE",
"219 150 CURVE SMOOTH",
"196 158 OFFCURVE",
"171 162 OFFCURVE",
"143 162 CURVE SMOOTH",
"100 162 OFFCURVE",
"67 149 OFFCURVE",
"43 122 CURVE SMOOTH",
"28 105 OFFCURVE",
"20 88 OFFCURVE",
"20 73 CURVE SMOOTH",
"20 58 OFFCURVE",
"22 44 OFFCURVE",
"27 33 CURVE SMOOTH",
"48 -15 OFFCURVE",
"101 -39 OFFCURVE",
"188 -39 CURVE SMOOTH"
);
},
{
closed = 1;
nodes = (
"132 -8 OFFCURVE",
"102 7 OFFCURVE",
"87 37 CURVE SMOOTH",
"68 75 OFFCURVE",
"90 131 OFFCURVE",
"146 131 CURVE SMOOTH",
"166 131 OFFCURVE",
"186 127 OFFCURVE",
"207 120 CURVE SMOOTH",
"228 113 OFFCURVE",
"277 90 OFFCURVE",
"355 53 CURVE",
"301 12 OFFCURVE",
"242 -8 OFFCURVE",
"179 -8 CURVE SMOOTH"
);
},
{
closed = 1;
nodes = (
"687 -10 OFFCURVE",
"675 -9 OFFCURVE",
"662 -8 CURVE SMOOTH",
"575 1 OFFCURVE",
"494 21 OFFCURVE",
"419 52 CURVE",
"457 88 LINE",
"506 141 OFFCURVE",
"577 247 OFFCURVE",
"668 404 CURVE SMOOTH",
"759 561 OFFCURVE",
"823 663 OFFCURVE",
"858 712 CURVE",
"975 685 OFFCURVE",
"1034 640 OFFCURVE",
"1034 577 CURVE SMOOTH",
"1034 548 OFFCURVE",
"1019 516 OFFCURVE",
"989 483 CURVE SMOOTH",
"952 442 OFFCURVE",
"891 413 OFFCURVE",
"854 413 CURVE SMOOTH",
"811 412 OFFCURVE",
"763 418 OFFCURVE",
"729 418 CURVE SMOOTH",
"710 417 OFFCURVE",
"700 411 OFFCURVE",
"700 398 CURVE",
"711 373 OFFCURVE",
"808 362 OFFCURVE",
"886 325 CURVE SMOOTH",
"944 297 OFFCURVE",
"973 256 OFFCURVE",
"973 201 CURVE SMOOTH",
"973 148 OFFCURVE",
"945 99 OFFCURVE",
"888 54 CURVE SMOOTH",
"836 11 OFFCURVE",
"773 -10 OFFCURVE",
"698 -10 CURVE SMOOTH"
);
}
);
width = 958;
}
);
note = B;
unicode = 0042;
},
{
glyphname = C;
lastChange = "2020-12-26 21:30:22 +0000";
layers = (
{
layerId = "1691882E-B915-4755-A5B2-757873D945FF";
paths = (
{
closed = 1;
nodes = (
"195 488 CURVE SMOOTH",
"264 635 OFFCURVE",
"436 803 OFFCURVE",
"623 783 CURVE SMOOTH",
"697 775 OFFCURVE",
"771 712 OFFCURVE",
"775 651 CURVE SMOOTH",
"778 603 OFFCURVE",
"773 573 OFFCURVE",
"748 542 CURVE SMOOTH",
"699 484 OFFCURVE",
"600 447 OFFCURVE",
"514 427 CURVE SMOOTH",
"504 425 OFFCURVE",
"506 407 OFFCURVE",
"512 408 CURVE SMOOTH",
"604 424 OFFCURVE",
"701 454 OFFCURVE",
"760 509 CURVE SMOOTH",
"796 541 OFFCURVE",
"819 583 OFFCURVE",
"819 635 CURVE SMOOTH",
"819 733 OFFCURVE",
"740 797 OFFCURVE",
"627 814 CURVE SMOOTH",
"430 843 OFFCURVE",
"239 722 OFFCURVE",
"136 529 CURVE",
"63 375 OFFCURVE",
"56 256 OFFCURVE",
"87 139 CURVE SMOOTH",
"124 -4 OFFCURVE",
"231 -101 OFFCURVE",
"413 -101 CURVE SMOOTH",
"604 -101 OFFCURVE",
"729 12 OFFCURVE",
"814 183 CURVE SMOOTH",
"823 203 OFFCURVE",
"810 210 OFFCURVE",
"802 193 CURVE SMOOTH",
"711 7 OFFCURVE",
"598 -67 OFFCURVE",
"401 -67 CURVE SMOOTH",
"317 -67 OFFCURVE",
"186 0 OFFCURVE",
"145 141 CURVE SMOOTH",
"119 231 OFFCURVE",
"131 352 OFFCURVE"
);
}
);
width = 679;
}
);
note = C;
unicode = 0043;
},
{
glyphname = D;
lastChange = "2020-12-26 22:05:53 +0000";
layers = (
{
layerId = "1691882E-B915-4755-A5B2-757873D945FF";
paths = (
{
closed = 1;
nodes = (
"261 -39 OFFCURVE",
"330 -14 OFFCURVE",
"392 36 CURVE",
"473 -11 OFFCURVE",
"570 -34 OFFCURVE",
"685 -34 CURVE SMOOTH",
"742 -34 OFFCURVE",
"799 -24 OFFCURVE",
"857 -3 CURVE SMOOTH",
"984 42 OFFCURVE",
"1043 154 OFFCURVE",
"1043 293 CURVE SMOOTH",
"1043 363 OFFCURVE",
"1028 428 OFFCURVE",
"998 487 CURVE SMOOTH",
"961 561 OFFCURVE",
"906 622 OFFCURVE",
"835 669 CURVE",
"858 710 OFFCURVE",
"900 772 OFFCURVE",
"923 772 CURVE SMOOTH",
"936 772 OFFCURVE",
"932 786 OFFCURVE",
"917 786 CURVE SMOOTH",
"890 786 OFFCURVE",
"844 754 OFFCURVE",
"792 694 CURVE",
"708 738 OFFCURVE",
"620 760 OFFCURVE",
"527 760 CURVE SMOOTH",
"417 760 OFFCURVE",
"220 726 OFFCURVE",
"128 603 CURVE SMOOTH",
"47 496 OFFCURVE",
"99 367 OFFCURVE",
"197 343 CURVE SMOOTH",
"274 324 OFFCURVE",
"326 344 OFFCURVE",
"360 375 CURVE SMOOTH",
"389 403 OFFCURVE",
"404 439 OFFCURVE",
"408 467 CURVE SMOOTH",
"410 477 OFFCURVE",
"407 483 OFFCURVE",
"402 485 CURVE SMOOTH",
"398 486 OFFCURVE",
"392 484 OFFCURVE",
"388 476 CURVE SMOOTH",
"378 458 OFFCURVE",
"370 423 OFFCURVE",
"341 394 CURVE SMOOTH",
"301 356 OFFCURVE",
"253 355 OFFCURVE",
"207 367 CURVE SMOOTH",
"113 397 OFFCURVE",
"115 498 OFFCURVE",
"184 584 CURVE SMOOTH",
"271 693 OFFCURVE",
"415 730 OFFCURVE",
"526 730 CURVE SMOOTH",
"610 730 OFFCURVE",
"689 708 OFFCURVE",
"764 663 CURVE",
"695 586 OFFCURVE",
"628 453 OFFCURVE",
"573 355 CURVE SMOOTH",
"517 255 OFFCURVE",
"451 136 OFFCURVE",
"384 72 CURVE",
"213 183 OFFCURVE",
"22 199 OFFCURVE",
"20 73 CURVE SMOOTH",
"19 -2 OFFCURVE",
"84 -39 OFFCURVE",
"186 -39 CURVE SMOOTH"
);
},
{
closed = 1;
nodes = (
"136 -8 OFFCURVE",
"80 11 OFFCURVE",
"80 66 CURVE SMOOTH",
"80 145 OFFCURVE",
"189 141 OFFCURVE",
"358 52 CURVE",
"303 12 OFFCURVE",
"243 -8 OFFCURVE",
"179 -8 CURVE SMOOTH"
);
},
{
closed = 1;
nodes = (
"562 -6 OFFCURVE",
"483 14 OFFCURVE",
"416 54 CURVE",
"470 100 OFFCURVE",
"516 162 OFFCURVE",
"560 228 CURVE SMOOTH",
"654 368 OFFCURVE",
"747 531 OFFCURVE",
"811 631 CURVE",
"870 585 OFFCURVE",
"914 528 OFFCURVE",
"944 459 CURVE SMOOTH",
"968 405 OFFCURVE",
"980 347 OFFCURVE",
"980 286 CURVE SMOOTH",
"980 163 OFFCURVE",
"924 79 OFFCURVE",
"836 34 CURVE SMOOTH",
"784 7 OFFCURVE",
"722 -6 OFFCURVE",
"653 -6 CURVE SMOOTH"
);
}
);
width = 1033;
}
);
note = D;
unicode = 0044;
},
{
glyphname = E;
lastChange = "2020-12-31 05:43:25 +0000";
layers = (
{
anchors = (
{
name = top;
position = "{314, 684}";
}
);
layerId = "1691882E-B915-4755-A5B2-757873D945FF";
paths = (
{
closed = 1;
nodes = (
"268 -64 OFFCURVE",
"413 -65 OFFCURVE",
"564 -19 CURVE SMOOTH",
"721 29 OFFCURVE",
"837 120 OFFCURVE",
"837 195 CURVE SMOOTH",
"837 220 OFFCURVE",
"822 241 OFFCURVE",
"792 257 CURVE SMOOTH",
"777 265 OFFCURVE",
"746 268 OFFCURVE",
"749 256 CURVE SMOOTH",
"752 236 OFFCURVE",
"800 243 OFFCURVE",
"798 215 CURVE SMOOTH",
"796 183 OFFCURVE",
"771 146 OFFCURVE",
"716 103 CURVE SMOOTH",
"620 28 OFFCURVE",
"451 -33 OFFCURVE",
"340 -33 CURVE SMOOTH",
"195 -33 OFFCURVE",
"91 12 OFFCURVE",
"91 140 CURVE SMOOTH",
"91 205 OFFCURVE",
"120 263 OFFCURVE",
"178 312 CURVE SMOOTH",
"227 355 OFFCURVE",
"296 377 OFFCURVE",
"384 376 CURVE SMOOTH",
"491 375 LINE SMOOTH",
"520 375 OFFCURVE",
"534 383 OFFCURVE",
"534 398 CURVE SMOOTH",
"534 415 OFFCURVE",
"508 429 OFFCURVE",
"457 440 CURVE SMOOTH",
"393 455 OFFCURVE",
"321 478 OFFCURVE",
"321 548 CURVE SMOOTH",
"321 597 OFFCURVE",
"346 642 OFFCURVE",
"397 683 CURVE SMOOTH",
"462 736 OFFCURVE",
"607 785 OFFCURVE",
"681 783 CURVE SMOOTH",
"754 781 OFFCURVE",
"809 739 OFFCURVE",
"809 700 CURVE SMOOTH",
"809 636 OFFCURVE",
"739 586 OFFCURVE",
"687 571 CURVE SMOOTH",
"667 565 OFFCURVE",
"656 570 OFFCURVE",
"653 555 CURVE SMOOTH",
"652 551 OFFCURVE",
"656 549 OFFCURVE",
"664 549 CURVE SMOOTH",
"671 549 OFFCURVE",
"681 550 OFFCURVE",
"693 553 CURVE SMOOTH",
"790 574 OFFCURVE",
"869 637 OFFCURVE",
"869 697 CURVE SMOOTH",
"869 783 OFFCURVE",
"762 804 OFFCURVE",
"673 804 CURVE SMOOTH",
"584 804 OFFCURVE",
"450 777 OFFCURVE",
"338 691 CURVE SMOOTH",
"282 648 OFFCURVE",
"247 599 OFFCURVE",
"247 539 CURVE SMOOTH",
"247 490 OFFCURVE",
"300 444 OFFCURVE",
"367 420 CURVE",
"303 417 OFFCURVE",
"216 395 OFFCURVE",
"145 347 CURVE SMOOTH",
"77 301 OFFCURVE",
"18 220 OFFCURVE",
"20 142 CURVE SMOOTH",
"22 70 OFFCURVE",
"76 -4 OFFCURVE",
"176 -35 CURVE SMOOTH"
);
}
);
width = 729;
}
);
note = E;
unicode = 0045;
},
{
glyphname = G;
lastChange = "2020-12-26 21:30:22 +0000";
layers = (
{
layerId = "1691882E-B915-4755-A5B2-757873D945FF";
paths = (
{
closed = 1;
nodes = (
"208 -374 OFFCURVE",
"278 -355 OFFCURVE",
"348 -321 CURVE SMOOTH",
"445 -275 OFFCURVE",
"544 -201 OFFCURVE",
"605 -112 CURVE",
"718 -112 OFFCURVE",
"784 -118 OFFCURVE",
"830 -130 CURVE SMOOTH",
"849 -135 OFFCURVE",
"859 -133 OFFCURVE",
"859 -126 CURVE SMOOTH",
"859 -120 OFFCURVE",
"852 -115 OFFCURVE",
"838 -112 CURVE SMOOTH",
"772 -95 OFFCURVE",
"699 -87 OFFCURVE",
"619 -86 CURVE",
"699 46 OFFCURVE",
"742 140 OFFCURVE",
"755 244 CURVE SMOOTH",
"759 266 OFFCURVE",
"746 292 OFFCURVE",
"722 292 CURVE SMOOTH",
"691 292 OFFCURVE",
"677 252 OFFCURVE",
"636 199 CURVE SMOOTH",
"583 130 OFFCURVE",
"446 60 OFFCURVE",
"364 60 CURVE SMOOTH",
"241 60 OFFCURVE",
"178 130 OFFCURVE",
"178 276 CURVE SMOOTH",
"178 331 OFFCURVE",
"194 393 OFFCURVE",
"226 462 CURVE",
"295 416 OFFCURVE",
"383 393 OFFCURVE",
"491 393 CURVE SMOOTH",
"644 393 OFFCURVE",
"863 473 OFFCURVE",
"863 635 CURVE SMOOTH",
"863 733 OFFCURVE",
"784 797 OFFCURVE",
"671 814 CURVE SMOOTH",
"474 843 OFFCURVE",
"292 717 OFFCURVE",
"180 529 CURVE",
"122 597 OFFCURVE",
"103 687 OFFCURVE",
"173 781 CURVE SMOOTH",
"186 800 OFFCURVE",
"176 806 OFFCURVE",
"160 789 CURVE SMOOTH",
"80 700 OFFCURVE",
"72 593 OFFCURVE",
"164 499 CURVE",
"130 425 OFFCURVE",
"113 356 OFFCURVE",
"113 291 CURVE SMOOTH",
"113 149 OFFCURVE",
"186 23 OFFCURVE",
"342 23 CURVE SMOOTH",
"443 23 OFFCURVE",
"585 91 OFFCURVE",
"674 177 CURVE",
"651 80 OFFCURVE",
"618 -3 OFFCURVE",
"569 -86 CURVE",
"409 -89 OFFCURVE",
"285 -103 OFFCURVE",
"169 -155 CURVE SMOOTH",
"111 -181 OFFCURVE",
"20 -234 OFFCURVE",
"20 -294 CURVE SMOOTH",
"20 -348 OFFCURVE",
"101 -374 OFFCURVE",
"155 -374 CURVE SMOOTH"
);
},
{
closed = 1;
nodes = (
"125 -343 OFFCURVE",
"71 -334 OFFCURVE",
"71 -301 CURVE SMOOTH",
"71 -276 OFFCURVE",
"98 -247 OFFCURVE",
"152 -212 CURVE SMOOTH",
"221 -168 OFFCURVE",
"293 -140 OFFCURVE",
"369 -129 CURVE SMOOTH",
"422 -120 OFFCURVE",
"483 -115 OFFCURVE",
"553 -113 CURVE",
"499 -190 OFFCURVE",
"426 -250 OFFCURVE",
"334 -292 CURVE SMOOTH",
"261 -326 OFFCURVE",
"201 -343 OFFCURVE",
"154 -343 CURVE SMOOTH"
);
},
{
closed = 1;
nodes = (
"426 419 OFFCURVE",
"302 440 OFFCURVE",
"239 488 CURVE",
"313 636 OFFCURVE",
"480 803 OFFCURVE",
"667 783 CURVE SMOOTH",
"741 775 OFFCURVE",
"819 712 OFFCURVE",
"819 651 CURVE SMOOTH",
"819 503 OFFCURVE",
"638 429 OFFCURVE",
"491 422 CURVE SMOOTH"
);
}
);
width = 723;
}
);
note = G;
unicode = 0047;
},
{
glyphname = I;
lastChange = "2020-12-26 21:30:22 +0000";
layers = (
{
anchors = (
{
name = top;
position = "{425, 675}";
}
);
layerId = "1691882E-B915-4755-A5B2-757873D945FF";
paths = (
{
closed = 1;
nodes = (
"351 47 OFFCURVE",
"351 -41 OFFCURVE",
"428 -41 CURVE SMOOTH",
"455 -41 OFFCURVE",
"483 -28 OFFCURVE",
"510 -2 CURVE SMOOTH",
"551 39 OFFCURVE",
"578 77 OFFCURVE",
"627 182 CURVE SMOOTH",
"638 206 OFFCURVE",
"623 212 OFFCURVE",
"612 189 CURVE SMOOTH",
"567 96 OFFCURVE",
"526 36 OFFCURVE",
"488 8 CURVE SMOOTH",
"469 -6 OFFCURVE",
"451 -7 OFFCURVE",
"435 -1 CURVE SMOOTH",
"409 9 OFFCURVE",
"406 39 OFFCURVE",
"414 96 CURVE SMOOTH",
"424 164 OFFCURVE",
"462 263 OFFCURVE",
"503 372 CURVE SMOOTH",
"554 508 OFFCURVE",
"616 639 OFFCURVE",
"659 702 CURVE",
"720 707 OFFCURVE",
"738 714 OFFCURVE",
"754 721 CURVE SMOOTH",
"792 741 OFFCURVE",
"799 788 OFFCURVE",
"755 796 CURVE SMOOTH",
"721 800 OFFCURVE",
"662 778 OFFCURVE",
"622 725 CURVE",
"535 722 OFFCURVE",
"437 710 OFFCURVE",
"345 686 CURVE SMOOTH",
"187 643 OFFCURVE",
"49 562 OFFCURVE",
"22 426 CURVE SMOOTH",
"6 348 OFFCURVE",
"76 292 OFFCURVE",
"124 285 CURVE SMOOTH",
"210 271 OFFCURVE",
"318 334 OFFCURVE",
"331 422 CURVE SMOOTH",
"333 441 OFFCURVE",
"332 459 OFFCURVE",
"325 477 CURVE SMOOTH",
"321 488 OFFCURVE",
"314 489 OFFCURVE",
"306 481 CURVE SMOOTH",
"304 479 OFFCURVE",
"302 474 OFFCURVE",
"303 472 CURVE SMOOTH",
"308 459 OFFCURVE",
"312 447 OFFCURVE",
"308 429 CURVE SMOOTH",
"295 373 OFFCURVE",
"231 296 OFFCURVE",
"145 308 CURVE SMOOTH",
"109 313 OFFCURVE",
"69 356 OFFCURVE",
"79 411 CURVE SMOOTH",
"108 572 OFFCURVE",
"251 632 OFFCURVE",
"363 664 CURVE SMOOTH",
"424 682 OFFCURVE",
"504 692 OFFCURVE",
"602 700 CURVE",
"545 617 OFFCURVE",
"478 455 OFFCURVE",
"446 372 CURVE SMOOTH",
"392 233 OFFCURVE",
"364 140 OFFCURVE",
"359 105 CURVE SMOOTH"
);
},
{
closed = 1;
nodes = (
"695 751 OFFCURVE",
"726 767 OFFCURVE",
"734 766 CURVE SMOOTH",
"741 765 OFFCURVE",
"746 761 OFFCURVE",
"746 753 CURVE SMOOTH",
"745 737 OFFCURVE",
"714 726 OFFCURVE",
"670 724 CURVE"
);
}
);
width = 645;
}
);
note = I;
unicode = 0049;
},
{
glyphname = K;
lastChange = "2020-12-26 21:30:22 +0000";
layers = (
{
components = (
{
name = _part.curvy.left;
transform = "{1, 0, 0, 1, -1372, 0}";
}
);
layerId = "1691882E-B915-4755-A5B2-757873D945FF";
paths = (
{
closed = 1;
nodes = (
"1394 -113 OFFCURVE",
"1425 -81 OFFCURVE",
"1443 -44 CURVE SMOOTH",
"1450 -29 OFFCURVE",
"1451 -22 OFFCURVE",
"1445 -22 CURVE SMOOTH",
"1439 -22 OFFCURVE",
"1434 -27 OFFCURVE",
"1430 -36 CURVE SMOOTH",
"1395 -104 OFFCURVE",
"1308 -141 OFFCURVE",
"1223 -141 CURVE SMOOTH",
"1149 -141 OFFCURVE",
"1089 -89 OFFCURVE",
"1044 15 CURVE SMOOTH",
"1013 86 OFFCURVE",
"987 186 OFFCURVE",
"984 215 CURVE SMOOTH",
"983 227 OFFCURVE",
"982 239 OFFCURVE",
"982 247 CURVE",
"1170 310 OFFCURVE",
"1499 564 OFFCURVE",
"1651 816 CURVE SMOOTH",
"1664 838 OFFCURVE",
"1653 853 OFFCURVE",
"1648 848 CURVE",
"1642 848 OFFCURVE",
"1635 842 OFFCURVE",
"1626 829 CURVE SMOOTH",
"1529 681 OFFCURVE",
"1363 524 OFFCURVE",
"1225 432 CURVE SMOOTH",
"1098 346 OFFCURVE",
"982 280 OFFCURVE",
"929 280 CURVE SMOOTH",
"926 280 LINE",
"904 272 OFFCURVE",
"918 207 OFFCURVE",
"928 152 CURVE SMOOTH",
"953 23 OFFCURVE",
"1003 -72 OFFCURVE",
"1076 -132 CURVE SMOOTH",
"1157 -199 OFFCURVE",
"1243 -202 OFFCURVE",
"1349 -142 CURVE SMOOTH"
);
}
);
width = 1517;
}
);
note = K;
unicode = 004B;
},
{
glyphname = L;
lastChange = "2020-12-26 21:38:42 +0000";
layers = (
{
layerId = "1691882E-B915-4755-A5B2-757873D945FF";
paths = (
{
closed = 1;
nodes = (
"830 -316 OFFCURVE",
"869 -283 OFFCURVE",
"886 -221 CURVE SMOOTH",
"891 -203 OFFCURVE",
"886 -182 OFFCURVE",
"879 -156 CURVE SMOOTH",
"866 -108 OFFCURVE",
"829 -66 OFFCURVE",
"785 -31 CURVE SMOOTH",
"698 38 OFFCURVE",
"589 85 OFFCURVE",
"457 118 CURVE",
"478 152 LINE SMOOTH",
"498 184 OFFCURVE",
"525 242 OFFCURVE",
"566 324 CURVE",
"707 348 OFFCURVE",
"852 451 OFFCURVE",
"928 578 CURVE SMOOTH",
"965 642 OFFCURVE",
"989 711 OFFCURVE",
"983 783 CURVE SMOOTH",
"979 842 OFFCURVE",
"899 864 OFFCURVE",
"833 837 CURVE SMOOTH",
"752 802 OFFCURVE",
"683 710 OFFCURVE",
"623 559 CURVE SMOOTH",
"538 345 LINE",
"486 339 OFFCURVE",
"403 343 OFFCURVE",
"352 392 CURVE SMOOTH",
"316 425 OFFCURVE",
"311 472 OFFCURVE",
"317 513 CURVE SMOOTH",
"326 571 OFFCURVE",
"365 625 OFFCURVE",
"410 654 CURVE SMOOTH",
"435 670 OFFCURVE",
"461 680 OFFCURVE",
"490 683 CURVE",
"514 647 OFFCURVE",
"562 714 OFFCURVE",
"488 700 CURVE SMOOTH",
"375 674 OFFCURVE",
"268 610 OFFCURVE",
"268 504 CURVE SMOOTH",
"268 465 OFFCURVE",
"282 429 OFFCURVE",
"310 398 CURVE SMOOTH",
"353 350 OFFCURVE",
"429 320 OFFCURVE",
"513 320 CURVE SMOOTH",
"524 320 LINE",
"484 238 OFFCURVE",
"449 174 OFFCURVE",
"419 127 CURVE",
"342 142 OFFCURVE",
"191 142 OFFCURVE",
"95 85 CURVE SMOOTH",
"45 56 OFFCURVE",
"20 23 OFFCURVE",
"20 -15 CURVE SMOOTH",
"20 -86 OFFCURVE",
"91 -117 OFFCURVE",
"153 -117 CURVE SMOOTH",
"252 -117 OFFCURVE",
"359 -24 OFFCURVE",
"428 73 CURVE",
"515 58 OFFCURVE",
"682 -4 OFFCURVE",
"767 -73 CURVE SMOOTH",
"829 -123 OFFCURVE",
"851 -137 OFFCURVE",
"851 -185 CURVE SMOOTH",
"851 -212 OFFCURVE",
"821 -274 OFFCURVE",
"825 -294 CURVE SMOOTH"
);
},
{
closed = 1;
nodes = (
"87 -88 OFFCURVE",
"41 -64 OFFCURVE",
"41 -29 CURVE SMOOTH",
"41 26 OFFCURVE",
"125 61 OFFCURVE",
"180 75 CURVE SMOOTH",
"255 96 OFFCURVE",
"326 90 OFFCURVE",
"388 79 CURVE",
"321 -16 OFFCURVE",
"228 -88 OFFCURVE",
"132 -88 CURVE SMOOTH"
);
},
{
closed = 1;
nodes = (
"635 464 OFFCURVE",
"707 613 OFFCURVE",
"783 708 CURVE SMOOTH",
"832 767 OFFCURVE",
"873 797 OFFCURVE",
"907 797 CURVE SMOOTH",
"930 797 OFFCURVE",
"942 784 OFFCURVE",
"942 759 CURVE SMOOTH",
"942 580 OFFCURVE",
"765 392 OFFCURVE",
"580 351 CURVE"
);
}
);
width = 844;
}
);
note = L;
unicode = 004C;
},
{
glyphname = M;
lastChange = "2020-12-27 09:13:46 +0000";
layers = (
{
background = {
paths = (
{
closed = 1;
nodes = (
"1390 -114 OFFCURVE",
"1396 -110 OFFCURVE",
"1396 -102 CURVE SMOOTH",
"1396 -100 OFFCURVE",
"1393 -98 OFFCURVE",
"1367 -98 CURVE SMOOTH",
"1278 -98 OFFCURVE",
"1263 -38 OFFCURVE",
"1263 42 CURVE SMOOTH",
"1263 73 OFFCURVE",
"1274 132 OFFCURVE",
"1304 217 CURVE SMOOTH",
"1362 383 OFFCURVE",
"1456 517 OFFCURVE",
"1456 609 CURVE SMOOTH",
"1456 641 OFFCURVE",
"1445 677 OFFCURVE",
"1403 677 CURVE SMOOTH",
"1368 677 OFFCURVE",
"1310 640 OFFCURVE",
"1237 571 CURVE SMOOTH",
"1135 476 OFFCURVE",
"1024 336 OFFCURVE",
"952 212 CURVE",
"949 214 LINE",
"1014 396 OFFCURVE",
"1044 489 OFFCURVE",
"1057 609 CURVE SMOOTH",
"1062 658 OFFCURVE",
"1034 696 OFFCURVE",
"987 702 CURVE SMOOTH",
"930 710 OFFCURVE",
"870 681 OFFCURVE",
"824 623 CURVE SMOOTH",
"755 536 OFFCURVE",
"709 452 OFFCURVE",
"661 381 CURVE SMOOTH",
"648 362 LINE",
"641 363 LINE",
"648 392 LINE SMOOTH",
"666 465 OFFCURVE",
"701 556 OFFCURVE",
"702 628 CURVE SMOOTH",
"703 751 OFFCURVE",
"648 812 OFFCURVE",
"535 812 CURVE SMOOTH",
"312 812 OFFCURVE",
"20 556 OFFCURVE",
"20 333 CURVE SMOOTH",
"20 201 OFFCURVE",
"108 116 OFFCURVE",
"212 116 CURVE SMOOTH",
"347 116 OFFCURVE",
"466 247 OFFCURVE",
"466 346 CURVE SMOOTH",
"466 402 OFFCURVE",
"442 457 OFFCURVE",
"378 449 CURVE SMOOTH",
"354 446 OFFCURVE",
"345 441 OFFCURVE",
"348 432 CURVE SMOOTH",
"349 429 OFFCURVE",
"360 426 OFFCURVE",
"368 427 CURVE SMOOTH",
"410 433 OFFCURVE",
"433 404 OFFCURVE",
"433 358 CURVE SMOOTH",
"433 265 OFFCURVE",
"330 138 OFFCURVE",
"221 138 CURVE SMOOTH",
"135 138 OFFCURVE",
"74 211 OFFCURVE",
"74 323 CURVE SMOOTH",
"74 508 OFFCURVE",
"343 785 OFFCURVE",
"524 790 CURVE SMOOTH",
"598 792 OFFCURVE",
"646 744 OFFCURVE",
"646 649 CURVE SMOOTH",
"646 569 OFFCURVE",
"612 442 OFFCURVE",
"544 267 CURVE SMOOTH",
"505 167 OFFCURVE",
"463 78 OFFCURVE",
"398 -42 CURVE SMOOTH",
"391 -55 OFFCURVE",
"402 -65 OFFCURVE",
"424 -65 CURVE SMOOTH",
"449 -65 OFFCURVE",
"480 -23 OFFCURVE",
"539 94 CURVE SMOOTH",
"562 139 OFFCURVE",
"584 188 OFFCURVE",
"610 238 CURVE SMOOTH",
"684 377 OFFCURVE",
"773 520 OFFCURVE",
"841 605 CURVE SMOOTH",
"881 654 OFFCURVE",
"929 680 OFFCURVE",
"968 673 CURVE SMOOTH",
"997 668 OFFCURVE",
"1008 643 OFFCURVE",
"1001 601 CURVE SMOOTH",
"986 513 OFFCURVE",
"948 360 OFFCURVE",
"924 291 CURVE SMOOTH",
"871 139 OFFCURVE",
"839 93 OFFCURVE",
"807 31 CURVE SMOOTH",
"782 -16 OFFCURVE",
"786 -34 OFFCURVE",
"820 -34 CURVE SMOOTH",
"844 -34 OFFCURVE",
"865 -16 OFFCURVE",
"881 20 CURVE SMOOTH",
"907 82 OFFCURVE",
"961 173 OFFCURVE",
"1034 277 CURVE SMOOTH",
"1103 379 OFFCURVE",
"1190 490 OFFCURVE",
"1254 557 CURVE SMOOTH",
"1298 603 OFFCURVE",
"1335 628 OFFCURVE",
"1360 628 CURVE SMOOTH",
"1379 628 OFFCURVE",
"1388 617 OFFCURVE",
"1388 595 CURVE SMOOTH",
"1388 537 OFFCURVE",
"1281 322 OFFCURVE",
"1260 272 CURVE SMOOTH",
"1240 224 OFFCURVE",
"1202 119 OFFCURVE",
"1202 48 CURVE SMOOTH",
"1202 -49 OFFCURVE",
"1254 -114 OFFCURVE",
"1360 -114 CURVE SMOOTH"
);
}
);
};
hints = (
{
horizontal = 1;
origin = "{0, 5}";
target = "{0, 130}";
type = Stem;
},
{
horizontal = 1;
origin = "{0, 67}";
target = "{0, 49}";
type = Stem;
},
{
horizontal = 1;
origin = "{0, 17}";
target = "{0, 40}";
type = Stem;
},
{
horizontal = 1;
origin = "{0, 43}";
target = "{0, 73}";
type = Stem;
},
{
horizontal = 1;
origin = "{0, 30}";
target = "{0, 94}";
type = Stem;
},
{
origin = "{0, 46}";
target = "{0, 70}";
type = Stem;
},
{
origin = "{0, 64}";
target = "{0, 52}";
type = Stem;
},
{
origin = "{0, 76}";
target = "{0, 40}";
type = Stem;
},
{
origin = "{0, 97}";
target = "{0, 27}";
type = Stem;
},
{
origin = "{0, 127}";
target = "{0, 8}";
type = Stem;
},
{
origin = "{0, 121}";
target = "{0, 14}";
type = Stem;
}
);
layerId = "1691882E-B915-4755-A5B2-757873D945FF";
paths = (
{
closed = 1;
nodes = (
"1390 -114 OFFCURVE",
"1396 -110 OFFCURVE",
"1396 -102 CURVE SMOOTH",
"1396 -100 OFFCURVE",
"1393 -98 OFFCURVE",
"1367 -98 CURVE SMOOTH",
"1278 -98 OFFCURVE",
"1263 -38 OFFCURVE",
"1263 42 CURVE SMOOTH",
"1263 73 OFFCURVE",
"1274 132 OFFCURVE",
"1304 217 CURVE SMOOTH",
"1362 383 OFFCURVE",
"1456 517 OFFCURVE",
"1456 609 CURVE SMOOTH",
"1456 641 OFFCURVE",
"1445 677 OFFCURVE",
"1403 677 CURVE SMOOTH",
"1368 677 OFFCURVE",
"1310 645 OFFCURVE",
"1237 576 CURVE SMOOTH",
"1139 484 OFFCURVE",
"1032 348 OFFCURVE",
"930 185 CURVE",
"933 169 LINE",
"1015 398 OFFCURVE",
"1044 491 OFFCURVE",
"1057 609 CURVE SMOOTH",
"1062 658 OFFCURVE",
"1034 696 OFFCURVE",
"987 702 CURVE SMOOTH",
"930 710 OFFCURVE",
"865 683 OFFCURVE",
"819 625 CURVE SMOOTH",
"744 530 OFFCURVE",
"690 439 OFFCURVE",
"622 323 CURVE",
"628 316 LINE",
"667 444 OFFCURVE",
"701 548 OFFCURVE",
"702 628 CURVE SMOOTH",
"703 751 OFFCURVE",
"648 812 OFFCURVE",
"535 812 CURVE SMOOTH",
"312 812 OFFCURVE",
"20 556 OFFCURVE",
"20 333 CURVE SMOOTH",
"20 201 OFFCURVE",
"108 116 OFFCURVE",
"212 116 CURVE SMOOTH",
"347 116 OFFCURVE",
"466 247 OFFCURVE",
"466 346 CURVE SMOOTH",
"466 402 OFFCURVE",
"442 457 OFFCURVE",
"378 449 CURVE SMOOTH",
"354 446 OFFCURVE",
"345 441 OFFCURVE",
"348 432 CURVE SMOOTH",
"349 429 OFFCURVE",
"360 426 OFFCURVE",
"368 427 CURVE SMOOTH",
"410 433 OFFCURVE",
"433 404 OFFCURVE",
"433 358 CURVE SMOOTH",
"433 265 OFFCURVE",
"330 138 OFFCURVE",
"221 138 CURVE SMOOTH",
"135 138 OFFCURVE",
"74 211 OFFCURVE",
"74 323 CURVE SMOOTH",
"74 508 OFFCURVE",
"343 785 OFFCURVE",
"524 790 CURVE SMOOTH",
"598 792 OFFCURVE",
"646 744 OFFCURVE",
"646 649 CURVE SMOOTH",
"646 569 OFFCURVE",
"612 442 OFFCURVE",
"544 267 CURVE SMOOTH",
"505 167 OFFCURVE",
"463 78 OFFCURVE",
"398 -42 CURVE SMOOTH",
"391 -55 OFFCURVE",
"402 -65 OFFCURVE",
"424 -65 CURVE SMOOTH",
"449 -65 OFFCURVE",
"477 -22 OFFCURVE",
"539 94 CURVE SMOOTH",
"587 184 OFFCURVE",
"768 513 OFFCURVE",
"841 605 CURVE SMOOTH",
"881 654 OFFCURVE",
"929 680 OFFCURVE",
"968 673 CURVE SMOOTH",
"997 668 OFFCURVE",
"1008 643 OFFCURVE",
"1001 601 CURVE SMOOTH",
"986 513 OFFCURVE",
"948 360 OFFCURVE",
"924 291 CURVE SMOOTH",
"871 139 OFFCURVE",
"839 93 OFFCURVE",
"807 31 CURVE SMOOTH",
"782 -16 OFFCURVE",
"786 -34 OFFCURVE",
"820 -34 CURVE SMOOTH",
"844 -34 OFFCURVE",
"861 -12 OFFCURVE",
"881 20 CURVE SMOOTH",
"929 97 OFFCURVE",
"962 172 OFFCURVE",
"1034 277 CURVE SMOOTH",
"1104 378 OFFCURVE",
"1190 490 OFFCURVE",
"1254 557 CURVE SMOOTH",
"1298 603 OFFCURVE",
"1335 628 OFFCURVE",
"1360 628 CURVE SMOOTH",
"1379 628 OFFCURVE",
"1388 617 OFFCURVE",
"1388 595 CURVE SMOOTH",
"1388 537 OFFCURVE",
"1281 322 OFFCURVE",
"1260 272 CURVE SMOOTH",
"1240 224 OFFCURVE",
"1202 119 OFFCURVE",
"1202 48 CURVE SMOOTH",
"1202 -49 OFFCURVE",
"1254 -114 OFFCURVE",
"1360 -114 CURVE SMOOTH"
);
}
);
width = 1316;
}
);
note = M;
unicode = 004D;
},
{
glyphname = N;
lastChange = "2020-12-27 09:07:34 +0000";
layers = (
{
anchors = (
{
name = top;
position = "{1031, 649}";
}
);
layerId = "1691882E-B915-4755-A5B2-757873D945FF";
paths = (
{
closed = 1;
nodes = (
"1085 -148 OFFCURVE",
"1085 -112 CURVE SMOOTH",
"1085 -79 OFFCURVE",
"1045 -121 OFFCURVE",
"992 -121 CURVE SMOOTH",
"943 -121 OFFCURVE",
"931 -66 OFFCURVE",
"931 -28 CURVE SMOOTH",
"931 71 OFFCURVE",
"998 197 OFFCURVE",
"1083 352 CURVE SMOOTH",
"1167 507 OFFCURVE",
"1212 600 OFFCURVE",
"1212 669 CURVE SMOOTH",
"1212 711 OFFCURVE",
"1195 739 OFFCURVE",
"1167 753 CURVE SMOOTH",
"1129 772 OFFCURVE",
"1070 767 OFFCURVE",
"1006 736 CURVE SMOOTH",
"936 704 OFFCURVE",
"857 635 OFFCURVE",
"769 528 CURVE SMOOTH",
"722 471 OFFCURVE",
"676 411 OFFCURVE",
"637 348 CURVE SMOOTH",
"582 260 LINE",
"588 257 LINE",
"646 390 LINE",
"698 509 OFFCURVE",
"718 571 OFFCURVE",
"718 631 CURVE SMOOTH",
"718 714 OFFCURVE",
"672 778 OFFCURVE",
"593 789 CURVE SMOOTH",
"449 810 OFFCURVE",
"289 737 OFFCURVE",
"160 610 CURVE SMOOTH",
"69 522 OFFCURVE",
"4 390 OFFCURVE",
"24 277 CURVE SMOOTH",
"42 178 OFFCURVE",
"116 122 OFFCURVE",
"196 122 CURVE SMOOTH",
"312 122 OFFCURVE",
"402 184 OFFCURVE",
"453 270 CURVE SMOOTH",
"474 307 OFFCURVE",
"485 339 OFFCURVE",
"485 368 CURVE SMOOTH",
"485 406 OFFCURVE",
"466 448 OFFCURVE",
"412 448 CURVE SMOOTH",
"378 448 OFFCURVE",
"359 443 OFFCURVE",
"352 436 CURVE SMOOTH",
"341 425 OFFCURVE",
"359 427 OFFCURVE",
"380 427 CURVE SMOOTH",
"425 427 OFFCURVE",
"447 406 OFFCURVE",
"447 363 CURVE SMOOTH",
"447 318 OFFCURVE",
"426 273 OFFCURVE",
"385 227 CURVE SMOOTH",
"334 170 OFFCURVE",
"274 141 OFFCURVE",
"205 141 CURVE SMOOTH",
"119 145 OFFCURVE",
"80 212 OFFCURVE",
"80 294 CURVE SMOOTH",
"80 340 OFFCURVE",
"92 390 OFFCURVE",
"117 445 CURVE SMOOTH",
"162 546 OFFCURVE",
"235 627 OFFCURVE",
"336 690 CURVE SMOOTH",
"405 733 OFFCURVE",
"494 772 OFFCURVE",
"579 761 CURVE SMOOTH",
"669 747 OFFCURVE",
"668 637 OFFCURVE",
"650 554 CURVE SMOOTH",
"607 365 OFFCURVE",
"461 53 OFFCURVE",
"397 -42 CURVE",
"396 -45 OFFCURVE",
"396 -47 OFFCURVE",
"397 -49 CURVE SMOOTH",
"398 -60 OFFCURVE",
"407 -65 OFFCURVE",
"424 -65 CURVE SMOOTH",
"452 -65 OFFCURVE",
"471 -55 OFFCURVE",
"480 -36 CURVE SMOOTH",
"521 52 LINE SMOOTH",
"592 205 OFFCURVE",
"656 324 OFFCURVE",
"712 407 CURVE SMOOTH",
"807 548 OFFCURVE",
"906 644 OFFCURVE",
"1011 694 CURVE SMOOTH",
"1043 711 OFFCURVE",
"1099 728 OFFCURVE",
"1124 705 CURVE SMOOTH",
"1136 693 OFFCURVE",
"1137 673 OFFCURVE",
"1133 657 CURVE SMOOTH",
"1106 482 OFFCURVE",
"948 260 OFFCURVE",
"893 96 CURVE SMOOTH",
"881 61 OFFCURVE",
"875 27 OFFCURVE",
"875 -7 CURVE SMOOTH",
"875 -80 OFFCURVE",
"892 -129 OFFCURVE",
"972 -144 CURVE SMOOTH",
"1001 -151 OFFCURVE"
);
}
);
width = 1072;
}
);
note = N;
unicode = 004E;
},
{
glyphname = O;
lastChange = "2020-12-26 21:30:22 +0000";
layers = (
{
anchors = (
{
name = top;
position = "{300, 699}";
}
);
layerId = "1691882E-B915-4755-A5B2-757873D945FF";
paths = (
{
closed = 1;
nodes = (
"357 -63 OFFCURVE",
"459 -11 OFFCURVE",
"552 92 CURVE SMOOTH",
"690 241 OFFCURVE",
"734 417 OFFCURVE",
"694 572 CURVE SMOOTH",
"648 762 OFFCURVE",
"445 806 OFFCURVE",
"250 776 CURVE SMOOTH",
"164 761 OFFCURVE",
"99 721 OFFCURVE",
"56 656 CURVE SMOOTH",
"7 582 OFFCURVE",
"13 511 OFFCURVE",
"45 447 CURVE SMOOTH",
"58 422 OFFCURVE",
"74 430 OFFCURVE",
"69 453 CURVE SMOOTH",
"53 518 OFFCURVE",
"51 590 OFFCURVE",
"90 655 CURVE SMOOTH",
"123 711 OFFCURVE",
"177 744 OFFCURVE",
"254 754 CURVE SMOOTH",
"385 773 OFFCURVE",
"521 739 OFFCURVE",
"600 621 CURVE SMOOTH",
"695 480 OFFCURVE",
"661 285 OFFCURVE",
"552 142 CURVE SMOOTH",
"483 52 OFFCURVE",
"369 -43 OFFCURVE",
"242 -43 CURVE SMOOTH",
"210 -43 OFFCURVE",
"181 -32 OFFCURVE",
"154 -10 CURVE SMOOTH",
"77 55 OFFCURVE",
"81 175 OFFCURVE",
"108 266 CURVE SMOOTH",
"148 406 OFFCURVE",
"229 522 OFFCURVE",
"328 590 CURVE SMOOTH",
"365 615 OFFCURVE",
"399 625 OFFCURVE",
"429 628 CURVE SMOOTH",
"457 631 OFFCURVE",
"463 624 OFFCURVE",
"467 638 CURVE SMOOTH",
"471 653 OFFCURVE",
"422 657 OFFCURVE",
"399 657 CURVE SMOOTH",
"337 657 OFFCURVE",
"272 628 OFFCURVE",
"221 580 CURVE SMOOTH",
"133 499 OFFCURVE",
"75 405 OFFCURVE",
"47 294 CURVE SMOOTH",
"31 231 OFFCURVE",
"25 149 OFFCURVE",
"58 64 CURVE SMOOTH",
"87 -9 OFFCURVE",
"155 -63 OFFCURVE",
"248 -63 CURVE SMOOTH"
);
}
);
width = 568;
}
);
note = O;
unicode = 004F;
},
{
glyphname = P;
lastChange = "2020-12-26 21:30:22 +0000";
layers = (
{
layerId = "1691882E-B915-4755-A5B2-757873D945FF";
paths = (
{
closed = 1;
nodes = (
"278 -39 OFFCURVE",
"361 -4 OFFCURVE",
"436 67 CURVE SMOOTH",
"487 117 OFFCURVE",
"537 178 OFFCURVE",
"586 249 CURVE",
"678 248 OFFCURVE",
"741 256 OFFCURVE",
"810 273 CURVE SMOOTH",
"947 307 OFFCURVE",
"1116 432 OFFCURVE",
"1116 553 CURVE SMOOTH",
"1116 612 OFFCURVE",
"1081 663 OFFCURVE",
"1010 705 CURVE SMOOTH",
"975 726 OFFCURVE",
"937 742 OFFCURVE",
"894 753 CURVE",
"928 787 OFFCURVE",
"973 810 OFFCURVE",
"952 810 CURVE SMOOTH",
"942 810 OFFCURVE",
"901 799 OFFCURVE",
"854 763 CURVE",
"697 796 OFFCURVE",
"483 786 OFFCURVE",
"292 710 CURVE SMOOTH",
"185 666 OFFCURVE",
"88 594 OFFCURVE",
"88 478 CURVE SMOOTH",
"88 394 OFFCURVE",
"151 335 OFFCURVE",
"242 335 CURVE SMOOTH",
"322 335 OFFCURVE",
"401 388 OFFCURVE",
"402 475 CURVE SMOOTH",
"401 495 OFFCURVE",
"391 496 OFFCURVE",
"388 476 CURVE SMOOTH",
"377 405 OFFCURVE",
"300 355 OFFCURVE",
"240 355 CURVE SMOOTH",
"178 355 OFFCURVE",
"138 410 OFFCURVE",
"138 461 CURVE SMOOTH",
"138 581 OFFCURVE",
"273 662 OFFCURVE",
"391 703 CURVE SMOOTH",
"534 752 OFFCURVE",
"694 756 OFFCURVE",
"827 738 CURVE",
"818 729 OFFCURVE",
"807 715 OFFCURVE",
"792 700 CURVE SMOOTH",
"774 682 LINE SMOOTH",
"693 601 OFFCURVE",
"619 463 OFFCURVE",
"570 366 CURVE SMOOTH",
"506 236 OFFCURVE",
"448 146 OFFCURVE",
"397 96 CURVE SMOOTH",
"325 27 OFFCURVE",
"252 -8 OFFCURVE",
"177 -8 CURVE SMOOTH",
"119 -8 OFFCURVE",
"82 22 OFFCURVE",
"82 68 CURVE SMOOTH",
"82 156 OFFCURVE",
"209 98 OFFCURVE",
"244 133 CURVE SMOOTH",
"248 137 OFFCURVE",
"243 142 OFFCURVE",
"232 146 CURVE SMOOTH",
"201 156 OFFCURVE",
"172 161 OFFCURVE",
"144 161 CURVE SMOOTH",
"71 161 OFFCURVE",
"20 112 OFFCURVE",
"20 72 CURVE SMOOTH",
"20 -7 OFFCURVE",
"89 -39 OFFCURVE",
"187 -39 CURVE SMOOTH"
);
},
{
closed = 1;
nodes = (
"627 312 OFFCURVE",
"671 386 OFFCURVE",
"730 492 CURVE SMOOTH",
"789 598 OFFCURVE",
"838 677 OFFCURVE",
"875 729 CURVE",
"993 701 OFFCURVE",
"1052 648 OFFCURVE",
"1052 570 CURVE SMOOTH",
"1052 501 OFFCURVE",
"1009 435 OFFCURVE",
"924 370 CURVE SMOOTH",
"836 305 OFFCURVE",
"711 270 OFFCURVE",
"614 270 CURVE SMOOTH",
"600 270 LINE"
);
}
);
width = 976;
}
);
note = P;
unicode = 0050;
},
{
glyphname = Q;
lastChange = "2020-12-26 21:30:22 +0000";
layers = (
{
components = (
{
name = O;
transform = "{1, 0, 0, 1, 60, 0}";
}
);
layerId = "1691882E-B915-4755-A5B2-757873D945FF";
paths = (
{
closed = 1;
nodes = (
"822 -369 OFFCURVE",
"899 -337 OFFCURVE",
"899 -259 CURVE SMOOTH",
"899 -189 OFFCURVE",
"799 -123 OFFCURVE",
"704 -108 CURVE SMOOTH",
"695 -107 OFFCURVE",
"691 -109 OFFCURVE",
"691 -115 CURVE SMOOTH",
"691 -122 OFFCURVE",
"696 -126 OFFCURVE",
"707 -127 CURVE SMOOTH",
"790 -141 OFFCURVE",
"871 -208 OFFCURVE",
"871 -267 CURVE SMOOTH",
"871 -319 OFFCURVE",
"833 -345 OFFCURVE",
"778 -345 CURVE SMOOTH",
"762 -345 OFFCURVE",
"744 -343 OFFCURVE",
"725 -339 CURVE SMOOTH",
"560 -307 OFFCURVE",
"462 -227 OFFCURVE",
"358 -142 CURVE SMOOTH",
"291 -88 OFFCURVE",
"228 -61 OFFCURVE",
"171 -61 CURVE SMOOTH",
"130 -61 OFFCURVE",
"89 -105 OFFCURVE",
"89 -131 CURVE SMOOTH",
"89 -144 OFFCURVE",
"92 -150 OFFCURVE",
"97 -150 CURVE SMOOTH",
"108 -152 OFFCURVE",
"107 -118 OFFCURVE",
"129 -105 CURVE SMOOTH",
"143 -96 OFFCURVE",
"157 -91 OFFCURVE",
"171 -91 CURVE SMOOTH",
"210 -91 OFFCURVE",
"249 -109 OFFCURVE",
"288 -146 CURVE SMOOTH",
"388 -247 OFFCURVE",
"437 -285 OFFCURVE",
"488 -314 CURVE SMOOTH",
"553 -351 OFFCURVE",
"629 -369 OFFCURVE",
"718 -369 CURVE SMOOTH"
);
}
);
width = 759;
}
);
note = Q;
unicode = 0051;
},
{
glyphname = R;
lastChange = "2020-12-26 21:30:22 +0000";
layers = (
{
layerId = "1691882E-B915-4755-A5B2-757873D945FF";
paths = (
{
closed = 1;
nodes = (
"931 -41 OFFCURVE",
"965 -25 OFFCURVE",
"995 8 CURVE SMOOTH",
"1025 41 OFFCURVE",
"1059 100 OFFCURVE",
"1098 187 CURVE SMOOTH",
"1103 197 OFFCURVE",
"1102 202 OFFCURVE",
"1097 202 CURVE SMOOTH",
"1092 202 OFFCURVE",
"1086 197 OFFCURVE",
"1081 187 CURVE SMOOTH",
"1046 116 OFFCURVE",
"1015 68 OFFCURVE",
"988 41 CURVE SMOOTH",
"961 14 OFFCURVE",
"935 1 OFFCURVE",
"911 1 CURVE SMOOTH",
"876 1 OFFCURVE",
"849 24 OFFCURVE",
"813 79 CURVE SMOOTH",
"760 160 OFFCURVE",
"723 259 OFFCURVE",
"702 377 CURVE",
"808 381 OFFCURVE",
"940 405 OFFCURVE",
"1040 482 CURVE SMOOTH",
"1089 521 OFFCURVE",
"1113 560 OFFCURVE",
"1113 599 CURVE SMOOTH",
"1113 696 OFFCURVE",
"952 746 OFFCURVE",
"864 754 CURVE",
"868 764 OFFCURVE",
"874 787 OFFCURVE",
"863 787 CURVE SMOOTH",
"856 787 OFFCURVE",
"844 778 OFFCURVE",
"827 759 CURVE",
"702 776 OFFCURVE",
"572 772 OFFCURVE",
"446 754 CURVE SMOOTH",
"237 723 OFFCURVE",
"96 607 OFFCURVE",
"96 475 CURVE SMOOTH",
"96 386 OFFCURVE",
"163 328 OFFCURVE",
"242 328 CURVE SMOOTH",
"294 328 OFFCURVE",
"339 347 OFFCURVE",
"376 386 CURVE SMOOTH",
"397 408 OFFCURVE",
"410 435 OFFCURVE",
"415 467 CURVE SMOOTH",
"416 477 OFFCURVE",
"413 482 OFFCURVE",
"408 482 CURVE SMOOTH",
"405 482 OFFCURVE",
"403 478 OFFCURVE",
"402 469 CURVE SMOOTH",
"399 434 OFFCURVE",
"339 355 OFFCURVE",
"256 355 CURVE SMOOTH",
"188 355 OFFCURVE",
"145 406 OFFCURVE",
"145 462 CURVE SMOOTH",
"145 520 OFFCURVE",
"176 575 OFFCURVE",
"238 626 CURVE SMOOTH",
"378 742 OFFCURVE",
"665 747 OFFCURVE",
"805 735 CURVE",
"770 696 OFFCURVE",
"731 641 OFFCURVE",
"688 568 CURVE SMOOTH",
"654 509 OFFCURVE",
"628 460 OFFCURVE",
"547 316 CURVE SMOOTH",
"522 273 OFFCURVE",
"493 226 OFFCURVE",
"458 176 CURVE SMOOTH",
"414 111 OFFCURVE",
"379 78 OFFCURVE",
"331 41 CURVE SMOOTH",
"289 8 OFFCURVE",
"241 -8 OFFCURVE",
"186 -8 CURVE SMOOTH",
"124 -8 OFFCURVE",
"87 25 OFFCURVE",
"87 70 CURVE SMOOTH",
"87 106 OFFCURVE",
"123 147 OFFCURVE",
"167 147 CURVE SMOOTH",
"207 147 OFFCURVE",
"242 123 OFFCURVE",
"248 135 CURVE SMOOTH",
"250 139 OFFCURVE",
"247 143 OFFCURVE",
"238 146 CURVE SMOOTH",
"205 157 OFFCURVE",
"174 163 OFFCURVE",
"145 163 CURVE SMOOTH",
"76 163 OFFCURVE",
"20 118 OFFCURVE",
"20 74 CURVE SMOOTH",
"20 -4 OFFCURVE",
"95 -39 OFFCURVE",
"196 -39 CURVE SMOOTH",
"295 -39 OFFCURVE",
"384 3 OFFCURVE",
"463 88 CURVE SMOOTH",
"541 175 OFFCURVE",
"587 261 OFFCURVE",
"639 365 CURVE",
"658 254 OFFCURVE",
"707 91 OFFCURVE",
"779 16 CURVE SMOOTH",
"815 -22 OFFCURVE",
"853 -41 OFFCURVE",
"892 -41 CURVE SMOOTH"
);
},
{
closed = 1;
nodes = (
"683 448 OFFCURVE",
"717 508 OFFCURVE",
"764 584 CURVE SMOOTH",
"811 660 OFFCURVE",
"840 708 OFFCURVE",
"852 729 CURVE",
"921 718 OFFCURVE",
"1045 684 OFFCURVE",
"1045 614 CURVE SMOOTH",
"1045 579 OFFCURVE",
"1021 542 OFFCURVE",
"980 505 CURVE SMOOTH",
"927 455 OFFCURVE",
"825 409 OFFCURVE",
"660 403 CURVE"
);
}
);
width = 973;
}
);
note = R;
unicode = 0052;
},
{
glyphname = S;
lastChange = "2020-12-26 21:30:22 +0000";
layers = (
{
layerId = "1691882E-B915-4755-A5B2-757873D945FF";
paths = (
{
closed = 1;
nodes = (
"180 -40 OFFCURVE",
"350 -69 CURVE SMOOTH",
"480 -92 OFFCURVE",
"617 -57 OFFCURVE",
"690 -13 CURVE SMOOTH",
"785 44 OFFCURVE",
"893 148 OFFCURVE",
"893 249 CURVE SMOOTH",
"893 296 OFFCURVE",
"868 354 OFFCURVE",
"789 402 CURVE SMOOTH",
"730 438 OFFCURVE",
"597 493 OFFCURVE",
"553 520 CURVE SMOOTH",
"503 551 OFFCURVE",
"478 587 OFFCURVE",
"478 626 CURVE SMOOTH",
"478 655 OFFCURVE",
"495 685 OFFCURVE",
"529 714 CURVE SMOOTH",
"590 766 OFFCURVE",
"698 789 OFFCURVE",
"764 789 CURVE SMOOTH",
"818 789 OFFCURVE",
"860 774 OFFCURVE",
"891 745 CURVE SMOOTH",
"912 724 OFFCURVE",
"924 702 OFFCURVE",
"923 679 CURVE SMOOTH",
"922 658 OFFCURVE",
"913 642 OFFCURVE",
"895 630 CURVE SMOOTH",
"871 613 OFFCURVE",
"835 603 OFFCURVE",
"836 594 CURVE SMOOTH",
"836 588 OFFCURVE",
"844 587 OFFCURVE",
"856 590 CURVE SMOOTH",
"884 598 OFFCURVE",
"906 609 OFFCURVE",
"923 622 CURVE SMOOTH",
"947 643 OFFCURVE",
"959 666 OFFCURVE",
"959 692 CURVE SMOOTH",
"959 761 OFFCURVE",
"861 814 OFFCURVE",
"753 814 CURVE SMOOTH",
"632 814 OFFCURVE",
"539 786 OFFCURVE",
"473 730 CURVE SMOOTH",
"427 691 OFFCURVE",
"404 650 OFFCURVE",
"404 609 CURVE SMOOTH",
"404 562 OFFCURVE",
"430 521 OFFCURVE",
"481 486 CURVE SMOOTH",
"536 450 OFFCURVE",
"700 391 OFFCURVE",
"752 350 CURVE SMOOTH",
"793 315 OFFCURVE",
"813 275 OFFCURVE",
"813 230 CURVE SMOOTH",
"813 144 OFFCURVE",
"745 49 OFFCURVE",
"634 -8 CURVE SMOOTH",
"590 -31 OFFCURVE",
"466 -60 OFFCURVE",
"348 -38 CURVE SMOOTH",
"209 -12 OFFCURVE",
"90 73 OFFCURVE",
"77 158 CURVE SMOOTH",
"63 248 OFFCURVE",
"115 355 OFFCURVE",
"202 424 CURVE SMOOTH",
"229 447 OFFCURVE",
"212 447 OFFCURVE",
"192 439 CURVE SMOOTH",
"96 394 OFFCURVE",
"10 264 OFFCURVE",
"21 173 CURVE SMOOTH",
"34 67 OFFCURVE"
);
}
);
width = 819;
}
);
note = S;
unicode = 0053;
},
{
glyphname = T;
lastChange = "2020-12-26 21:30:22 +0000";
layers = (
{
layerId = "1691882E-B915-4755-A5B2-757873D945FF";
paths = (
{
closed = 1;
nodes = (
"487 -94 OFFCURVE",
"577 -73 OFFCURVE",
"653 -32 CURVE SMOOTH",
"769 32 OFFCURVE",
"842 156 OFFCURVE",
"898 324 CURVE SMOOTH",
"935 448 OFFCURVE",
"978 547 OFFCURVE",
"1025 622 CURVE",
"1095 592 OFFCURVE",
"1179 571 OFFCURVE",
"1277 558 CURVE SMOOTH",
"1323 551 OFFCURVE",
"1390 564 OFFCURVE",
"1390 607 CURVE SMOOTH",
"1390 623 OFFCURVE",
"1387 631 OFFCURVE",
"1380 631 CURVE SMOOTH",
"1373 631 OFFCURVE",
"1369 626 OFFCURVE",
"1369 616 CURVE SMOOTH",
"1369 596 OFFCURVE",
"1348 586 OFFCURVE",
"1307 586 CURVE SMOOTH",
"1266 586 OFFCURVE",
"1165 603 OFFCURVE",
"1040 643 CURVE",
"1052 658 OFFCURVE",
"1083 687 OFFCURVE",
"1092 683 CURVE SMOOTH",
"1097 681 OFFCURVE",
"1102 681 OFFCURVE",
"1105 682 CURVE SMOOTH",
"1119 687 OFFCURVE",
"1115 720 OFFCURVE",
"1085 712 CURVE SMOOTH",
"1070 708 OFFCURVE",
"1045 691 OFFCURVE",
"1012 651 CURVE",
"882 696 OFFCURVE",
"770 740 OFFCURVE",
"633 740 CURVE SMOOTH",
"555 740 OFFCURVE",
"433 717 OFFCURVE",
"365 612 CURVE SMOOTH",
"340 574 OFFCURVE",
"328 535 OFFCURVE",
"328 495 CURVE SMOOTH",
"328 440 OFFCURVE",
"351 364 OFFCURVE",
"439 333 CURVE SMOOTH",
"478 319 OFFCURVE",
"526 316 OFFCURVE",
"581 348 CURVE SMOOTH",
"627 374 OFFCURVE",
"653 413 OFFCURVE",
"660 465 CURVE",
"660 478 OFFCURVE",
"651 482 OFFCURVE",
"640 473 CURVE",
"640 471 LINE SMOOTH",
"645 438 OFFCURVE",
"598 374 OFFCURVE",
"542 359 CURVE SMOOTH",
"508 349 OFFCURVE",
"483 349 OFFCURVE",
"449 358 CURVE SMOOTH",
"347 390 OFFCURVE",
"359 517 OFFCURVE",
"449 603 CURVE SMOOTH",
"508 660 OFFCURVE",
"584 688 OFFCURVE",
"678 688 CURVE SMOOTH",
"772 688 OFFCURVE",
"878 669 OFFCURVE",
"996 632 CURVE",
"987 619 OFFCURVE",
"965 576 OFFCURVE",
"932 503 CURVE SMOOTH",
"835 290 OFFCURVE",
"758 153 OFFCURVE",
"702 92 CURVE SMOOTH",
"613 -5 OFFCURVE",
"500 -55 OFFCURVE",
"362 -58 CURVE SMOOTH",
"357 -58 LINE SMOOTH",
"281 -58 OFFCURVE",
"201 -31 OFFCURVE",
"140 20 CURVE SMOOTH",
"83 65 OFFCURVE",
"54 130 OFFCURVE",
"54 214 CURVE SMOOTH",
"54 251 OFFCURVE",
"63 284 OFFCURVE",
"80 313 CURVE SMOOTH",
"109 363 OFFCURVE",
"135 364 OFFCURVE",
"162 392 CURVE",
"163 403 OFFCURVE",
"158 409 OFFCURVE",
"146 409 CURVE SMOOTH",
"139 409 OFFCURVE",
"128 405 OFFCURVE",
"113 396 CURVE SMOOTH",
"41 353 OFFCURVE",
"20 251 OFFCURVE",
"20 207 CURVE SMOOTH",
"20 184 OFFCURVE",
"21 167 OFFCURVE",
"22 156 CURVE SMOOTH",
"34 71 OFFCURVE",
"76 9 OFFCURVE",
"148 -32 CURVE SMOOTH",
"221 -73 OFFCURVE",
"300 -94 OFFCURVE",
"384 -94 CURVE SMOOTH"
);
}
);
width = 1250;
}
);
note = T;
unicode = 0054;
},
{
glyphname = U;
lastChange = "2020-12-27 09:08:09 +0000";
layers = (
{
anchors = (
{
name = top;
position = "{977, 662}";
}
);
layerId = "1691882E-B915-4755-A5B2-757873D945FF";
paths = (
{
closed = 1;
nodes = (
"933 -85 LINE",
"948 -83 OFFCURVE",
"955 -78 OFFCURVE",
"955 -70 CURVE SMOOTH",
"955 -65 OFFCURVE",
"949 -62 OFFCURVE",
"926 -62 CURVE SMOOTH",
"901 -62 OFFCURVE",
"889 -39 OFFCURVE",
"889 7 CURVE SMOOTH",
"889 30 OFFCURVE",
"891 55 OFFCURVE",
"896 83 CURVE SMOOTH",
"913 186 OFFCURVE",
"950 287 OFFCURVE",
"1005 386 CURVE SMOOTH",
"1022 415 OFFCURVE",
"1030 438 OFFCURVE",
"1030 453 CURVE SMOOTH",
"1030 466 OFFCURVE",
"1025 482 OFFCURVE",
"1010 482 CURVE SMOOTH",
"993 482 OFFCURVE",
"972 465 OFFCURVE",
"954 429 CURVE SMOOTH",
"890 302 LINE SMOOTH",
"833 189 OFFCURVE",
"728 -20 OFFCURVE",
"618 -20 CURVE SMOOTH",
"581 -20 OFFCURVE",
"562 8 OFFCURVE",
"562 64 CURVE SMOOTH",
"562 124 OFFCURVE",
"592 220 OFFCURVE",
"633 306 CURVE SMOOTH",
"653 349 OFFCURVE",
"674 396 OFFCURVE",
"696 448 CURVE SMOOTH",
"734 536 OFFCURVE",
"753 610 OFFCURVE",
"753 669 CURVE SMOOTH",
"753 748 OFFCURVE",
"721 802 OFFCURVE",
"656 830 CURVE SMOOTH",
"552 873 OFFCURVE",
"429 841 OFFCURVE",
"330 786 CURVE SMOOTH",
"169 697 OFFCURVE",
"20 545 OFFCURVE",
"20 363 CURVE SMOOTH",
"20 232 OFFCURVE",
"94 134 OFFCURVE",
"212 134 CURVE SMOOTH",
"318 134 OFFCURVE",
"430 222 OFFCURVE",
"472 332 CURVE SMOOTH",
"483 363 OFFCURVE",
"489 389 OFFCURVE",
"489 412 CURVE SMOOTH",
"489 462 OFFCURVE",
"465 506 OFFCURVE",
"413 506 CURVE SMOOTH",
"377 506 OFFCURVE",
"324 485 OFFCURVE",
"329 474 CURVE SMOOTH",
"334 462 OFFCURVE",
"375 479 OFFCURVE",
"392 479 CURVE SMOOTH",
"437 479 OFFCURVE",
"460 454 OFFCURVE",
"460 404 CURVE SMOOTH",
"460 370 OFFCURVE",
"447 331 OFFCURVE",
"420 287 CURVE SMOOTH",
"371 204 OFFCURVE",
"294 163 OFFCURVE",
"225 163 CURVE SMOOTH",
"110 163 OFFCURVE",
"60 265 OFFCURVE",
"60 366 CURVE SMOOTH",
"60 506 OFFCURVE",
"168 659 OFFCURVE",
"328 753 CURVE SMOOTH",
"430 812 OFFCURVE",
"564 847 OFFCURVE",
"641 810 CURVE SMOOTH",
"677 792 OFFCURVE",
"700 758 OFFCURVE",
"700 702 CURVE SMOOTH",
"700 637 OFFCURVE",
"686 567 OFFCURVE",
"618 416 CURVE SMOOTH",
"583 341 OFFCURVE",
"556 274 OFFCURVE",
"535 215 CURVE SMOOTH",
"492 92 OFFCURVE",
"488 -46 OFFCURVE",
"599 -46 CURVE SMOOTH",
"717 -46 OFFCURVE",
"822 109 OFFCURVE",
"875 201 CURVE",
"870 210 LINE",
"855 158 OFFCURVE",
"849 108 OFFCURVE",
"849 60 CURVE SMOOTH",
"849 33 OFFCURVE",
"846 -11 OFFCURVE",
"870 -50 CURVE SMOOTH",
"882 -69 OFFCURVE",
"899 -81 OFFCURVE",
"921 -85 CURVE"
);
}
);
width = 890;
}
);
note = U;
unicode = 0055;
},
{
glyphname = V;
lastChange = "2020-12-26 21:30:22 +0000";
layers = (
{
layerId = "1691882E-B915-4755-A5B2-757873D945FF";
paths = (
{
closed = 1;
nodes = (
"530 -88 OFFCURVE",
"561 -94 CURVE SMOOTH",
"646 -110 OFFCURVE",
"819 25 OFFCURVE",
"919 149 CURVE SMOOTH",
"990 237 OFFCURVE",
"1080 381 OFFCURVE",
"1080 485 CURVE SMOOTH",
"1080 512 OFFCURVE",
"1074 535 OFFCURVE",
"1061 554 CURVE SMOOTH",
"1038 589 OFFCURVE",
"1013 616 OFFCURVE",
"981 619 CURVE SMOOTH",
"932 616 OFFCURVE",
"948 573 OFFCURVE",
"998 588 CURVE SMOOTH",
"1008 591 OFFCURVE",
"1028 549 OFFCURVE",
"1028 503 CURVE SMOOTH",
"1028 455 OFFCURVE",
"1015 402 OFFCURVE",
"988 345 CURVE SMOOTH",
"947 255 OFFCURVE",
"890 172 OFFCURVE",
"817 97 CURVE SMOOTH",
"714 -10 OFFCURVE",
"641 -64 OFFCURVE",
"600 -64 CURVE SMOOTH",
"579 -64 OFFCURVE",
"569 -49 OFFCURVE",
"569 -18 CURVE SMOOTH",
"569 23 OFFCURVE",
"586 95 OFFCURVE",
"621 200 CURVE SMOOTH",
"644 271 OFFCURVE",
"671 337 OFFCURVE",
"701 398 CURVE SMOOTH",
"749 497 OFFCURVE",
"773 579 OFFCURVE",
"773 646 CURVE SMOOTH",
"773 737 OFFCURVE",
"741 796 OFFCURVE",
"676 824 CURVE SMOOTH",
"639 838 OFFCURVE",
"599 845 OFFCURVE",
"554 845 CURVE SMOOTH",
"509 845 OFFCURVE",
"462 835 OFFCURVE",
"411 816 CURVE SMOOTH",
"209 741 OFFCURVE",
"20 566 OFFCURVE",
"20 365 CURVE SMOOTH",
"20 248 OFFCURVE",
"107 135 OFFCURVE",
"225 135 CURVE SMOOTH",
"313 135 OFFCURVE",
"412 190 OFFCURVE",
"474 272 CURVE SMOOTH",
"526 341 OFFCURVE",
"543 437 OFFCURVE",
"481 485 CURVE SMOOTH",
"442 513 OFFCURVE",
"364 502 OFFCURVE",
"364 473 CURVE SMOOTH",
"364 458 OFFCURVE",
"408 477 OFFCURVE",
"421 477 CURVE SMOOTH",
"446 477 OFFCURVE",
"476 452 OFFCURVE",
"476 392 CURVE SMOOTH",
"476 281 OFFCURVE",
"357 161 OFFCURVE",
"245 161 CURVE SMOOTH",
"137 161 OFFCURVE",
"77 244 OFFCURVE",
"77 342 CURVE SMOOTH",
"77 417 OFFCURVE",
"111 516 OFFCURVE",
"180 601 CURVE SMOOTH",
"268 708 OFFCURVE",
"433 820 OFFCURVE",
"568 820 CURVE SMOOTH",
"639 820 OFFCURVE",
"705 802 OFFCURVE",
"713 732 CURVE SMOOTH",
"718 699 OFFCURVE",
"714 664 OFFCURVE",
"706 628 CURVE SMOOTH",
"691 557 OFFCURVE",
"667 485 OFFCURVE",
"635 410 CURVE SMOOTH",
"552 213 OFFCURVE",
"511 73 OFFCURVE",
"511 -9 CURVE SMOOTH",
"511 -62 OFFCURVE"
);
}
);
width = 940;
}
);
note = V;
unicode = 0056;
},
{
glyphname = W;
lastChange = "2020-12-26 21:30:22 +0000";
layers = (
{
layerId = "1691882E-B915-4755-A5B2-757873D945FF";
paths = (
{
closed = 1;
nodes = (
"582 -124 OFFCURVE",
"611 -111 OFFCURVE",
"646 -85 CURVE SMOOTH",
"679 -60 OFFCURVE",
"711 -29 OFFCURVE",
"742 8 CURVE SMOOTH",
"799 78 OFFCURVE",
"846 143 OFFCURVE",
"882 203 CURVE",
"865 148 OFFCURVE",
"855 68 OFFCURVE",
"868 23 CURVE SMOOTH",
"884 -41 OFFCURVE",
"927 -73 OFFCURVE",
"996 -73 CURVE SMOOTH",
"1129 -73 OFFCURVE",
"1319 60 OFFCURVE",
"1384 225 CURVE SMOOTH",
"1410 296 OFFCURVE",
"1426 368 OFFCURVE",
"1416 436 CURVE SMOOTH",
"1401 532 OFFCURVE",
"1358 593 OFFCURVE",
"1276 609 CURVE SMOOTH",
"1259 612 OFFCURVE",
"1241 614 OFFCURVE",
"1221 613 CURVE SMOOTH",
"1208 613 OFFCURVE",
"1174 600 OFFCURVE",
"1174 588 CURVE SMOOTH",
"1174 584 OFFCURVE",
"1178 582 OFFCURVE",
"1186 582 CURVE SMOOTH",
"1219 582 OFFCURVE",
"1214 590 OFFCURVE",
"1248 590 CURVE SMOOTH",
"1324 590 OFFCURVE",
"1370 535 OFFCURVE",
"1370 427 CURVE SMOOTH",
"1370 373 OFFCURVE",
"1354 308 OFFCURVE",
"1321 231 CURVE SMOOTH",
"1292 163 OFFCURVE",
"1239 98 OFFCURVE",
"1162 37 CURVE SMOOTH",
"1091 -20 OFFCURVE",
"1032 -48 OFFCURVE",
"984 -48 CURVE SMOOTH",
"933 -48 OFFCURVE",
"907 -16 OFFCURVE",
"907 47 CURVE SMOOTH",
"907 88 OFFCURVE",
"914 127 OFFCURVE",
"963 248 CURVE SMOOTH",
"1015 375 LINE SMOOTH",
"1019 386 OFFCURVE",
"1020 398 OFFCURVE",
"1020 411 CURVE SMOOTH",
"1020 424 OFFCURVE",
"1016 433 OFFCURVE",
"1007 438 CURVE SMOOTH",
"984 447 OFFCURVE",
"962 420 OFFCURVE",
"947 400 CURVE SMOOTH",
"928 373 OFFCURVE",
"895 321 OFFCURVE",
"849 242 CURVE SMOOTH",
"757 85 OFFCURVE",
"670 -43 OFFCURVE",
"598 -86 CURVE SMOOTH",
"586 -94 OFFCURVE",
"576 -98 OFFCURVE",
"567 -98 CURVE SMOOTH",
"550 -98 OFFCURVE",
"542 -86 OFFCURVE",
"542 -62 CURVE SMOOTH",
"542 -28 OFFCURVE",
"562 45 OFFCURVE",
"602 157 CURVE SMOOTH",
"630 236 OFFCURVE",
"659 309 OFFCURVE",
"690 378 CURVE SMOOTH",
"735 479 OFFCURVE",
"757 563 OFFCURVE",
"757 628 CURVE SMOOTH",
"757 707 OFFCURVE",
"725 761 OFFCURVE",
"661 789 CURVE SMOOTH",
"577 821 OFFCURVE",
"486 812 OFFCURVE",
"402 780 CURVE SMOOTH",
"217 707 OFFCURVE",
"20 530 OFFCURVE",
"20 324 CURVE SMOOTH",
"20 274 OFFCURVE",
"37 212 OFFCURVE",
"74 169 CURVE SMOOTH",
"113 122 OFFCURVE",
"165 99 OFFCURVE",
"230 99 CURVE SMOOTH",
"286 99 OFFCURVE",
"350 125 OFFCURVE",
"397 167 CURVE SMOOTH",
"459 223 OFFCURVE",
"497 305 OFFCURVE",
"497 365 CURVE SMOOTH",
"497 417 OFFCURVE",
"469 464 OFFCURVE",
"406 464 CURVE SMOOTH",
"371 464 OFFCURVE",
"328 450 OFFCURVE",
"327 441 CURVE SMOOTH",
"325 429 OFFCURVE",
"354 440 OFFCURVE",
"374 440 CURVE SMOOTH",
"423 440 OFFCURVE",
"447 413 OFFCURVE",
"447 358 CURVE SMOOTH",
"447 272 OFFCURVE",
"364 125 OFFCURVE",
"228 125 CURVE SMOOTH",
"181 125 OFFCURVE",
"145 140 OFFCURVE",
"119 170 CURVE SMOOTH",
"91 203 OFFCURVE",
"81 246 OFFCURVE",
"81 276 CURVE SMOOTH",
"81 507 OFFCURVE",
"330 784 OFFCURVE",
"570 784 CURVE SMOOTH",
"641 784 OFFCURVE",
"700 756 OFFCURVE",
"700 671 CURVE SMOOTH",
"700 605 OFFCURVE",
"673 506 OFFCURVE",
"618 374 CURVE SMOOTH",
"531 167 OFFCURVE",
"487 29 OFFCURVE",
"487 -38 CURVE SMOOTH",
"487 -95 OFFCURVE",
"511 -124 OFFCURVE",
"558 -124 CURVE SMOOTH"
);
}
);
width = 1279;
}
);
note = W;
unicode = 0057;
},
{
glyphname = X;
lastChange = "2020-12-26 21:30:22 +0000";
layers = (
{
layerId = "1691882E-B915-4755-A5B2-757873D945FF";
paths = (
{
closed = 1;
nodes = (
"54 -220 OFFCURVE",
"74 -203 OFFCURVE",
"95 -169 CURVE SMOOTH",
"199 -6 OFFCURVE",
"381 170 OFFCURVE",
"640 357 CURVE",
"639 283 OFFCURVE",
"638 212 OFFCURVE",
"638 145 CURVE SMOOTH",
"638 78 OFFCURVE",
"640 35 OFFCURVE",
"644 17 CURVE SMOOTH",
"661 -65 OFFCURVE",
"720 -123 OFFCURVE",
"821 -66 CURVE SMOOTH",
"893 -25 OFFCURVE",
"959 58 OFFCURVE",
"1019 184 CURVE SMOOTH",
"1030 207 OFFCURVE",
"1011 209 OFFCURVE",
"1002 189 CURVE SMOOTH",
"987 154 OFFCURVE",
"969 121 OFFCURVE",
"950 92 CURVE SMOOTH",
"896 10 OFFCURVE",
"844 -31 OFFCURVE",
"794 -31 CURVE SMOOTH",
"758 -31 OFFCURVE",
"732 -3 OFFCURVE",
"717 53 CURVE SMOOTH",
"706 94 OFFCURVE",
"701 172 OFFCURVE",
"701 287 CURVE SMOOTH",
"701 320 OFFCURVE",
"701 356 OFFCURVE",
"702 395 CURVE",
"835 490 OFFCURVE",
"995 597 OFFCURVE",
"1116 684 CURVE SMOOTH",
"1192 738 OFFCURVE",
"1246 785 OFFCURVE",
"1246 804 CURVE SMOOTH",
"1246 813 OFFCURVE",
"1238 817 OFFCURVE",
"1223 817 CURVE SMOOTH",
"1221 817 OFFCURVE",
"1217 816 OFFCURVE",
"1212 814 CURVE SMOOTH",
"1202 809 OFFCURVE",
"1202 807 OFFCURVE",
"1181 789 CURVE SMOOTH",
"1150 759 LINE SMOOTH",
"1062 671 OFFCURVE",
"924 588 OFFCURVE",
"701 433 CURVE",
"701 464 OFFCURVE",
"703 529 OFFCURVE",
"694 630 CURVE SMOOTH",
"691 668 OFFCURVE",
"681 704 OFFCURVE",
"662 738 CURVE SMOOTH",
"645 771 OFFCURVE",
"615 788 OFFCURVE",
"574 788 CURVE SMOOTH",
"495 788 OFFCURVE",
"373 715 OFFCURVE",
"308 661 CURVE SMOOTH",
"275 634 OFFCURVE",
"256 615 OFFCURVE",
"250 606 CURVE SMOOTH",
"239 589 OFFCURVE",
"240 578 OFFCURVE",
"255 574 CURVE SMOOTH",
"260 572 OFFCURVE",
"264 572 OFFCURVE",
"266 574 CURVE",
"277 599 OFFCURVE",
"301 625 OFFCURVE",
"338 653 CURVE SMOOTH",
"410 709 OFFCURVE",
"477 737 OFFCURVE",
"540 737 CURVE SMOOTH",
"591 737 OFFCURVE",
"621 711 OFFCURVE",
"629 658 CURVE SMOOTH",
"636 612 OFFCURVE",
"639 561 OFFCURVE",
"639 505 CURVE SMOOTH",
"639 395 LINE",
"374 206 OFFCURVE",
"174 18 OFFCURVE",
"39 -169 CURVE",
"27 -189 LINE SMOOTH",
"22 -197 OFFCURVE",
"20 -204 OFFCURVE",
"20 -209 CURVE SMOOTH",
"20 -216 OFFCURVE",
"25 -220 OFFCURVE",
"34 -220 CURVE SMOOTH"
);
}
);
width = 1106;
}
);
note = X;
unicode = 0058;
},
{
glyphname = Y;
lastChange = "2020-12-27 05:49:08 +0000";
layers = (
{
anchors = (
{
name = top;
position = "{973, 704}";
}
);
layerId = "1691882E-B915-4755-A5B2-757873D945FF";
paths = (
{
closed = 1;
nodes = (
"446 -437 OFFCURVE",
"684 -329 OFFCURVE",
"801 -154 CURVE",
"939 -150 OFFCURVE",
"1063 -156 OFFCURVE",
"1108 -87 CURVE SMOOTH",
"1126 -55 OFFCURVE",
"1129 -38 OFFCURVE",
"1117 -17 CURVE SMOOTH",
"1115 -14 OFFCURVE",
"1114 -13 OFFCURVE",
"1112 -14 CURVE SMOOTH",
"1109 -15 OFFCURVE",
"1110 -19 OFFCURVE",
"1110 -28 CURVE SMOOTH",
"1110 -62 OFFCURVE",
"1083 -85 OFFCURVE",
"1048 -102 CURVE SMOOTH",
"991 -128 OFFCURVE",
"869 -127 OFFCURVE",
"816 -128 CURVE",
"870 -33 OFFCURVE",
"948 184 OFFCURVE",
"984 338 CURVE SMOOTH",
"1009 446 OFFCURVE",
"1009 483 OFFCURVE",
"985 483 CURVE SMOOTH",
"968 483 OFFCURVE",
"951 469 OFFCURVE",
"945 449 CURVE SMOOTH",
"913 345 OFFCURVE",
"865 241 OFFCURVE",
"802 138 CURVE SMOOTH",
"739 37 OFFCURVE",
"660 -28 OFFCURVE",
"599 -28 CURVE SMOOTH",
"553 -28 OFFCURVE",
"531 15 OFFCURVE",
"544 79 CURVE SMOOTH",
"562 160 OFFCURVE",
"614 274 OFFCURVE",
"700 421 CURVE SMOOTH",
"755 513 OFFCURVE",
"783 597 OFFCURVE",
"783 672 CURVE SMOOTH",
"783 732 OFFCURVE",
"757 790 OFFCURVE",
"686 822 CURVE SMOOTH",
"608 852 OFFCURVE",
"517 848 OFFCURVE",
"424 811 CURVE SMOOTH",
"258 747 OFFCURVE",
"126 632 OFFCURVE",
"57 490 CURVE SMOOTH",
"4 382 OFFCURVE",
"8 276 OFFCURVE",
"68 203 CURVE SMOOTH",
"167 78 OFFCURVE",
"368 132 OFFCURVE",
"465 308 CURVE SMOOTH",
"495 366 OFFCURVE",
"503 412 OFFCURVE",
"488 451 CURVE SMOOTH",
"476 480 OFFCURVE",
"453 495 OFFCURVE",
"418 495 CURVE SMOOTH",
"383 495 OFFCURVE",
"348 485 OFFCURVE",
"349 475 CURVE SMOOTH",
"350 471 OFFCURVE",
"388 476 OFFCURVE",
"396 476 CURVE SMOOTH",
"423 476 OFFCURVE",
"442 466 OFFCURVE",
"452 446 CURVE SMOOTH",
"468 410 OFFCURVE",
"453 346 OFFCURVE",
"414 283 CURVE SMOOTH",
"332 152 OFFCURVE",
"182 118 OFFCURVE",
"109 214 CURVE SMOOTH",
"68 269 OFFCURVE",
"69 361 OFFCURVE",
"112 469 CURVE SMOOTH",
"160 583 OFFCURVE",
"300 708 OFFCURVE",
"436 766 CURVE SMOOTH",
"580 827 OFFCURVE",
"726 833 OFFCURVE",
"726 706 CURVE SMOOTH",
"726 665 OFFCURVE",
"715 617 OFFCURVE",
"694 560 CURVE SMOOTH",
"675 508 OFFCURVE",
"651 458 OFFCURVE",
"620 408 CURVE SMOOTH",
"521 247 OFFCURVE",
"472 131 OFFCURVE",
"472 58 CURVE SMOOTH",
"472 -11 OFFCURVE",
"515 -54 OFFCURVE",
"588 -54 CURVE SMOOTH",
"693 -54 OFFCURVE",
"806 60 OFFCURVE",
"899 246 CURVE SMOOTH",
"905 258 LINE",
"902 246 LINE SMOOTH",
"873 130 OFFCURVE",
"822 -6 OFFCURVE",
"768 -129 CURVE",
"581 -129 OFFCURVE",
"437 -150 OFFCURVE",
"336 -193 CURVE SMOOTH",
"255 -226 OFFCURVE",
"215 -265 OFFCURVE",
"215 -309 CURVE SMOOTH",
"215 -343 OFFCURVE",
"240 -368 OFFCURVE",
"290 -385 CURVE SMOOTH"
);
},
{
closed = 1;
nodes = (
"269 -295 OFFCURVE",
"288 -263 OFFCURVE",
"352 -235 CURVE SMOOTH",
"475 -181 OFFCURVE",
"609 -154 OFFCURVE",
"754 -154 CURVE",
"703 -238 OFFCURVE",
"615 -308 OFFCURVE",
"514 -344 CURVE SMOOTH",
"426 -376 OFFCURVE",
"269 -392 OFFCURVE",
"269 -319 CURVE SMOOTH"
);
}
);
width = 984;
}
);
note = Y;
unicode = 0059;
},
{
glyphname = Z;
lastChange = "2020-12-26 21:30:22 +0000";
layers = (
{
layerId = "1691882E-B915-4755-A5B2-757873D945FF";
paths = (
{
closed = 1;
nodes = (
"815 -158 OFFCURVE",
"854 -153 OFFCURVE",
"889 -140 CURVE SMOOTH",
"967 -111 OFFCURVE",
"998 -50 OFFCURVE",
"1007 -17 CURVE SMOOTH",
"1009 -7 OFFCURVE",
"1013 28 OFFCURVE",
"999 28 CURVE SMOOTH",
"978 28 OFFCURVE",
"983 -34 OFFCURVE",
"946 -63 CURVE SMOOTH",
"924 -80 OFFCURVE",
"899 -90 OFFCURVE",
"871 -95 CURVE SMOOTH",
"817 -103 OFFCURVE",
"760 -104 OFFCURVE",
"707 -94 CURVE SMOOTH",
"636 -80 OFFCURVE",
"509 -33 OFFCURVE",
"326 46 CURVE",
"414 119 LINE SMOOTH",
"541 224 OFFCURVE",
"614 311 OFFCURVE",
"717 448 CURVE SMOOTH",
"802 560 OFFCURVE",
"860 631 OFFCURVE",
"893 661 CURVE",
"934 651 OFFCURVE",
"969 646 OFFCURVE",
"996 646 CURVE SMOOTH",
"1063 646 OFFCURVE",
"1085 689 OFFCURVE",
"1085 716 CURVE SMOOTH",
"1085 733 OFFCURVE",
"1075 746 OFFCURVE",
"1056 754 CURVE SMOOTH",
"1003 779 OFFCURVE",
"922 721 OFFCURVE",
"876 685 CURVE",
"729 731 LINE",
"691 742 OFFCURVE",
"608 766 OFFCURVE",
"532 766 CURVE SMOOTH",
"454 766 OFFCURVE",
"357 744 OFFCURVE",
"315 693 CURVE SMOOTH",
"292 665 OFFCURVE",
"280 635 OFFCURVE",
"280 604 CURVE SMOOTH",
"280 577 OFFCURVE",
"290 551 OFFCURVE",
"310 528 CURVE SMOOTH",
"342 492 OFFCURVE",
"402 491 OFFCURVE",
"359 521 CURVE SMOOTH",
"329 542 OFFCURVE",
"314 564 OFFCURVE",
"314 588 CURVE SMOOTH",
"314 611 OFFCURVE",
"328 635 OFFCURVE",
"357 658 CURVE SMOOTH",
"419 706 OFFCURVE",
"503 711 OFFCURVE",
"577 711 CURVE SMOOTH",
"664 711 OFFCURVE",
"758 697 OFFCURVE",
"857 670 CURVE",
"782 609 OFFCURVE",
"711 539 OFFCURVE",
"644 460 CURVE SMOOTH",
"592 397 OFFCURVE",
"479 264 OFFCURVE",
"306 61 CURVE",
"251 96 OFFCURVE",
"179 140 OFFCURVE",
"114 140 CURVE SMOOTH",
"46 140 OFFCURVE",
"6 86 OFFCURVE",
"25 29 CURVE SMOOTH",
"36 -6 OFFCURVE",
"61 -28 OFFCURVE",
"101 -37 CURVE SMOOTH",
"166 -52 OFFCURVE",
"245 -8 OFFCURVE",
"301 32 CURVE",
"386 -16 LINE SMOOTH",
"499 -80 OFFCURVE",
"683 -158 OFFCURVE",
"771 -158 CURVE SMOOTH"
);
},
{
closed = 1;
nodes = (
"95 -8 OFFCURVE",
"65 21 OFFCURVE",
"65 47 CURVE SMOOTH",
"65 83 OFFCURVE",
"93 105 OFFCURVE",
"137 105 CURVE SMOOTH",
"190 105 OFFCURVE",
"244 77 OFFCURVE",
"287 42 CURVE",
"258 17 OFFCURVE",
"201 -8 OFFCURVE",
"153 -8 CURVE SMOOTH"
);
},
{
closed = 1;
nodes = (
"973 660 OFFCURVE",
"945 665 OFFCURVE",
"908 676 CURVE",
"959 719 OFFCURVE",
"999 741 OFFCURVE",
"1026 741 CURVE SMOOTH",
"1049 741 OFFCURVE",
"1056 721 OFFCURVE",
"1056 710 CURVE SMOOTH",
"1056 671 OFFCURVE",
"1033 660 OFFCURVE",
"993 660 CURVE SMOOTH"
);
}
);
width = 945;
}
);
note = Z;
unicode = 005A;
},
{
glyphname = bracketleft;
lastChange = "2020-12-26 13:32:36 +0000";
layers = (
{
layerId = "1691882E-B915-4755-A5B2-757873D945FF";
paths = (
{
closed = 1;
nodes = (
"418 -2 OFFCURVE",
"437 6 OFFCURVE",
"440 25 CURVE SMOOTH",
"441 29 OFFCURVE",
"432 45 OFFCURVE",
"419 44 CURVE SMOOTH",
"333 39 LINE SMOOTH",
"279 36 OFFCURVE",
"252 56 OFFCURVE",
"252 92 CURVE SMOOTH",
"252 181 OFFCURVE",
"372 433 OFFCURVE",
"504 629 CURVE SMOOTH",
"570 728 OFFCURVE",
"622 786 OFFCURVE",
"660 805 CURVE SMOOTH",
"667 809 OFFCURVE",
"687 814 OFFCURVE",
"717 812 CURVE SMOOTH",
"806 807 LINE",
"818 807 LINE SMOOTH",
"830 807 OFFCURVE",
"835 814 OFFCURVE",
"835 829 CURVE SMOOTH",
"835 857 OFFCURVE",
"799 872 OFFCURVE",
"727 872 CURVE SMOOTH",
"703 872 LINE SMOOTH",
"657 872 OFFCURVE",
"619 858 OFFCURVE",
"590 831 CURVE SMOOTH",
"578 820 OFFCURVE",
"562 803 OFFCURVE",
"543 781 CURVE SMOOTH",
"387 600 OFFCURVE",
"182 228 OFFCURVE",
"182 44 CURVE SMOOTH",
"182 8 OFFCURVE",
"230 -11 OFFCURVE",
"326 -11 CURVE"
);
}
);
width = 635;
}
);
note = bracketleft;
unicode = 005B;
},
{
glyphname = backslash;
lastChange = "2020-12-26 00:21:56 +0000";
layers = (
{
layerId = "1691882E-B915-4755-A5B2-757873D945FF";
paths = (
{
closed = 1;
nodes = (
"1233 -146 LINE",
"1232 -142 OFFCURVE",
"1228 -136 OFFCURVE",
"1222 -128 CURVE",
"1130 -33 OFFCURVE",
"1044 69 OFFCURVE",
"964 179 CURVE SMOOTH",
"840 351 LINE SMOOTH",
"786 424 OFFCURVE",
"747 478 OFFCURVE",
"722 511 CURVE SMOOTH",
"556 732 OFFCURVE",
"420 843 OFFCURVE",
"312 843 CURVE SMOOTH",
"264 843 OFFCURVE",
"236 829 OFFCURVE",
"226 800 CURVE",
"235 791 LINE",
"238 792 OFFCURVE",
"245 795 OFFCURVE",
"257 800 CURVE SMOOTH",
"269 806 OFFCURVE",
"279 808 OFFCURVE",
"285 808 CURVE SMOOTH",
"365 808 OFFCURVE",
"505 669 OFFCURVE",
"648 488 CURVE SMOOTH",
"719 398 OFFCURVE",
"789 307 OFFCURVE",
"860 215 CURVE SMOOTH",
"1032 -9 OFFCURVE",
"1153 -132 OFFCURVE",
"1224 -153 CURVE"
);
}
);
width = 1157;
}
);
note = backslash;
unicode = 005C;
},
{
glyphname = bracketright;
lastChange = "2020-12-26 13:31:42 +0000";
layers = (
{
layerId = "1691882E-B915-4755-A5B2-757873D945FF";
paths = (
{
closed = 1;
nodes = (
"121 -6 OFFCURVE",
"186 11 OFFCURVE",
"219 45 CURVE SMOOTH",
"384 211 OFFCURVE",
"547 585 OFFCURVE",
"547 814 CURVE SMOOTH",
"547 859 OFFCURVE",
"523 869 OFFCURVE",
"471 869 CURVE SMOOTH",
"365 869 OFFCURVE",
"307 850 OFFCURVE",
"296 811 CURVE",
"300 808 LINE",
"433 813 LINE SMOOTH",
"451 813 OFFCURVE",
"464 811 OFFCURVE",
"473 808 CURVE",
"475 796 OFFCURVE",
"476 784 OFFCURVE",
"476 772 CURVE SMOOTH",
"476 604 OFFCURVE",
"314 240 OFFCURVE",
"191 103 CURVE SMOOTH",
"149 55 OFFCURVE",
"78 41 OFFCURVE",
"30 41 CURVE SMOOTH",
"8 43 LINE SMOOTH",
"-51 43 OFFCURVE",
"-84 27 OFFCURVE",
"-90 -5 CURVE",
"-76 -11 OFFCURVE",
"-20 -12 OFFCURVE",
"80 -9 CURVE SMOOTH"
);
}
);
width = 502;
}
);
note = bracketright;
unicode = 005D;
},
{
glyphname = asciicircum;
lastChange = "2020-12-26 00:14:48 +0000";
layers = (
{
layerId = "1691882E-B915-4755-A5B2-757873D945FF";
paths = (
{
closed = 1;
nodes = (
"425 449 OFFCURVE",
"431 452 OFFCURVE",
"431 460 CURVE",
"426 469 LINE",
"371 515 OFFCURVE",
"326 560 OFFCURVE",
"294 606 CURVE",
"287 610 LINE",
"259 606 OFFCURVE",
"93 483 OFFCURVE",
"90 462 CURVE",
"97 454 LINE",
"111 456 OFFCURVE",
"165 491 OFFCURVE",
"260 560 CURVE",
"287 522 OFFCURVE",
"384 449 OFFCURVE",
"411 449 CURVE SMOOTH"
);
}
);
width = 370;
}
);
note = asciicircum;
unicode = 005E;
},
{
glyphname = underscore;
lastChange = "2020-12-26 20:32:37 +0000";
layers = (
{
layerId = "1691882E-B915-4755-A5B2-757873D945FF";
paths = (
{
closed = 1;
nodes = (
"429 5 LINE SMOOTH",
"744 12 OFFCURVE",
"1015 16 OFFCURVE",
"1239 16 CURVE",
"1249 25 LINE",
"1247 46 OFFCURVE",
"1230 65 OFFCURVE",
"1209 65 CURVE SMOOTH",
"152 65 LINE SMOOTH",
"136 65 OFFCURVE",
"128 57 OFFCURVE",
"128 39 CURVE SMOOTH",
"128 21 OFFCURVE",
"137 -3 OFFCURVE",
"152 -3 CURVE SMOOTH"
);
}
);
width = 1234;
}
);
note = underscore;
unicode = 005F;
},
{
glyphname = grave;
lastChange = "2020-12-24 21:50:09 +0000";
layers = (
{
anchors = (
{
name = _top;
position = "{101, 512}";
}
);
layerId = "1691882E-B915-4755-A5B2-757873D945FF";
paths = (
{
closed = 1;
nodes = (
"234 592 OFFCURVE",
"252 593 OFFCURVE",
"220 615 CURVE SMOOTH",
"53 728 OFFCURVE",
"26 753 OFFCURVE",
"-3 753 CURVE SMOOTH",
"-46 751 OFFCURVE",
"-64 754 OFFCURVE",
"-50 727 CURVE SMOOTH",
"-40 703 OFFCURVE",
"207 593 OFFCURVE",
"229 593 CURVE SMOOTH"
);
}
);
width = 211;
}
);
note = grave;
unicode = 0060;
},
{
glyphname = a;
lastChange = "2020-12-26 03:32:13 +0000";
layers = (
{
anchors = (
{
name = top;
position = "{399, 511}";
}
);
layerId = "1691882E-B915-4755-A5B2-757873D945FF";
paths = (
{
closed = 1;
nodes = (
"256 -12 OFFCURVE",
"325 53 OFFCURVE",
"405 182 CURVE",
"393 136 OFFCURVE",
"379 71 OFFCURVE",
"404 30 CURVE SMOOTH",
"422 2 OFFCURVE",
"445 -12 OFFCURVE",
"474 -12 CURVE SMOOTH",
"537 -12 OFFCURVE",
"615 81 OFFCURVE",
"707 267 CURVE SMOOTH",
"721 300 OFFCURVE",
"697 305 OFFCURVE",
"686 279 CURVE SMOOTH",
"646 197 OFFCURVE",
"605 131 OFFCURVE",
"564 80 CURVE SMOOTH",
"536 45 OFFCURVE",
"513 27 OFFCURVE",
"494 27 CURVE SMOOTH",
"447 27 OFFCURVE",
"431 67 OFFCURVE",
"441 122 CURVE SMOOTH",
"456 212 OFFCURVE",
"531 342 OFFCURVE",
"587 398 CURVE",
"565 392 OFFCURVE",
"572 404 OFFCURVE",
"549 404 CURVE SMOOTH",
"509 404 OFFCURVE",
"490 382 OFFCURVE",
"452 308 CURVE SMOOTH",
"355 124 OFFCURVE",
"276 32 OFFCURVE",
"216 32 CURVE SMOOTH",
"191 32 OFFCURVE",
"160 51 OFFCURVE",
"160 90 CURVE SMOOTH",
"160 216 OFFCURVE",
"241 335 OFFCURVE",
"288 387 CURVE SMOOTH",
"351 455 OFFCURVE",
"413 489 OFFCURVE",
"497 489 CURVE SMOOTH",
"534 489 OFFCURVE",
"540 470 OFFCURVE",
"569 445 CURVE SMOOTH",
"587 429 OFFCURVE",
"605 457 OFFCURVE",
"585 479 CURVE SMOOTH",
"553 511 OFFCURVE",
"514 527 OFFCURVE",
"468 527 CURVE SMOOTH",
"417 527 OFFCURVE",
"314 499 OFFCURVE",
"237 410 CURVE SMOOTH",
"152 309 OFFCURVE",
"110 209 OFFCURVE",
"110 111 CURVE SMOOTH",
"110 37 OFFCURVE",
"148 -12 OFFCURVE",
"198 -12 CURVE SMOOTH"
);
}
);
width = 530;
}
);
note = a;
unicode = 0061;
},
{
glyphname = b;
lastChange = "2020-12-24 21:35:57 +0000";
layers = (
{
layerId = "1691882E-B915-4755-A5B2-757873D945FF";
paths = (
{
closed = 1;
nodes = (
"377 -18 OFFCURVE",
"450 123 OFFCURVE",
"486 199 CURVE SMOOTH",
"515 263 OFFCURVE",
"536 335 OFFCURVE",
"534 393 CURVE SMOOTH",
"532 453 OFFCURVE",
"505 499 OFFCURVE",
"438 509 CURVE SMOOTH",
"380 521 OFFCURVE",
"365 482 OFFCURVE",
"417 479 CURVE SMOOTH",
"526 473 OFFCURVE",
"501 331 OFFCURVE",
"432 207 CURVE SMOOTH",
"378 108 OFFCURVE",
"297 21 OFFCURVE",
"233 21 CURVE SMOOTH",
"197 21 OFFCURVE",
"156 58 OFFCURVE",
"156 111 CURVE SMOOTH",
"156 193 OFFCURVE",
"203 297 OFFCURVE",
"265 432 CURVE SMOOTH",
"301 510 OFFCURVE",
"341 597 OFFCURVE",
"399 696 CURVE SMOOTH",
"427 744 OFFCURVE",
"452 800 OFFCURVE",
"482 829 CURVE",
"451 819 OFFCURVE",
"435 829 OFFCURVE",
"420 820 CURVE SMOOTH",
"399 808 OFFCURVE",
"391 785 OFFCURVE",
"374 755 CURVE SMOOTH",
"333 682 OFFCURVE",
"272 573 OFFCURVE",
"211 438 CURVE SMOOTH",
"107 210 OFFCURVE",
"101 140 OFFCURVE",
"101 98 CURVE SMOOTH",
"101 27 OFFCURVE",
"151 -18 OFFCURVE",
"225 -18 CURVE SMOOTH"
);
}
);
width = 434;
}
);
note = b;
unicode = 0062;
},
{
glyphname = c;
lastChange = "2020-12-26 02:23:24 +0000";
layers = (
{
layerId = "1691882E-B915-4755-A5B2-757873D945FF";
paths = (
{
closed = 1;
nodes = (
"326 -13 OFFCURVE",
"387 15 OFFCURVE",
"432 71 CURVE SMOOTH",
"490 142 OFFCURVE",
"551 251 OFFCURVE",
"551 285 CURVE SMOOTH",
"551 295 OFFCURVE",
"539 305 OFFCURVE",
"525 278 CURVE SMOOTH",
"483 194 OFFCURVE",
"469 168 OFFCURVE",
"423 105 CURVE SMOOTH",
"376 42 OFFCURVE",
"325 14 OFFCURVE",
"264 14 CURVE SMOOTH",
"202 14 OFFCURVE",
"144 62 OFFCURVE",
"144 133 CURVE SMOOTH",
"144 204 OFFCURVE",
"189 305 OFFCURVE",
"227 359 CURVE SMOOTH",
"287 445 OFFCURVE",
"349 488 OFFCURVE",
"417 488 CURVE SMOOTH",
"453 488 OFFCURVE",
"456 463 OFFCURVE",
"453 435 CURVE SMOOTH",
"450 406 OFFCURVE",
"436 380 OFFCURVE",
"401 338 CURVE",
"408 331 OFFCURVE",
"416 328 OFFCURVE",
"426 328 CURVE SMOOTH",
"435 328 OFFCURVE",
"447 334 OFFCURVE",
"461 347 CURVE SMOOTH",
"489 371 OFFCURVE",
"503 402 OFFCURVE",
"503 436 CURVE SMOOTH",
"503 482 OFFCURVE",
"472 521 OFFCURVE",
"398 521 CURVE SMOOTH",
"322 521 OFFCURVE",
"255 482 OFFCURVE",
"197 403 CURVE SMOOTH",
"141 326 OFFCURVE",
"90 212 OFFCURVE",
"90 124 CURVE SMOOTH",
"90 52 OFFCURVE",
"136 -13 OFFCURVE",
"248 -13 CURVE SMOOTH"
);
}
);
width = 371;
}
);
note = c;
unicode = 0063;
},
{
glyphname = d;
lastChange = "2020-12-26 03:55:20 +0000";
layers = (
{
layerId = "1691882E-B915-4755-A5B2-757873D945FF";
paths = (
{
closed = 1;
nodes = (
"256 -12 OFFCURVE",
"325 53 OFFCURVE",
"405 182 CURVE",
"393 136 OFFCURVE",
"379 71 OFFCURVE",
"404 30 CURVE SMOOTH",
"422 2 OFFCURVE",
"445 -12 OFFCURVE",
"474 -12 CURVE SMOOTH",
"537 -12 OFFCURVE",
"615 81 OFFCURVE",
"707 267 CURVE",
"721 300 OFFCURVE",
"697 305 OFFCURVE",
"686 279 CURVE SMOOTH",
"646 197 OFFCURVE",
"605 131 OFFCURVE",
"564 80 CURVE SMOOTH",
"536 45 OFFCURVE",
"513 27 OFFCURVE",
"494 27 CURVE SMOOTH",
"454 27 OFFCURVE",
"430 72 OFFCURVE",
"443 133 CURVE SMOOTH",
"451 174 OFFCURVE",
"499 257 OFFCURVE",
"532 322 CURVE SMOOTH",
"613 481 OFFCURVE",
"642 536 OFFCURVE",
"727 696 CURVE SMOOTH",
"753 744 OFFCURVE",
"783 800 OFFCURVE",
"813 829 CURVE",
"782 819 OFFCURVE",
"759 831 OFFCURVE",
"745 820 CURVE SMOOTH",
"715 796 OFFCURVE",
"604 573 OFFCURVE",
"566 497 CURVE",
"464 570 OFFCURVE",
"314 495 OFFCURVE",
"233 402 CURVE SMOOTH",
"148 301 OFFCURVE",
"110 209 OFFCURVE",
"110 111 CURVE SMOOTH",
"110 37 OFFCURVE",
"148 -12 OFFCURVE",
"198 -12 CURVE SMOOTH"
);
},
{
closed = 1;
nodes = (
"168 32 OFFCURVE",
"153 68 OFFCURVE",
"158 118 CURVE SMOOTH",
"167 204 OFFCURVE",
"222 310 OFFCURVE",
"293 387 CURVE SMOOTH",
"373 474 OFFCURVE",
"473 525 OFFCURVE",
"550 472 CURVE",
"535 445 OFFCURVE",
"481 355 OFFCURVE",
"452 308 CURVE SMOOTH",
"347 138 OFFCURVE",
"276 32 OFFCURVE",
"216 32 CURVE SMOOTH"
);
}
);
width = 552;
}
);
leftMetricsKey = a;
note = d;
unicode = 0064;
},
{
glyphname = e;
lastChange = "2020-12-26 06:21:28 +0000";
layers = (
{
anchors = (
{
name = top;
position = "{335, 512}";
}
);
layerId = "1691882E-B915-4755-A5B2-757873D945FF";
paths = (
{
closed = 1;
nodes = (
"326 -13 OFFCURVE",
"387 15 OFFCURVE",
"432 71 CURVE SMOOTH",
"490 142 OFFCURVE",
"551 251 OFFCURVE",
"551 285 CURVE SMOOTH",
"551 295 OFFCURVE",
"539 305 OFFCURVE",
"525 278 CURVE SMOOTH",
"483 194 OFFCURVE",
"469 168 OFFCURVE",
"423 105 CURVE SMOOTH",
"376 42 OFFCURVE",
"325 14 OFFCURVE",
"264 14 CURVE SMOOTH",
"202 14 OFFCURVE",
"144 62 OFFCURVE",
"144 133 CURVE SMOOTH",
"144 154.313 OFFCURVE",
"148.055 178.33 OFFCURVE",
"154.759 202.967 CURVE",
"177 203 OFFCURVE",
"441 331 OFFCURVE",
"461 347 CURVE SMOOTH",
"492 371 OFFCURVE",
"503 402 OFFCURVE",
"503 436 CURVE SMOOTH",
"503 482 OFFCURVE",
"472 521 OFFCURVE",
"398 521 CURVE SMOOTH",
"322 521 OFFCURVE",
"255 482 OFFCURVE",
"197 403 CURVE SMOOTH",
"141 326 OFFCURVE",
"90 212 OFFCURVE",
"90 124 CURVE SMOOTH",
"90 52 OFFCURVE",
"136 -13 OFFCURVE",
"248 -13 CURVE SMOOTH"
);
},
{
closed = 1;
nodes = (
"181.511 282.372 OFFCURVE",
"205.388 328.288 OFFCURVE",
"227 359 CURVE SMOOTH",
"287 445 OFFCURVE",
"349 488 OFFCURVE",
"417 488 CURVE SMOOTH",
"453 488 OFFCURVE",
"463 463 OFFCURVE",
"463 435 CURVE SMOOTH",
"462 372 OFFCURVE",
"437 359 OFFCURVE",
"391 335 CURVE SMOOTH",
"332 305 OFFCURVE",
"263 279 OFFCURVE",
"164.936 235.419 CURVE"
);
}
);
width = 384;
}
);
note = e;
unicode = 0065;
},
{
glyphname = f;
lastChange = "2020-12-26 07:09:45 +0000";
layers = (
{
layerId = "1691882E-B915-4755-A5B2-757873D945FF";
paths = (
{
closed = 1;
nodes = (
"211 -338 OFFCURVE",
"244 -299 OFFCURVE",
"251 -184 CURVE SMOOTH",
"256 -94 OFFCURVE",
"234 110 OFFCURVE",
"212 190 CURVE",
"204.689 196.702 LINE",
"223.594 208.745 OFFCURVE",
"251 229 OFFCURVE",
"274 228 CURVE SMOOTH",
"408 223 LINE SMOOTH",
"439 222 OFFCURVE",
"495 225 OFFCURVE",
"495 247 CURVE SMOOTH",
"495 269 OFFCURVE",
"432 255 OFFCURVE",
"405 256 CURVE SMOOTH",
"288 262 LINE SMOOTH",
"252 264 OFFCURVE",
"223.681 248.578 OFFCURVE",
"205.566 231.484 CURVE",
"225.682 284.4 OFFCURVE",
"247.805 343.523 OFFCURVE",
"275 410 CURVE SMOOTH",
"309 493 OFFCURVE",
"348 588 OFFCURVE",
"393 696 CURVE SMOOTH",
"414 745 OFFCURVE",
"445 800 OFFCURVE",
"475 829 CURVE",
"444 819 OFFCURVE",
"426 829 OFFCURVE",
"411 820 CURVE SMOOTH",
"390 808 OFFCURVE",
"382 785 OFFCURVE",
"365 755 CURVE SMOOTH",
"359 745 OFFCURVE",
"351 727 OFFCURVE",
"341 704 CURVE SMOOTH",
"311 637 OFFCURVE",
"265 523 OFFCURVE",
"220 410 CURVE SMOOTH",
"148.525 232.495 LINE",
"124.145 218.491 OFFCURVE",
"102 184.757 OFFCURVE",
"102 160 CURVE SMOOTH",
"102 150.964 OFFCURVE",
"104.856 144.223 OFFCURVE",
"109.613 139.55 CURVE",
"100 118 LINE SMOOTH",
"97 110 OFFCURVE",
"93 103 OFFCURVE",
"90 96 CURVE SMOOTH",
"-4 -115 OFFCURVE",
"-10 -181 OFFCURVE",
"-10 -222 CURVE SMOOTH",
"-10 -293 OFFCURVE",
"40 -338 OFFCURVE",
"114 -338 CURVE SMOOTH"
);
},
{
closed = 1;
nodes = (
"86 -316 OFFCURVE",
"46 -288 OFFCURVE",
"46 -209 CURVE SMOOTH",
"46 -141 OFFCURVE",
"80 -58 OFFCURVE",
"149 92 CURVE SMOOTH",
"156.319 107.987 OFFCURVE",
"163.49 124.716 OFFCURVE",
"170.684 142.251 CURVE",
"173.392 143.931 LINE",
"173.712 51.031 OFFCURVE",
"207.771 -101.13 OFFCURVE",
"201 -201 CURVE SMOOTH",
"196 -276 OFFCURVE",
"162 -316 OFFCURVE",
"122 -316 CURVE SMOOTH"
);
}
);
width = 325;
}
);
note = f;
unicode = 0066;
},
{
glyphname = g;
lastChange = "2020-12-26 06:51:23 +0000";
layers = (
{
anchors = (
{
name = top;
position = "{210, 511}";
}
);
layerId = "1691882E-B915-4755-A5B2-757873D945FF";
paths = (
{
closed = 1;
nodes = (
"202 -382 OFFCURVE",
"283 -296 OFFCURVE",
"342 -198 CURVE SMOOTH",
"374 -143 OFFCURVE",
"392 -95 OFFCURVE",
"413 -36 CURVE SMOOTH",
"426 1 LINE",
"483 22 OFFCURVE",
"552 109 OFFCURVE",
"628 267 CURVE SMOOTH",
"644 299 OFFCURVE",
"618 305 OFFCURVE",
"607 279 CURVE SMOOTH",
"567 197 OFFCURVE",
"526 131 OFFCURVE",
"485 80 CURVE SMOOTH",
"466 56 OFFCURVE",
"452 44 OFFCURVE",
"434 32 CURVE",
"442 72 OFFCURVE",
"470 174 OFFCURVE",
"495 259 CURVE SMOOTH",
"527 372 LINE",
"506 364 OFFCURVE",
"477 362 OFFCURVE",
"467 364 CURVE",
"425 246 LINE SMOOTH",
"370 92 OFFCURVE",
"296 32 OFFCURVE",
"243 32 CURVE SMOOTH",
"218 32 OFFCURVE",
"187 51 OFFCURVE",
"187 90 CURVE SMOOTH",
"187 216 OFFCURVE",
"268 335 OFFCURVE",
"315 387 CURVE SMOOTH",
"378 455 OFFCURVE",
"440 489 OFFCURVE",
"524 489 CURVE SMOOTH",
"561 489 OFFCURVE",
"567 470 OFFCURVE",
"596 445 CURVE SMOOTH",
"614 429 OFFCURVE",
"632 457 OFFCURVE",
"612 479 CURVE SMOOTH",
"580 511 OFFCURVE",
"541 527 OFFCURVE",
"495 527 CURVE SMOOTH",
"444 527 OFFCURVE",
"341 499 OFFCURVE",
"264 410 CURVE SMOOTH",
"179 309 OFFCURVE",
"137 209 OFFCURVE",
"137 111 CURVE SMOOTH",
"137 37 OFFCURVE",
"175 -12 OFFCURVE",
"225 -12 CURVE SMOOTH",
"264 -12 OFFCURVE",
"317 15 OFFCURVE",
"367 74 CURVE SMOOTH",
"390 101 OFFCURVE",
"405 138 OFFCURVE",
"429 178 CURVE",
"395 28 LINE",
"302 -7 LINE SMOOTH",
"152 -64 OFFCURVE",
"-17 -177 OFFCURVE",
"-25 -294 CURVE SMOOTH",
"-31 -377 OFFCURVE",
"46 -382 OFFCURVE",
"97 -382 CURVE SMOOTH"
);
},
{
closed = 1;
nodes = (
"147 -358 OFFCURVE",
"12 -377 OFFCURVE",
"15 -295 CURVE SMOOTH",
"18 -200 OFFCURVE",
"94 -161 OFFCURVE",
"167 -113 CURVE SMOOTH",
"246 -61 OFFCURVE",
"358 -17 OFFCURVE",
"384 -7 CURVE",
"369 -80 OFFCURVE",
"334 -145 OFFCURVE",
"303 -191 CURVE SMOOTH",
"267 -244 OFFCURVE",
"238 -282 OFFCURVE",
"208 -307 CURVE SMOOTH"
);
}
);
width = 452;
}
);
note = g;
unicode = 0067;
},
{
glyphname = h;
lastChange = "2020-12-27 09:08:48 +0000";
layers = (
{
anchors = (
{
name = top;
position = "{462, 514}";
}
);
layerId = "1691882E-B915-4755-A5B2-757873D945FF";
paths = (
{
closed = 1;
nodes = (
"61 11 OFFCURVE",
"72 -21 OFFCURVE",
"96 19 CURVE SMOOTH",
"101 29 OFFCURVE",
"105 40 OFFCURVE",
"110 50 CURVE SMOOTH",
"129 90 OFFCURVE",
"144 128 OFFCURVE",
"170 162 CURVE SMOOTH",
"220 227 OFFCURVE",
"288 279 OFFCURVE",
"335 316 CURVE SMOOTH",
"498 444 OFFCURVE",
"540 448 OFFCURVE",
"487 345 CURVE SMOOTH",
"439 252 OFFCURVE",
"381 124 OFFCURVE",
"373 73 CURVE SMOOTH",
"361 1 OFFCURVE",
"460 -64 OFFCURVE",
"552 53 CURVE SMOOTH",
"585 95 OFFCURVE",
"625 148 OFFCURVE",
"681 259 CURVE SMOOTH",
"702 300 OFFCURVE",
"678 306 OFFCURVE",
"660 272 CURVE SMOOTH",
"571 99 OFFCURVE",
"511 25 OFFCURVE",
"460 25 CURVE SMOOTH",
"441 25 OFFCURVE",
"416 41 OFFCURVE",
"416 67 CURVE SMOOTH",
"416 113 OFFCURVE",
"454 196 OFFCURVE",
"519 316 CURVE SMOOTH",
"546 367 OFFCURVE",
"579 425 OFFCURVE",
"616 490 CURVE",
"611 492 OFFCURVE",
"605 493 OFFCURVE",
"599 493 CURVE SMOOTH",
"549 493 OFFCURVE",
"423 418 OFFCURVE",
"342 353 CURVE SMOOTH",
"298 318 OFFCURVE",
"205 258 OFFCURVE",
"162 189 CURVE",
"164 182 LINE",
"197 250 OFFCURVE",
"228 307 OFFCURVE",
"254.413 352.425 CURVE SMOOTH",
"443 670 OFFCURVE",
"272 376 OFFCURVE",
"456 696 CURVE SMOOTH",
"484 744 OFFCURVE",
"509 800 OFFCURVE",
"539 829 CURVE",
"508 819 OFFCURVE",
"492 829 OFFCURVE",
"477 820 CURVE SMOOTH",
"456 808 OFFCURVE",
"448 785 OFFCURVE",
"431 755 CURVE SMOOTH",
"378 658 OFFCURVE",
"245 420 OFFCURVE",
"227 387 CURVE SMOOTH",
"199 338 OFFCURVE",
"161 270 OFFCURVE",
"120 184 CURVE SMOOTH",
"96 132 OFFCURVE",
"74 90 OFFCURVE",
"58 56 CURVE SMOOTH",
"44 25 OFFCURVE",
"27 2 OFFCURVE",
"19 -13 CURVE"
);
}
);
width = 507;
}
);
leftMetricsKey = h;
note = h;
rightMetricsKey = n;
unicode = 0068;
},
{
glyphname = i;
lastChange = "2020-12-26 02:09:01 +0000";
layers = (
{
layerId = "1691882E-B915-4755-A5B2-757873D945FF";
paths = (
{
closed = 1;
nodes = (
"148 -13 OFFCURVE",
"185 -14 OFFCURVE",
"234 -1 CURVE SMOOTH",
"263 7 OFFCURVE",
"287 30 OFFCURVE",
"313 60 CURVE SMOOTH",
"343 94 OFFCURVE",
"388 173 OFFCURVE",
"401 201 CURVE SMOOTH",
"423 248 LINE SMOOTH",
"431 266 OFFCURVE",
"435 277 OFFCURVE",
"435 281 CURVE SMOOTH",
"435 286 OFFCURVE",
"434 289 OFFCURVE",
"432 291 CURVE SMOOTH",
"425 297 OFFCURVE",
"418 293 OFFCURVE",
"411 278 CURVE SMOOTH",
"354 164 OFFCURVE",
"307 88 OFFCURVE",
"270 51 CURVE SMOOTH",
"249 32 OFFCURVE",
"229 23 OFFCURVE",
"210 23 CURVE SMOOTH",
"179 23 OFFCURVE",
"160 40 OFFCURVE",
"148 66 CURVE SMOOTH",
"136 92 OFFCURVE",
"148 138 OFFCURVE",
"167 173 CURVE SMOOTH",
"303 425 LINE SMOOTH",
"323 462 OFFCURVE",
"323 496 OFFCURVE",
"277 494 CURVE SMOOTH",
"235 492 LINE",
"251 470 OFFCURVE",
"262 450 OFFCURVE",
"250 429 CURVE SMOOTH",
"114 185 LINE SMOOTH",
"80 124 OFFCURVE",
"83 65 OFFCURVE",
"118 23 CURVE SMOOTH"
);
},
{
closed = 1;
nodes = (
"387 564 OFFCURVE",
"397 669 OFFCURVE",
"329 669 CURVE SMOOTH",
"299 669 OFFCURVE",
"272 646 OFFCURVE",
"267 617 CURVE SMOOTH",
"263 588 OFFCURVE",
"282 564 OFFCURVE",
"311 564 CURVE SMOOTH"
);
}
);
width = 248;
}
);
note = i;
unicode = 0069;
},
{
glyphname = j;
lastChange = "2020-12-26 21:56:12 +0000";
layers = (
{
layerId = "1691882E-B915-4755-A5B2-757873D945FF";
paths = (
{
closed = 1;
nodes = (
"-126 -395 OFFCURVE",
"-44 -333 CURVE SMOOTH",
"-1 -299 OFFCURVE",
"38 -251 OFFCURVE",
"61 -198 CURVE SMOOTH",
"86 -140 OFFCURVE",
"101 -96 OFFCURVE",
"116 -36 CURVE SMOOTH",
"124 -3 LINE",
"181 17 OFFCURVE",
"249 110 OFFCURVE",
"327 267 CURVE",
"341 300 OFFCURVE",
"317 305 OFFCURVE",
"306 279 CURVE SMOOTH",
"266 197 OFFCURVE",
"225 131 OFFCURVE",
"184 80 CURVE SMOOTH",
"165 56 OFFCURVE",
"148 40 OFFCURVE",
"133 32 CURVE",
"141 76 OFFCURVE",
"184 196 OFFCURVE",
"265 425 CURVE SMOOTH",
"280 462 OFFCURVE",
"285 496 OFFCURVE",
"239 494 CURVE SMOOTH",
"197 492 LINE",
"213 470 OFFCURVE",
"221 450 OFFCURVE",
"212 429 CURVE",
"178 323 LINE",
"148 215 LINE",
"90 24 LINE",
"1 -7 LINE SMOOTH",
"-45 -23 OFFCURVE",
"-87 -55 OFFCURVE",
"-120 -95 CURVE SMOOTH",
"-167 -152 OFFCURVE",
"-198 -226 OFFCURVE",
"-206 -294 CURVE SMOOTH",
"-218 -405 OFFCURVE"
);
},
{
closed = 1;
nodes = (
"-32 -273 OFFCURVE",
"-62 -303 CURVE SMOOTH",
"-120 -359 OFFCURVE",
"-174 -371 OFFCURVE",
"-162 -295 CURVE SMOOTH",
"-147 -200 OFFCURVE",
"-126 -159 OFFCURVE",
"-86 -113 CURVE SMOOTH",
"-38 -58 OFFCURVE",
"40 -32 OFFCURVE",
"79 -17 CURVE",
"64 -90 OFFCURVE",
"44 -145 OFFCURVE",
"17 -191 CURVE SMOOTH",
"-7 -232 OFFCURVE"
);
},
{
closed = 1;
nodes = (
"349 564 OFFCURVE",
"359 669 OFFCURVE",
"291 669 CURVE SMOOTH",
"261 669 OFFCURVE",
"234 646 OFFCURVE",
"229 617 CURVE SMOOTH",
"225 588 OFFCURVE",
"244 564 OFFCURVE",
"273 564 CURVE SMOOTH"
);
}
);
width = 156;
}
);
note = j;
unicode = 006A;
},
{
glyphname = k;
lastChange = "2021-01-04 21:50:25 +0000";
layers = (
{
layerId = "1691882E-B915-4755-A5B2-757873D945FF";
paths = (
{
closed = 1;
nodes = (
"408 767 OFFCURVE",
"472 829 CURVE",
"441 819 OFFCURVE",
"423 829 OFFCURVE",
"408 820 CURVE SMOOTH",
"387 808 OFFCURVE",
"382 785 OFFCURVE",
"365 755 CURVE SMOOTH",
"264 573 OFFCURVE",
"205 430 OFFCURVE",
"160 325 CURVE SMOOTH",
"125 243 OFFCURVE",
"59 41 OFFCURVE",
"59 -1 CURVE",
"123 -1 LINE",
"123 68 OFFCURVE",
"150 145 OFFCURVE",
"196 233 CURVE",
"266 333 OFFCURVE",
"429 471 OFFCURVE",
"509 471 CURVE SMOOTH",
"536 471 OFFCURVE",
"549 457 OFFCURVE",
"549 430 CURVE SMOOTH",
"549 386 OFFCURVE",
"423 290 OFFCURVE",
"353 290 CURVE SMOOTH",
"344 290 LINE SMOOTH",
"318 290 OFFCURVE",
"311 214 OFFCURVE",
"311 158 CURVE SMOOTH",
"311 75 OFFCURVE",
"354 -11 OFFCURVE",
"436 -11 CURVE SMOOTH",
"487 -11 OFFCURVE",
"544 31 OFFCURVE",
"601 118 CURVE SMOOTH",
"652 196 OFFCURVE",
"686 259 OFFCURVE",
"691 283 CURVE SMOOTH",
"693 291 OFFCURVE",
"682 309 OFFCURVE",
"668 283 CURVE SMOOTH",
"618 180 OFFCURVE",
"576 119 OFFCURVE",
"547 86 CURVE SMOOTH",
"512 47 OFFCURVE",
"477 15 OFFCURVE",
"449 15 CURVE SMOOTH",
"360 15 OFFCURVE",
"344 168 OFFCURVE",
"368 266 CURVE",
"472 276 OFFCURVE",
"571 346 OFFCURVE",
"599 422 CURVE SMOOTH",
"604 437 OFFCURVE",
"607 451 OFFCURVE",
"607 463 CURVE SMOOTH",
"607 500 OFFCURVE",
"585 518 OFFCURVE",
"541 518 CURVE SMOOTH",
"521 518 OFFCURVE",
"494 513 OFFCURVE",
"460 502 CURVE SMOOTH",
"388 475 OFFCURVE",
"285 405 OFFCURVE",
"194 292 CURVE",
"223 380 OFFCURVE"
);
}
);
width = 504;
}
);
note = k;
rightMetricsKey = r;
unicode = 006B;
},
{
glyphname = l;
lastChange = "2020-12-26 06:41:35 +0000";
layers = (
{
layerId = "1691882E-B915-4755-A5B2-757873D945FF";
paths = (
{
closed = 1;
nodes = (
"286 -14 OFFCURVE",
"339 38 OFFCURVE",
"386 96 CURVE SMOOTH",
"414 130 OFFCURVE",
"463 231 OFFCURVE",
"477 275 CURVE SMOOTH",
"482 291 OFFCURVE",
"464 297 OFFCURVE",
"454 275 CURVE SMOOTH",
"385 123 OFFCURVE",
"313 17 OFFCURVE",
"241 17 CURVE SMOOTH",
"165 17 OFFCURVE",
"151 62 OFFCURVE",
"151 105 CURVE SMOOTH",
"151 166 OFFCURVE",
"170 214 OFFCURVE",
"190 278 CURVE",
"267 349 OFFCURVE",
"514 683 OFFCURVE",
"514 788 CURVE SMOOTH",
"514 818 OFFCURVE",
"503 860 OFFCURVE",
"466 860 CURVE SMOOTH",
"397 860 OFFCURVE",
"354 796 OFFCURVE",
"325 742 CURVE SMOOTH",
"299 692 OFFCURVE",
"268.95 626.884 OFFCURVE",
"237 553 CURVE SMOOTH",
"195 455 OFFCURVE",
"165 363 OFFCURVE",
"123 230 CURVE SMOOTH",
"102 164 OFFCURVE",
"91 92 OFFCURVE",
"112 43 CURVE SMOOTH",
"127 9 OFFCURVE",
"157 -14 OFFCURVE",
"211 -14 CURVE SMOOTH"
);
},
{
closed = 1;
nodes = (
"227 393 OFFCURVE",
"260 469 OFFCURVE",
"291 542 CURVE SMOOTH",
"319 610 OFFCURVE",
"355 677 OFFCURVE",
"382 732 CURVE SMOOTH",
"412 790 OFFCURVE",
"444 829 OFFCURVE",
"470 829 CURVE SMOOTH",
"488 829 OFFCURVE",
"497 796 OFFCURVE",
"483.353 763.472 CURVE SMOOTH",
"436 652 OFFCURVE",
"304 430 OFFCURVE",
"202 326 CURVE"
);
}
);
width = 324;
}
);
note = l;
unicode = 006C;
},
{
glyphname = m;
lastChange = "2020-12-27 09:09:31 +0000";
layers = (
{
layerId = "1691882E-B915-4755-A5B2-757873D945FF";
paths = (
{
closed = 1;
nodes = (
"616 490 LINE",
"611 492 OFFCURVE",
"605 493 OFFCURVE",
"599 493 CURVE SMOOTH",
"549 493 OFFCURVE",
"419 422 OFFCURVE",
"342 353 CURVE SMOOTH",
"297 313 OFFCURVE",
"214 248 OFFCURVE",
"160 193 CURVE",
"164 179 LINE",
"212 277 OFFCURVE",
"250 352 OFFCURVE",
"286 403 CURVE SMOOTH",
"321 453 OFFCURVE",
"345 483 OFFCURVE",
"364 496 CURVE",
"336 492 OFFCURVE",
"343 502 OFFCURVE",
"323 502 CURVE SMOOTH",
"302 502 OFFCURVE",
"290 496 OFFCURVE",
"278 484 CURVE SMOOTH",
"268 474 OFFCURVE",
"253 452 OFFCURVE",
"233 418 CURVE SMOOTH",
"203 367 OFFCURVE",
"163 289 OFFCURVE",
"113 184 CURVE SMOOTH",
"89 133 OFFCURVE",
"68 90 OFFCURVE",
"53 57 CURVE SMOOTH",
"38 26 OFFCURVE",
"27 2 OFFCURVE",
"19 -13 CURVE",
"61 11 OFFCURVE",
"65 -21 OFFCURVE",
"89 19 CURVE",
"95 30 OFFCURVE",
"103 42 OFFCURVE",
"108 53 CURVE SMOOTH",
"127 92 OFFCURVE",
"144 128 OFFCURVE",
"169 162 CURVE SMOOTH",
"219 227 OFFCURVE",
"288 279 OFFCURVE",
"335 316 CURVE SMOOTH",
"498 444 OFFCURVE",
"551 460 OFFCURVE",
"498 357 CURVE SMOOTH",
"388 145 OFFCURVE",
"364 97 OFFCURVE",
"348 67 CURVE SMOOTH",
"338 47 OFFCURVE",
"330 35 OFFCURVE",
"302 -13 CURVE",
"344 11 OFFCURVE",
"349 -21 OFFCURVE",
"373 19 CURVE",
"380 33 OFFCURVE",
"388 47 OFFCURVE",
"394 60 CURVE SMOOTH",
"411 97 OFFCURVE",
"426 131 OFFCURVE",
"449 162 CURVE SMOOTH",
"499 227 OFFCURVE",
"564 279 OFFCURVE",
"611 316 CURVE SMOOTH",
"774 444 OFFCURVE",
"833 468 OFFCURVE",
"780 365 CURVE SMOOTH",
"732 272 OFFCURVE",
"657 124 OFFCURVE",
"649 73 CURVE SMOOTH",
"637 1 OFFCURVE",
"736 -64 OFFCURVE",
"828 53 CURVE SMOOTH",
"861 95 OFFCURVE",
"901 148 OFFCURVE",
"957 259 CURVE SMOOTH",
"978 300 OFFCURVE",
"954 306 OFFCURVE",
"936 272 CURVE SMOOTH",
"847 99 OFFCURVE",
"787 25 OFFCURVE",
"736 25 CURVE SMOOTH",
"717 25 OFFCURVE",
"692 41 OFFCURVE",
"692 67 CURVE SMOOTH",
"692 113 OFFCURVE",
"730 196 OFFCURVE",
"795 316 CURVE SMOOTH",
"822 367 OFFCURVE",
"855 425 OFFCURVE",
"892 490 CURVE",
"887 492 OFFCURVE",
"881 493 OFFCURVE",
"875 493 CURVE SMOOTH",
"825 493 OFFCURVE",
"695 422 OFFCURVE",
"618 353 CURVE SMOOTH",
"573 313 OFFCURVE",
"493 258 OFFCURVE",
"447 188 CURVE",
"446 174 LINE",
"478.397 238.482 LINE SMOOTH",
"483 248 OFFCURVE",
"488 257 OFFCURVE",
"492.37 265.352 CURVE SMOOTH"
);
}
);
width = 805;
}
);
note = m;
unicode = 006D;
},
{
glyphname = n;
lastChange = "2020-12-25 19:55:36 +0000";
layers = (
{
anchors = (
{
name = top;
position = "{462, 514}";
}
);
layerId = "1691882E-B915-4755-A5B2-757873D945FF";
paths = (
{
closed = 1;
nodes = (
"61 11 OFFCURVE",
"72 -21 OFFCURVE",
"96 19 CURVE",
"101 29 OFFCURVE",
"105 40 OFFCURVE",
"110 50 CURVE SMOOTH",
"129 90 OFFCURVE",
"144 128 OFFCURVE",
"170 162 CURVE SMOOTH",
"220 227 OFFCURVE",
"288 279 OFFCURVE",
"335 316 CURVE SMOOTH",
"498 444 OFFCURVE",
"540 448 OFFCURVE",
"487 345 CURVE SMOOTH",
"439 252 OFFCURVE",
"381 124 OFFCURVE",
"373 73 CURVE SMOOTH",
"361 1 OFFCURVE",
"460 -64 OFFCURVE",
"552 53 CURVE SMOOTH",
"585 95 OFFCURVE",
"625 148 OFFCURVE",
"681 259 CURVE SMOOTH",
"702 300 OFFCURVE",
"678 306 OFFCURVE",
"660 272 CURVE SMOOTH",
"571 99 OFFCURVE",
"511 25 OFFCURVE",
"460 25 CURVE SMOOTH",
"441 25 OFFCURVE",
"416 41 OFFCURVE",
"416 67 CURVE SMOOTH",
"416 113 OFFCURVE",
"454 196 OFFCURVE",
"519 316 CURVE SMOOTH",
"546 367 OFFCURVE",
"579 425 OFFCURVE",
"616 490 CURVE",
"611 492 OFFCURVE",
"605 493 OFFCURVE",
"599 493 CURVE SMOOTH",
"549 493 OFFCURVE",
"423 418 OFFCURVE",
"342 353 CURVE SMOOTH",
"303 322 OFFCURVE",
"227 272 OFFCURVE",
"180 214 CURVE",
"213 280 OFFCURVE",
"243 334 OFFCURVE",
"269 377 CURVE SMOOTH",
"310 442 OFFCURVE",
"342 481 OFFCURVE",
"364 496 CURVE",
"335 494 OFFCURVE",
"343 502 OFFCURVE",
"323 502 CURVE SMOOTH",
"302 502 OFFCURVE",
"290 496 OFFCURVE",
"278 484 CURVE SMOOTH",
"265 471 OFFCURVE",
"244 439 OFFCURVE",
"216 387 CURVE SMOOTH",
"188 338 OFFCURVE",
"154 270 OFFCURVE",
"113 184 CURVE SMOOTH",
"89 132 OFFCURVE",
"68 90 OFFCURVE",
"52 56 CURVE SMOOTH",
"38 25 OFFCURVE",
"27 2 OFFCURVE",
"19 -13 CURVE"
);
}
);
width = 507;
}
);
note = n;
unicode = 006E;
},
{
glyphname = o;
lastChange = "2020-12-25 00:04:12 +0000";
layers = (
{
anchors = (
{
name = top;
position = "{412, 512}";
}
);
layerId = "1691882E-B915-4755-A5B2-757873D945FF";
paths = (
{
closed = 1;
nodes = (
"265 -13 OFFCURVE",
"309 4 OFFCURVE",
"356 40 CURVE",
"379 13 OFFCURVE",
"412 0 OFFCURVE",
"454 0 CURVE SMOOTH",
"513 0 OFFCURVE",
"554 41 OFFCURVE",
"592 95 CURVE SMOOTH",
"634 155 OFFCURVE",
"666 220 OFFCURVE",
"693 275 CURVE SMOOTH",
"699 287 OFFCURVE",
"683 304 OFFCURVE",
"673 286 CURVE SMOOTH",
"665 270 OFFCURVE",
"657 253 OFFCURVE",
"629 203 CURVE SMOOTH",
"588 126 OFFCURVE",
"565 99 OFFCURVE",
"535 67 CURVE SMOOTH",
"510 40 OFFCURVE",
"485 25 OFFCURVE",
"457 25 CURVE SMOOTH",
"422 25 OFFCURVE",
"398 38 OFFCURVE",
"385 64 CURVE",
"442 117 OFFCURVE",
"485 178 OFFCURVE",
"513 245 CURVE SMOOTH",
"536 294 OFFCURVE",
"547 340 OFFCURVE",
"547 383 CURVE SMOOTH",
"547 475 OFFCURVE",
"510 523 OFFCURVE",
"436 523 CURVE SMOOTH",
"336 523 OFFCURVE",
"209 408 OFFCURVE",
"148 266 CURVE SMOOTH",
"125 217 OFFCURVE",
"114 171 OFFCURVE",
"114 129 CURVE SMOOTH",
"114 35 OFFCURVE",
"151 -13 OFFCURVE",
"225 -13 CURVE SMOOTH"
);
},
{
closed = 1;
nodes = (
"156 142 OFFCURVE",
"174 197 OFFCURVE",
"210 270 CURVE SMOOTH",
"269 397 OFFCURVE",
"382 482 OFFCURVE",
"448 482 CURVE SMOOTH",
"486 482 OFFCURVE",
"510 451 OFFCURVE",
"510 401 CURVE SMOOTH",
"510 350 OFFCURVE",
"499 300 OFFCURVE",
"473 248 CURVE SMOOTH",
"451.395 200.862 OFFCURVE",
"409.537 123.826 OFFCURVE",
"379.628 92.662 CURVE",
"380 98 LINE SMOOTH",
"380 118 OFFCURVE",
"372 129 OFFCURVE",
"356 129 CURVE SMOOTH",
"335 129 OFFCURVE",
"309 96 OFFCURVE",
"309 73 CURVE SMOOTH",
"309 59.831 OFFCURVE",
"317.994 53.756 OFFCURVE",
"329.579 53.332 CURVE",
"301.294 31.175 OFFCURVE",
"275.523 19 OFFCURVE",
"253 19 CURVE SMOOTH",
"207 19 OFFCURVE",
"170 39 OFFCURVE",
"163 90 CURVE SMOOTH"
);
}
);
width = 509;
}
);
note = o;
unicode = 006F;
},
{
glyphname = p;
lastChange = "2020-12-26 09:24:07 +0000";
layers = (
{
layerId = "1691882E-B915-4755-A5B2-757873D945FF";
paths = (
{
closed = 1;
nodes = (
"-106 -352 OFFCURVE",
"-71 -365 OFFCURVE",
"-63 -357 CURVE SMOOTH",
"-51 -344 OFFCURVE",
"-45 -326 OFFCURVE",
"-30 -294 CURVE",
"111 19 LINE",
"145 1 OFFCURVE",
"176 -8 OFFCURVE",
"204 -8 CURVE SMOOTH",
"233 -8 OFFCURVE",
"258 -5 OFFCURVE",
"280 1 CURVE SMOOTH",
"406 40 OFFCURVE",
"497 159 OFFCURVE",
"536 275 CURVE SMOOTH",
"550 318 OFFCURVE",
"558 361 OFFCURVE",
"558 400 CURVE SMOOTH",
"558 465 OFFCURVE",
"532 504 OFFCURVE",
"483 517 CURVE SMOOTH",
"475 519 OFFCURVE",
"468 520 OFFCURVE",
"460 520 CURVE SMOOTH",
"433 520 OFFCURVE",
"404 509 OFFCURVE",
"375 481 CURVE SMOOTH",
"330 438 OFFCURVE",
"292 390 OFFCURVE",
"244 313 CURVE SMOOTH",
"214 265 LINE",
"242 340 OFFCURVE",
"262 455 OFFCURVE",
"256 473 CURVE SMOOTH",
"252 485 OFFCURVE",
"214 477 OFFCURVE",
"196 494 CURVE",
"206 478 OFFCURVE",
"208 394 OFFCURVE",
"180 303 CURVE SMOOTH",
"151 210 OFFCURVE",
"40 -56 OFFCURVE",
"-48 -222 CURVE",
"-84 -296 OFFCURVE",
"-77 -276 OFFCURVE",
"-125 -364 CURVE"
);
},
{
closed = 1;
nodes = (
"154 22 OFFCURVE",
"136 28 OFFCURVE",
"123 41 CURVE",
"210 203 OFFCURVE",
"276 317 OFFCURVE",
"323 382 CURVE SMOOTH",
"369 447 OFFCURVE",
"410 479 OFFCURVE",
"445 479 CURVE SMOOTH",
"473 479 OFFCURVE",
"509 466 OFFCURVE",
"509 414 CURVE SMOOTH",
"509 334 OFFCURVE",
"461 140 OFFCURVE",
"295 42 CURVE SMOOTH",
"247 14 OFFCURVE",
"200 18 OFFCURVE",
"177 20 CURVE SMOOTH"
);
}
);
width = 478;
}
);
note = p;
unicode = 0070;
},
{
glyphname = q;
lastChange = "2020-12-26 06:41:10 +0000";
layers = (
{
layerId = "1691882E-B915-4755-A5B2-757873D945FF";
paths = (
{
closed = 1;
nodes = (
"225 -349 OFFCURVE",
"233 -326 OFFCURVE",
"248 -294 CURVE",
"496 251 LINE",
"527 314 OFFCURVE",
"556 377 OFFCURVE",
"577 398 CURVE",
"555 392 OFFCURVE",
"551 401 OFFCURVE",
"528 399 CURVE SMOOTH",
"499 396 OFFCURVE",
"493 382 OFFCURVE",
"455 308 CURVE SMOOTH",
"358 124 OFFCURVE",
"276 32 OFFCURVE",
"216 32 CURVE SMOOTH",
"169 32 OFFCURVE",
"161 68 OFFCURVE",
"161 117 CURVE SMOOTH",
"161 220 OFFCURVE",
"237 325 OFFCURVE",
"293 387 CURVE SMOOTH",
"354 455 OFFCURVE",
"454 489 OFFCURVE",
"497 489 CURVE SMOOTH",
"534 489 OFFCURVE",
"543 463 OFFCURVE",
"569 435 CURVE SMOOTH",
"587 416 OFFCURVE",
"605 457 OFFCURVE",
"585 479 CURVE SMOOTH",
"553 511 OFFCURVE",
"514 527 OFFCURVE",
"468 527 CURVE SMOOTH",
"417 527 OFFCURVE",
"314 499 OFFCURVE",
"237 410 CURVE SMOOTH",
"152 309 OFFCURVE",
"110 209 OFFCURVE",
"110 111 CURVE SMOOTH",
"110 37 OFFCURVE",
"148 -12 OFFCURVE",
"198 -12 CURVE SMOOTH",
"254.763 -12 OFFCURVE",
"322.063 50.258 OFFCURVE",
"399.898 173.836 CURVE",
"359.836 68.141 OFFCURVE",
"294.608 -90.694 OFFCURVE",
"225 -222 CURVE SMOOTH",
"189 -296 OFFCURVE",
"162 -351 OFFCURVE",
"148 -364 CURVE",
"170 -361 OFFCURVE",
"202 -381 OFFCURVE",
"212 -367 CURVE SMOOTH"
);
}
);
width = 603;
}
);
note = q;
unicode = 0071;
},
{
glyphname = r;
lastChange = "2020-12-27 02:24:00 +0000";
layers = (
{
layerId = "1691882E-B915-4755-A5B2-757873D945FF";
paths = (
{
closed = 1;
nodes = (
"349 -14 OFFCURVE",
"387 9 OFFCURVE",
"425 55 CURVE SMOOTH",
"489 129 OFFCURVE",
"511 182 OFFCURVE",
"537 235 CURVE SMOOTH",
"550 261 OFFCURVE",
"555 277 OFFCURVE",
"557 281 CURVE SMOOTH",
"560 289 OFFCURVE",
"548 305 OFFCURVE",
"533 277 CURVE SMOOTH",
"450 110 OFFCURVE",
"389 27 OFFCURVE",
"347 27 CURVE SMOOTH",
"314 27 OFFCURVE",
"309 65 OFFCURVE",
"335 141 CURVE SMOOTH",
"347 176 OFFCURVE",
"366 220 OFFCURVE",
"387 264 CURVE SMOOTH",
"397 283 OFFCURVE",
"406 302 OFFCURVE",
"416 320 CURVE SMOOTH",
"446 378 OFFCURVE",
"478 446 OFFCURVE",
"464 468 CURVE",
"413 463 OFFCURVE",
"370 460 OFFCURVE",
"337 460 CURVE SMOOTH",
"303 460 OFFCURVE",
"276 461 OFFCURVE",
"257 462 CURVE",
"314 515 OFFCURVE",
"308 544 OFFCURVE",
"311 589 CURVE SMOOTH",
"313 622 OFFCURVE",
"312 663 OFFCURVE",
"290 663 CURVE SMOOTH",
"267 663 OFFCURVE",
"254 647 OFFCURVE",
"248 616 CURVE SMOOTH",
"235 543 OFFCURVE",
"219 474 OFFCURVE",
"196 405 CURVE SMOOTH",
"163 306 OFFCURVE",
"140 216 OFFCURVE",
"83 137 CURVE SMOOTH",
"76 127 OFFCURVE",
"80 103 OFFCURVE",
"91 118 CURVE SMOOTH",
"165 218 OFFCURVE",
"190 300 OFFCURVE",
"214 372 CURVE SMOOTH",
"237 442 LINE",
"322 440 OFFCURVE",
"391 450 OFFCURVE",
"397 415 CURVE SMOOTH",
"401 393 OFFCURVE",
"363 325 OFFCURVE",
"336 279 CURVE SMOOTH",
"284 193 OFFCURVE",
"214 -14 OFFCURVE",
"315 -14 CURVE SMOOTH"
);
}
);
width = 370;
}
);
note = r;
rightMetricsKey = r;
unicode = 0072;
},
{
glyphname = s;
lastChange = "2020-12-27 02:24:27 +0000";
layers = (
{
layerId = "1691882E-B915-4755-A5B2-757873D945FF";
paths = (
{
closed = 1;
nodes = (
"211 -24 OFFCURVE",
"232 -19 OFFCURVE",
"255 -9 CURVE",
"290 -19 OFFCURVE",
"326 -18 OFFCURVE",
"363 -6 CURVE SMOOTH",
"386 1 OFFCURVE",
"407 12 OFFCURVE",
"454 63 CURVE SMOOTH",
"482 93 OFFCURVE",
"512 142 OFFCURVE",
"540 179 CURVE SMOOTH",
"566 213 OFFCURVE",
"584 252 OFFCURVE",
"589 266 CURVE SMOOTH",
"593 277 OFFCURVE",
"576 285 OFFCURVE",
"568 269 CURVE SMOOTH",
"515 163 OFFCURVE",
"456 99 OFFCURVE",
"435 78 CURVE SMOOTH",
"388 31 OFFCURVE",
"355 0 OFFCURVE",
"289 10 CURVE",
"347 50 OFFCURVE",
"396 120 OFFCURVE",
"396 186 CURVE SMOOTH",
"396 219 OFFCURVE",
"384 261 OFFCURVE",
"361 313 CURVE SMOOTH",
"341 355 OFFCURVE",
"322 385 OFFCURVE",
"322 441 CURVE SMOOTH",
"322 494 OFFCURVE",
"339 528 OFFCURVE",
"373 544 CURVE SMOOTH",
"395 555 OFFCURVE",
"434 523 OFFCURVE",
"444 546 CURVE SMOOTH",
"451 562 OFFCURVE",
"416 577 OFFCURVE",
"388 577 CURVE SMOOTH",
"335 577 OFFCURVE",
"289 535 OFFCURVE",
"249 450 CURVE SMOOTH",
"213 372 OFFCURVE",
"169 284 OFFCURVE",
"118 187 CURVE",
"71 184 OFFCURVE",
"52 114 OFFCURVE",
"64 60 CURVE SMOOTH",
"79 4 OFFCURVE",
"122 -24 OFFCURVE",
"193 -24 CURVE SMOOTH"
);
},
{
closed = 1;
nodes = (
"154 1 OFFCURVE",
"112 8 OFFCURVE",
"97 42 CURVE SMOOTH",
"77 88 OFFCURVE",
"74 150 OFFCURVE",
"149 150 CURVE",
"152 98 OFFCURVE",
"176 30 OFFCURVE",
"213 7 CURVE",
"205 3 OFFCURVE",
"195 1 OFFCURVE",
"183 1 CURVE SMOOTH"
);
},
{
closed = 1;
nodes = (
"196 41 OFFCURVE",
"175 80 OFFCURVE",
"175 139 CURVE SMOOTH",
"175 169 OFFCURVE",
"165 184 OFFCURVE",
"144 184 CURVE",
"162 217 OFFCURVE",
"209 310 OFFCURVE",
"285 462 CURVE",
"277 408 OFFCURVE",
"344 298 OFFCURVE",
"344 186 CURVE SMOOTH",
"344 110 OFFCURVE",
"282 55 OFFCURVE",
"238 21 CURVE"
);
}
);
width = 411;
}
);
note = s;
unicode = 0073;
},
{
glyphname = u;
lastChange = "2020-12-24 22:58:34 +0000";
layers = (
{
anchors = (
{
name = top;
position = "{492, 519}";
}
);
layerId = "1691882E-B915-4755-A5B2-757873D945FF";
paths = (
{
closed = 1;
nodes = (
"321 -5 OFFCURVE",
"378 59 OFFCURVE",
"451 187 CURVE",
"437 141 OFFCURVE",
"427 86 OFFCURVE",
"436 45 CURVE SMOOTH",
"444 9 OFFCURVE",
"473 -11 OFFCURVE",
"491 -11 CURVE SMOOTH",
"526 -11 OFFCURVE",
"569 20 OFFCURVE",
"601 61 CURVE SMOOTH",
"637 106 OFFCURVE",
"684 175 OFFCURVE",
"720 246 CURVE SMOOTH",
"746 297 OFFCURVE",
"723 307 OFFCURVE",
"710 283 CURVE SMOOTH",
"618 119 OFFCURVE",
"557 25 OFFCURVE",
"510 25 CURVE SMOOTH",
"488 25 OFFCURVE",
"475 52 OFFCURVE",
"475 84 CURVE SMOOTH",
"475 96 OFFCURVE",
"477 109 OFFCURVE",
"480 123 CURVE SMOOTH",
"487 162 OFFCURVE",
"519 241 OFFCURVE",
"579 361 CURVE SMOOTH",
"623 453 OFFCURVE",
"636 476 OFFCURVE",
"671 510 CURVE",
"603 510 LINE SMOOTH",
"593 510 OFFCURVE",
"541 401 OFFCURVE",
"524 368 CURVE SMOOTH",
"453 229 OFFCURVE",
"394 137 OFFCURVE",
"351 87 CURVE SMOOTH",
"317 47 OFFCURVE",
"263 27 OFFCURVE",
"241 27 CURVE SMOOTH",
"213 27 OFFCURVE",
"167 43 OFFCURVE",
"167 87 CURVE SMOOTH",
"167 126 OFFCURVE",
"196 198 OFFCURVE",
"229 274 CURVE SMOOTH",
"281 394 OFFCURVE",
"332 485 OFFCURVE",
"376 510 CURVE",
"331 510 LINE SMOOTH",
"302 510 OFFCURVE",
"286 499 OFFCURVE",
"273 478 CURVE SMOOTH",
"251 444 OFFCURVE",
"211 367 OFFCURVE",
"177 284 CURVE SMOOTH",
"143 201 OFFCURVE",
"120 118 OFFCURVE",
"120 81 CURVE SMOOTH",
"120 54 OFFCURVE",
"138 -5 OFFCURVE",
"219 -5 CURVE SMOOTH"
);
}
);
width = 552;
}
);
note = u;
unicode = 0075;
},
{
glyphname = v;
lastChange = "2020-12-27 06:08:52 +0000";
layers = (
{
layerId = "1691882E-B915-4755-A5B2-757873D945FF";
paths = (
{
closed = 1;
nodes = (
"297 -14 OFFCURVE",
"338 46 OFFCURVE",
"403 166 CURVE SMOOTH",
"439 234 OFFCURVE",
"483 340 OFFCURVE",
"523 487 CURVE SMOOTH",
"530 513 LINE",
"530 529 OFFCURVE",
"522 543 OFFCURVE",
"506 538 CURVE SMOOTH",
"454 523 OFFCURVE",
"439 477 OFFCURVE",
"428 427 CURVE SMOOTH",
"421 395 OFFCURVE",
"400 315 OFFCURVE",
"418 277 CURVE",
"348 103 OFFCURVE",
"307 17 OFFCURVE",
"235 16 CURVE SMOOTH",
"218 16 OFFCURVE",
"185 52 OFFCURVE",
"180 101 CURVE SMOOTH",
"174 152 OFFCURVE",
"197 216 OFFCURVE",
"214 268 CURVE SMOOTH",
"223 295 OFFCURVE",
"231 332 OFFCURVE",
"306 510 CURVE",
"213 511 LINE SMOOTH",
"184 511 OFFCURVE",
"232 495 OFFCURVE",
"223 474 CURVE",
"147 251 LINE SMOOTH",
"120 172 OFFCURVE",
"120 -14 OFFCURVE",
"220 -14 CURVE SMOOTH"
);
}
);
width = 383;
}
);
leftMetricsKey = u;
note = v;
unicode = 0076;
},
{
glyphname = w;
lastChange = "2020-12-26 04:21:04 +0000";
layers = (
{
layerId = "1691882E-B915-4755-A5B2-757873D945FF";
paths = (
{
closed = 1;
nodes = (
"553 -14 OFFCURVE",
"624 46 OFFCURVE",
"689 166 CURVE SMOOTH",
"725 234 OFFCURVE",
"769 340 OFFCURVE",
"809 487 CURVE SMOOTH",
"816 513 LINE",
"816 529 OFFCURVE",
"808 543 OFFCURVE",
"792 538 CURVE SMOOTH",
"740 523 OFFCURVE",
"725 477 OFFCURVE",
"714 427 CURVE SMOOTH",
"707 395 OFFCURVE",
"686 315 OFFCURVE",
"704 277 CURVE",
"634 103 OFFCURVE",
"563 16 OFFCURVE",
"491 16 CURVE SMOOTH",
"483 16 LINE SMOOTH",
"456 16 OFFCURVE",
"431 36 OFFCURVE",
"431 72 CURVE SMOOTH",
"431 100 OFFCURVE",
"430 166 OFFCURVE",
"470 268 CURVE SMOOTH",
"481 295 OFFCURVE",
"496 328 OFFCURVE",
"517 365 CURVE SMOOTH",
"531 391 OFFCURVE",
"549 419 OFFCURVE",
"567 450 CURVE SMOOTH",
"576 466 OFFCURVE",
"589 478 OFFCURVE",
"608 493 CURVE SMOOTH",
"623 505 LINE",
"566 505 LINE SMOOTH",
"537 505 OFFCURVE",
"518 495 OFFCURVE",
"509 474 CURVE SMOOTH",
"506 465 OFFCURVE",
"490 431 OFFCURVE",
"461 373 CURVE SMOOTH",
"438 328 OFFCURVE",
"397 231 OFFCURVE",
"306 99 CURVE SMOOTH",
"278 61 OFFCURVE",
"240 21 OFFCURVE",
"216 21 CURVE SMOOTH",
"172 21 OFFCURVE",
"146 38 OFFCURVE",
"146 83 CURVE SMOOTH",
"146 175 OFFCURVE",
"235 412 OFFCURVE",
"348 505 CURVE",
"306 505 LINE SMOOTH",
"277 505 OFFCURVE",
"260 495 OFFCURVE",
"248 474 CURVE SMOOTH",
"201 395 OFFCURVE",
"166 329 OFFCURVE",
"143 275 CURVE SMOOTH",
"98 167 OFFCURVE",
"95 105 OFFCURVE",
"95 76 CURVE SMOOTH",
"95 33 OFFCURVE",
"139 -11 OFFCURVE",
"192 -11 CURVE SMOOTH",
"251 -11 OFFCURVE",
"318 57 OFFCURVE",
"392 192 CURVE",
"376 136 OFFCURVE",
"366 66 OFFCURVE",
"402 14 CURVE SMOOTH",
"415 -5 OFFCURVE",
"440 -14 OFFCURVE",
"476 -14 CURVE SMOOTH"
);
}
);
width = 716;
}
);
note = w;
unicode = 0077;
},
{
glyphname = x;
lastChange = "2020-12-25 18:04:22 +0000";
layers = (
{
layerId = "1691882E-B915-4755-A5B2-757873D945FF";
paths = (
{
closed = 1;
nodes = (
"60 -60 OFFCURVE",
"134 13 OFFCURVE",
"209 161 CURVE",
"208 154 OFFCURVE",
"208 141 OFFCURVE",
"208 122 CURVE SMOOTH",
"208 59 OFFCURVE",
"245 -10 OFFCURVE",
"317 -10 CURVE SMOOTH",
"353 -10 OFFCURVE",
"372 -7 OFFCURVE",
"410 24 CURVE SMOOTH",
"459 66 OFFCURVE",
"542 205 OFFCURVE",
"565 262 CURVE SMOOTH",
"581 301 OFFCURVE",
"563 308 OFFCURVE",
"543 268 CURVE SMOOTH",
"528 238 OFFCURVE",
"493 177 OFFCURVE",
"435 91 CURVE SMOOTH",
"388 24 OFFCURVE",
"356 18 OFFCURVE",
"325 27 CURVE SMOOTH",
"306 31 OFFCURVE",
"275 47 OFFCURVE",
"267 76 CURVE SMOOTH",
"264 92 OFFCURVE",
"262 109 OFFCURVE",
"262 127 CURVE SMOOTH",
"262 145 OFFCURVE",
"264 164 OFFCURVE",
"267 183 CURVE",
"295 273 OFFCURVE",
"383 378 OFFCURVE",
"442 435 CURVE",
"454 393 OFFCURVE",
"524 405 OFFCURVE",
"536 461 CURVE SMOOTH",
"545 500 OFFCURVE",
"501 503 OFFCURVE",
"478 500 CURVE",
"437 488 OFFCURVE",
"339 390 OFFCURVE",
"286 292 CURVE",
"292 323 OFFCURVE",
"295 350 OFFCURVE",
"295 372 CURVE SMOOTH",
"295 435 OFFCURVE",
"294 473 OFFCURVE",
"249 473 CURVE SMOOTH",
"241 473 LINE SMOOTH",
"219 473 OFFCURVE",
"196 463 OFFCURVE",
"169 440 CURVE SMOOTH",
"141 415 OFFCURVE",
"101 344 OFFCURVE",
"44 227 CURVE SMOOTH",
"30 200 OFFCURVE",
"42 182 OFFCURVE",
"55 204 CURVE SMOOTH",
"69 229 OFFCURVE",
"89 271 OFFCURVE",
"146 373 CURVE SMOOTH",
"198 457 OFFCURVE",
"239 445 OFFCURVE",
"240 399 CURVE SMOOTH",
"240 392 OFFCURVE",
"241 383 OFFCURVE",
"240 373 CURVE SMOOTH",
"240 350 OFFCURVE",
"237 321 OFFCURVE",
"227 286 CURVE SMOOTH",
"191 156 OFFCURVE",
"94 13 OFFCURVE",
"34 -16 CURVE SMOOTH",
"4 -29 OFFCURVE",
"-24 -29 OFFCURVE",
"-37 -19 CURVE SMOOTH",
"-44 -13 OFFCURVE",
"-50 -9 OFFCURVE",
"-55 -12 CURVE SMOOTH",
"-70 -19 OFFCURVE",
"-71 -28 OFFCURVE",
"-64 -38 CURVE SMOOTH",
"-53 -56 OFFCURVE",
"-32 -60 OFFCURVE",
"-12 -60 CURVE SMOOTH"
);
}
);
width = 394;
}
);
note = x;
unicode = 0078;
},
{
glyphname = y;
lastChange = "2020-12-25 20:19:44 +0000";
layers = (
{
anchors = (
{
name = top;
position = "{425, 509}";
}
);
layerId = "1691882E-B915-4755-A5B2-757873D945FF";
paths = (
{
closed = 1;
nodes = (
"499 241 LINE",
"445 26 LINE",
"352 -7 LINE SMOOTH",
"223 -53 OFFCURVE",
"33 -177 OFFCURVE",
"25 -294 CURVE SMOOTH",
"19 -377 OFFCURVE",
"96 -382 OFFCURVE",
"147 -382 CURVE SMOOTH",
"180 -382 OFFCURVE",
"213 -374 OFFCURVE",
"245 -358 CURVE SMOOTH",
"301 -329 OFFCURVE",
"350 -268 OFFCURVE",
"392 -198 CURVE SMOOTH",
"424 -143 OFFCURVE",
"441 -95 OFFCURVE",
"463 -36 CURVE SMOOTH",
"475 -3 LINE",
"532 21 OFFCURVE",
"600 110 OFFCURVE",
"678 267 CURVE",
"692 300 OFFCURVE",
"668 305 OFFCURVE",
"657 279 CURVE SMOOTH",
"617 197 OFFCURVE",
"576 131 OFFCURVE",
"535 80 CURVE SMOOTH",
"516 56 OFFCURVE",
"499 40 OFFCURVE",
"484 32 CURVE",
"494.499 86.918 OFFCURVE",
"545.437 261.848 OFFCURVE",
"567.282 337.658 CURVE",
"579 361 LINE SMOOTH",
"625 452 OFFCURVE",
"636 476 OFFCURVE",
"671 510 CURVE",
"603 510 LINE SMOOTH",
"593 510 OFFCURVE",
"541 401 OFFCURVE",
"524 368 CURVE SMOOTH",
"453 229 OFFCURVE",
"394 137 OFFCURVE",
"351 87 CURVE SMOOTH",
"317 47 OFFCURVE",
"263 27 OFFCURVE",
"241 27 CURVE SMOOTH",
"213 27 OFFCURVE",
"167 43 OFFCURVE",
"167 87 CURVE SMOOTH",
"167 126 OFFCURVE",
"196 198 OFFCURVE",
"229 274 CURVE SMOOTH",
"281 394 OFFCURVE",
"332 485 OFFCURVE",
"376 510 CURVE",
"331 510 LINE SMOOTH",
"302 510 OFFCURVE",
"286 499 OFFCURVE",
"273 478 CURVE SMOOTH",
"251 444 OFFCURVE",
"211 367 OFFCURVE",
"177 284 CURVE SMOOTH",
"143 201 OFFCURVE",
"120 118 OFFCURVE",
"120 81 CURVE SMOOTH",
"120 54 OFFCURVE",
"138 -5 OFFCURVE",
"219 -5 CURVE SMOOTH",
"321 -5 OFFCURVE",
"398 59 OFFCURVE",
"471 187 CURVE"
);
},
{
closed = 1;
nodes = (
"71 -200 OFFCURVE",
"142 -167 OFFCURVE",
"217 -113 CURVE SMOOTH",
"297 -54 OFFCURVE",
"408 -17 OFFCURVE",
"434 -7 CURVE",
"419 -80 OFFCURVE",
"386 -146 OFFCURVE",
"353 -191 CURVE SMOOTH",
"314 -244 OFFCURVE",
"288 -282 OFFCURVE",
"258 -307 CURVE SMOOTH",
"223 -336 OFFCURVE",
"181 -348 OFFCURVE",
"158 -348 CURVE SMOOTH",
"130 -348 OFFCURVE",
"63 -352 OFFCURVE",
"66 -295 CURVE SMOOTH"
);
}
);
width = 592;
}
);
note = y;
unicode = 0079;
},
{
glyphname = z;
lastChange = "2020-12-25 20:21:34 +0000";
layers = (
{
layerId = "1691882E-B915-4755-A5B2-757873D945FF";
paths = (
{
closed = 1;
nodes = (
"87 -348 OFFCURVE",
"20 -352 OFFCURVE",
"23 -295 CURVE SMOOTH",
"28 -200 OFFCURVE",
"99 -167 OFFCURVE",
"174 -113 CURVE SMOOTH",
"254 -54 OFFCURVE",
"365 -17 OFFCURVE",
"391 -7 CURVE",
"376 -80 OFFCURVE",
"343 -146 OFFCURVE",
"310 -191 CURVE SMOOTH",
"271 -244 OFFCURVE",
"245 -282 OFFCURVE",
"215 -307 CURVE SMOOTH",
"180 -336 OFFCURVE",
"138 -348 OFFCURVE",
"115 -348 CURVE SMOOTH"
);
},
{
closed = 1;
nodes = (
"-24 -377 OFFCURVE",
"53 -382 OFFCURVE",
"104 -382 CURVE SMOOTH",
"137 -382 OFFCURVE",
"170 -374 OFFCURVE",
"202 -358 CURVE SMOOTH",
"258 -329 OFFCURVE",
"307 -268 OFFCURVE",
"349 -198 CURVE SMOOTH",
"381 -143 OFFCURVE",
"398 -95 OFFCURVE",
"420 -36 CURVE SMOOTH",
"432 -3 LINE",
"489 21 OFFCURVE",
"557 110 OFFCURVE",
"635 267 CURVE",
"649 300 OFFCURVE",
"625 305 OFFCURVE",
"614 279 CURVE SMOOTH",
"574 197 OFFCURVE",
"533 131 OFFCURVE",
"492 80 CURVE SMOOTH",
"473 56 OFFCURVE",
"456 40 OFFCURVE",
"441 32 CURVE",
"356 127 OFFCURVE",
"291 147 OFFCURVE",
"237 147 CURVE",
"459 227 OFFCURVE",
"570 321 OFFCURVE",
"570 430 CURVE SMOOTH",
"570 494 OFFCURVE",
"522 523 OFFCURVE",
"456 523 CURVE SMOOTH",
"364 523 OFFCURVE",
"273 468 OFFCURVE",
"183 358 CURVE",
"183 351 LINE",
"194 342 LINE",
"201 342 LINE",
"280 431 OFFCURVE",
"390 475 OFFCURVE",
"449 475 CURVE SMOOTH",
"488 475 OFFCURVE",
"517 458 OFFCURVE",
"517 423 CURVE SMOOTH",
"517 388 OFFCURVE",
"498 353 OFFCURVE",
"473 319 CURVE SMOOTH",
"421 248 OFFCURVE",
"275 181 OFFCURVE",
"122 118 CURVE",
"116 111 LINE",
"117 97 LINE",
"128 93 LINE",
"250 126 OFFCURVE",
"330 101 OFFCURVE",
"401 27 CURVE",
"309 -7 LINE SMOOTH",
"181 -54 OFFCURVE",
"-10 -177 OFFCURVE",
"-18 -294 CURVE SMOOTH"
);
}
);
width = 439;
}
);
note = z;
unicode = 007A;
},
{
glyphname = braceleft;
lastChange = "2020-12-26 00:23:13 +0000";
layers = (
{
layerId = "1691882E-B915-4755-A5B2-757873D945FF";
paths = (
{
closed = 1;
nodes = (
"443 -136 LINE SMOOTH",
"454 -136 OFFCURVE",
"463 -108 OFFCURVE",
"447 -110 CURVE",
"392 -110 OFFCURVE",
"356 -100 OFFCURVE",
"339 -79 CURVE SMOOTH",
"328 -67 OFFCURVE",
"323 -50 OFFCURVE",
"323 -28 CURVE SMOOTH",
"323 -6 OFFCURVE",
"325 17 OFFCURVE",
"330 42 CURVE SMOOTH",
"341 88 OFFCURVE",
"350 124 OFFCURVE",
"356 150 CURVE SMOOTH",
"368 224 OFFCURVE",
"378 294 OFFCURVE",
"358 320 CURVE SMOOTH",
"337 347 OFFCURVE",
"298 373 OFFCURVE",
"234 385 CURVE",
"310 399 OFFCURVE",
"364 424 OFFCURVE",
"394 462 CURVE SMOOTH",
"443 522 OFFCURVE",
"455 628 OFFCURVE",
"480 731 CURVE SMOOTH",
"503 827 OFFCURVE",
"536 864 OFFCURVE",
"653 864 CURVE",
"680 876 OFFCURVE",
"676 896 OFFCURVE",
"659 892 CURVE",
"654 892 LINE SMOOTH",
"575 892 OFFCURVE",
"516 878 OFFCURVE",
"479 850 CURVE SMOOTH",
"451 828 OFFCURVE",
"430 794 OFFCURVE",
"416 747 CURVE SMOOTH",
"400 699 OFFCURVE",
"396 674 OFFCURVE",
"384 618 CURVE SMOOTH",
"373 565 LINE SMOOTH",
"360 504 OFFCURVE",
"343 464 OFFCURVE",
"317 444 CURVE SMOOTH",
"293 424 OFFCURVE",
"247 409 OFFCURVE",
"179 402 CURVE",
"168 389 OFFCURVE",
"164 380 OFFCURVE",
"164 376 CURVE SMOOTH",
"164 372 OFFCURVE",
"166 370 OFFCURVE",
"172 370 CURVE SMOOTH",
"206 370 OFFCURVE",
"232 366 OFFCURVE",
"250 359 CURVE SMOOTH",
"288 342 OFFCURVE",
"308 314 OFFCURVE",
"308 275 CURVE SMOOTH",
"308 232 OFFCURVE",
"304 219 OFFCURVE",
"286 147 CURVE SMOOTH",
"277 111 OFFCURVE",
"271 81 OFFCURVE",
"266 58 CURVE SMOOTH",
"262 36 OFFCURVE",
"260 8 OFFCURVE",
"260 -24 CURVE SMOOTH",
"260 -56 OFFCURVE",
"266 -80 OFFCURVE",
"280 -95 CURVE SMOOTH",
"306 -123 OFFCURVE",
"359 -136 OFFCURVE",
"437 -136 CURVE SMOOTH"
);
}
);
width = 567;
}
);
note = braceleft;
unicode = 007B;
},
{
glyphname = bar;
lastChange = "2020-12-26 00:07:35 +0000";
layers = (
{
layerId = "1691882E-B915-4755-A5B2-757873D945FF";
paths = (
{
closed = 1;
nodes = (
"269 -369 LINE",
"269 807 LINE",
"217 807 LINE",
"217 -369 LINE"
);
}
);
width = 485;
}
);
note = bar;
unicode = 007C;
},
{
glyphname = braceright;
lastChange = "2020-12-26 00:23:22 +0000";
layers = (
{
layerId = "1691882E-B915-4755-A5B2-757873D945FF";
paths = (
{
closed = 1;
nodes = (
"184 -136 LINE SMOOTH",
"263 -136 OFFCURVE",
"321 -123 OFFCURVE",
"360 -95 CURVE SMOOTH",
"418 -55 OFFCURVE",
"455 37 OFFCURVE",
"473 112 CURVE SMOOTH",
"495 215 OFFCURVE",
"527 282 OFFCURVE",
"566 311 CURVE SMOOTH",
"602 339 OFFCURVE",
"649 354 OFFCURVE",
"708 354 CURVE",
"721 366 OFFCURVE",
"727 375 OFFCURVE",
"727 380 CURVE SMOOTH",
"727 384 OFFCURVE",
"725 386 OFFCURVE",
"719 386 CURVE SMOOTH",
"658 392 OFFCURVE",
"619 406 OFFCURVE",
"604 426 CURVE SMOOTH",
"596 436 OFFCURVE",
"592 451 OFFCURVE",
"592 471 CURVE SMOOTH",
"592 511 OFFCURVE",
"605 564 OFFCURVE",
"631 630 CURVE SMOOTH",
"668 727 OFFCURVE",
"679 809 OFFCURVE",
"651 846 CURVE SMOOTH",
"630 874 OFFCURVE",
"579 887 OFFCURVE",
"496 887 CURVE SMOOTH",
"490 887 LINE",
"479 877 OFFCURVE",
"473 870 OFFCURVE",
"473 866 CURVE SMOOTH",
"473 862 OFFCURVE",
"476 860 OFFCURVE",
"483 860 CURVE SMOOTH",
"540 860 OFFCURVE",
"576 849 OFFCURVE",
"591 827 CURVE SMOOTH",
"603 811 OFFCURVE",
"606 776 OFFCURVE",
"591 726 CURVE SMOOTH",
"559 623 LINE SMOOTH",
"550 596 OFFCURVE",
"539 549 OFFCURVE",
"535 520 CURVE SMOOTH",
"532 505 OFFCURVE",
"527 484 OFFCURVE",
"532 470 CURVE SMOOTH",
"551 411 OFFCURVE",
"595 379 OFFCURVE",
"655 369 CURVE",
"585 355 OFFCURVE",
"533 334 OFFCURVE",
"499 303 CURVE SMOOTH",
"454 262 OFFCURVE",
"419 174 OFFCURVE",
"401 104 CURVE SMOOTH",
"378 10 OFFCURVE",
"349 -51 OFFCURVE",
"315 -78 CURVE SMOOTH",
"288 -99 OFFCURVE",
"246 -110 OFFCURVE",
"187 -110 CURVE SMOOTH",
"175 -110 OFFCURVE",
"170 -117 OFFCURVE",
"170 -131 CURVE SMOOTH",
"170 -134 OFFCURVE",
"172 -135 OFFCURVE",
"178 -136 CURVE SMOOTH"
);
}
);
width = 682;
}
);
note = braceright;
unicode = 007D;
},
{
glyphname = asciitilde;
lastChange = "2020-12-26 00:14:48 +0000";
layers = (
{
layerId = "1691882E-B915-4755-A5B2-757873D945FF";
paths = (
{
closed = 1;
nodes = (
"441 473 OFFCURVE",
"488 513 OFFCURVE",
"527 593 CURVE",
"525 598 OFFCURVE",
"517 600 OFFCURVE",
"504 600 CURVE SMOOTH",
"499 600 OFFCURVE",
"496 599 OFFCURVE",
"495 596 CURVE SMOOTH",
"478 561 OFFCURVE",
"454 543 OFFCURVE",
"423 543 CURVE SMOOTH",
"379 543 OFFCURVE",
"313 597 OFFCURVE",
"222 597 CURVE SMOOTH",
"172 597 OFFCURVE",
"126 560 OFFCURVE",
"84 485 CURVE",
"84 483 OFFCURVE",
"87 481 OFFCURVE",
"92 479 CURVE SMOOTH",
"108 474 OFFCURVE",
"117 475 OFFCURVE",
"119 482 CURVE",
"137 515 OFFCURVE",
"158 531 OFFCURVE",
"183 531 CURVE SMOOTH",
"208 531 OFFCURVE",
"244 521 OFFCURVE",
"291 500 CURVE SMOOTH",
"333 482 OFFCURVE",
"365 473 OFFCURVE",
"387 473 CURVE SMOOTH"
);
}
);
width = 485;
}
);
note = asciitilde;
unicode = 007E;
},
{
glyphname = exclamdown;
lastChange = "2020-12-26 00:18:51 +0000";
layers = (
{
layerId = "1691882E-B915-4755-A5B2-757873D945FF";
paths = (
{
closed = 1;
nodes = (
"208 -354 OFFCURVE",
"233 -344 OFFCURVE",
"244 -324 CURVE SMOOTH",
"606 368 LINE",
"607 378 LINE",
"593 379 LINE",
"580 360 OFFCURVE",
"132 -295 OFFCURVE",
"115 -341 CURVE",
"118 -350 LINE",
"125 -352 LINE",
"169 -354 LINE SMOOTH"
);
},
{
closed = 1;
nodes = (
"679 435 OFFCURVE",
"716 459 OFFCURVE",
"716 510 CURVE SMOOTH",
"716 526 OFFCURVE",
"699 552 OFFCURVE",
"666 552 CURVE SMOOTH",
"638 552 OFFCURVE",
"596 531 OFFCURVE",
"596 476 CURVE SMOOTH",
"596 461 OFFCURVE",
"614 435 OFFCURVE",
"646 435 CURVE SMOOTH"
);
}
);
width = 650;
}
);
note = exclamdown;
unicode = 00A1;
},
{
glyphname = cent;
lastChange = "2020-12-26 00:08:40 +0000";
layers = (
{
layerId = "1691882E-B915-4755-A5B2-757873D945FF";
paths = (
{
closed = 1;
nodes = (
"142 -255 OFFCURVE",
"161 -234 OFFCURVE",
"134 -228 CURVE SMOOTH",
"117 -225 OFFCURVE",
"109 -211 OFFCURVE",
"109 -184 CURVE SMOOTH",
"109 -140 OFFCURVE",
"134 -59 OFFCURVE",
"185 60 CURVE SMOOTH",
"205 106 LINE",
"265 108 OFFCURVE",
"316 140 OFFCURVE",
"359 200 CURVE SMOOTH",
"367 209 OFFCURVE",
"357 233 OFFCURVE",
"345 216 CURVE SMOOTH",
"297 156 OFFCURVE",
"252 127 OFFCURVE",
"211 127 CURVE SMOOTH",
"167 127 OFFCURVE",
"145 157 OFFCURVE",
"145 217 CURVE SMOOTH",
"145 278 OFFCURVE",
"169 340 OFFCURVE",
"215 403 CURVE SMOOTH",
"281 491 OFFCURVE",
"360 530 OFFCURVE",
"389 487 CURVE SMOOTH",
"395 477 OFFCURVE",
"397 466 OFFCURVE",
"395 453 CURVE",
"392 463 OFFCURVE",
"371 475 OFFCURVE",
"350 475 CURVE SMOOTH",
"321 475 OFFCURVE",
"297 452 OFFCURVE",
"297 420 CURVE SMOOTH",
"297 388 OFFCURVE",
"321 363 OFFCURVE",
"356 363 CURVE SMOOTH",
"390 363 OFFCURVE",
"419 397 OFFCURVE",
"419 439 CURVE SMOOTH",
"419 480 OFFCURVE",
"395 516 OFFCURVE",
"357 528 CURVE",
"424 691 LINE",
"438 728 LINE SMOOTH",
"447 744 OFFCURVE",
"436 759 OFFCURVE",
"429 759 CURVE SMOOTH",
"422 759 OFFCURVE",
"416 752 OFFCURVE",
"409 736 CURVE SMOOTH",
"326 533 LINE",
"316 533 LINE SMOOTH",
"233 533 OFFCURVE",
"148 454 OFFCURVE",
"107 356 CURVE SMOOTH",
"77 284 OFFCURVE",
"76 242 OFFCURVE",
"76 208 CURVE SMOOTH",
"76 191 OFFCURVE",
"81 172 OFFCURVE",
"93 152 CURVE SMOOTH",
"109 124 OFFCURVE",
"135 109 OFFCURVE",
"173 106 CURVE",
"170 98 OFFCURVE",
"162 80 OFFCURVE",
"149 50 CURVE SMOOTH",
"101 -56 OFFCURVE",
"78 -132 OFFCURVE",
"78 -175 CURVE SMOOTH",
"78 -215 OFFCURVE",
"93 -240 OFFCURVE",
"124 -250 CURVE SMOOTH"
);
}
);
width = 459;
}
);
note = cent;
unicode = 00A2;
},
{
glyphname = sterling;
lastChange = "2020-12-26 00:09:27 +0000";
layers = (
{
layerId = "1691882E-B915-4755-A5B2-757873D945FF";
paths = (
{
closed = 1;
nodes = (
"597 -77 OFFCURVE",
"655 -53 OFFCURVE",
"661 9 CURVE SMOOTH",
"661 10 LINE SMOOTH",
"661 15 OFFCURVE",
"660 18 OFFCURVE",
"657 18 CURVE SMOOTH",
"655 18 OFFCURVE",
"653 16 OFFCURVE",
"653 13 CURVE SMOOTH",
"653 -42 OFFCURVE",
"592 -68 OFFCURVE",
"547 -68 CURVE SMOOTH",
"501 -68 OFFCURVE",
"474 -62 OFFCURVE",
"391 -27 CURVE SMOOTH",
"349 -10 OFFCURVE",
"318 6 OFFCURVE",
"298 20 CURVE",
"378 66 OFFCURVE",
"444 139 OFFCURVE",
"496 239 CURVE",
"522 237 OFFCURVE",
"542 235 OFFCURVE",
"557 235 CURVE SMOOTH",
"572 235 OFFCURVE",
"586 238 OFFCURVE",
"599 243 CURVE SMOOTH",
"610 247 OFFCURVE",
"601 266 OFFCURVE",
"580 259 CURVE",
"570 257 OFFCURVE",
"560 256 OFFCURVE",
"547 256 CURVE SMOOTH",
"535 256 OFFCURVE",
"521 257 OFFCURVE",
"507 259 CURVE",
"538 325 OFFCURVE",
"552 371 OFFCURVE",
"595 432 CURVE SMOOTH",
"635 491 OFFCURVE",
"704 552 OFFCURVE",
"766 552 CURVE SMOOTH",
"791 552 OFFCURVE",
"803 542 OFFCURVE",
"803 521 CURVE SMOOTH",
"803 478 OFFCURVE",
"765 424 OFFCURVE",
"690 363 CURVE SMOOTH",
"674 350 OFFCURVE",
"697 347 OFFCURVE",
"701 356 CURVE",
"827 446 OFFCURVE",
"857 574 OFFCURVE",
"747 574 CURVE SMOOTH",
"655 574 OFFCURVE",
"551 471 OFFCURVE",
"434 268 CURVE",
"420 270 OFFCURVE",
"400 271 OFFCURVE",
"376 271 CURVE SMOOTH",
"352 271 OFFCURVE",
"331 267 OFFCURVE",
"313 258 CURVE SMOOTH",
"311 257 OFFCURVE",
"310 253 OFFCURVE",
"310 247 CURVE SMOOTH",
"310 241 OFFCURVE",
"312 238 OFFCURVE",
"315 238 CURVE",
"321 241 LINE",
"339 247 LINE SMOOTH",
"353 250 OFFCURVE",
"368 251 OFFCURVE",
"381 251 CURVE SMOOTH",
"396 251 OFFCURVE",
"409 251 OFFCURVE",
"423 249 CURVE",
"417 241 OFFCURVE",
"408 221 OFFCURVE",
"371 158 CURVE SMOOTH",
"354 132 OFFCURVE",
"327 79 OFFCURVE",
"276 38 CURVE",
"231 72 OFFCURVE",
"225 79 OFFCURVE",
"185 97 CURVE SMOOTH",
"164 106 OFFCURVE",
"145 110 OFFCURVE",
"128 110 CURVE SMOOTH",
"91 110 OFFCURVE",
"54 91 OFFCURVE",
"54 51 CURVE SMOOTH",
"54 -17 OFFCURVE",
"171 -33 OFFCURVE",
"248 3 CURVE",
"279 -15 OFFCURVE",
"396 -55 OFFCURVE",
"450 -67 CURVE SMOOTH",
"477 -74 OFFCURVE",
"506 -77 OFFCURVE",
"536 -77 CURVE SMOOTH"
);
},
{
closed = 1;
nodes = (
"134 -7 OFFCURVE",
"110 0 OFFCURVE",
"88 14 CURVE SMOOTH",
"71 27 OFFCURVE",
"61 42 OFFCURVE",
"61 60 CURVE SMOOTH",
"61 77 OFFCURVE",
"74 87 OFFCURVE",
"91 87 CURVE SMOOTH",
"114 87 OFFCURVE",
"157 63 OFFCURVE",
"233 12 CURVE",
"211 -1 OFFCURVE",
"186 -7 OFFCURVE",
"160 -7 CURVE SMOOTH"
);
}
);
width = 847;
}
);
note = sterling;
unicode = 00A3;
},
{
glyphname = currency;
lastChange = "2020-12-26 00:08:52 +0000";
layers = (
{
layerId = "1691882E-B915-4755-A5B2-757873D945FF";
paths = (
{
closed = 1;
nodes = (
"387 230 LINE",
"416 212 OFFCURVE",
"450 203 OFFCURVE",
"486 203 CURVE SMOOTH",
"523 203 OFFCURVE",
"559 212 OFFCURVE",
"594 231 CURVE",
"781 79 LINE",
"654 275 LINE",
"690 315 OFFCURVE",
"707 357 OFFCURVE",
"707 400 CURVE SMOOTH",
"707 423 OFFCURVE",
"702 443 OFFCURVE",
"692 460 CURVE",
"911 666 LINE",
"650 510 LINE",
"624 529 OFFCURVE",
"593 539 OFFCURVE",
"554 539 CURVE SMOOTH",
"516 539 OFFCURVE",
"479 529 OFFCURVE",
"443 510 CURVE",
"258 659 LINE",
"383 464 LINE",
"347 428 OFFCURVE",
"330 385 OFFCURVE",
"330 335 CURVE SMOOTH",
"330 314 OFFCURVE",
"334 295 OFFCURVE",
"344 277 CURVE",
"128 72 LINE"
);
},
{
closed = 1;
nodes = (
"460 246 OFFCURVE",
"398 296 OFFCURVE",
"398 367 CURVE SMOOTH",
"398 403 OFFCURVE",
"410 433 OFFCURVE",
"436 457 CURVE SMOOTH",
"488 506 OFFCURVE",
"556 506 OFFCURVE",
"605 458 CURVE SMOOTH",
"629 435 OFFCURVE",
"640 406 OFFCURVE",
"640 371 CURVE SMOOTH",
"640 301 OFFCURVE",
"577 246 OFFCURVE",
"513 246 CURVE SMOOTH"
);
}
);
width = 933;
}
);
note = currency;
unicode = 00A4;
},
{
glyphname = yen;
lastChange = "2020-12-26 00:09:51 +0000";
layers = (
{
layerId = "1691882E-B915-4755-A5B2-757873D945FF";
paths = (
{
closed = 1;
nodes = (
"159 -170 OFFCURVE",
"215 -148 OFFCURVE",
"270 -104 CURVE SMOOTH",
"320 -63 OFFCURVE",
"379 9 OFFCURVE",
"448 112 CURVE",
"568 112 LINE",
"588 119 OFFCURVE",
"597 148 OFFCURVE",
"587 139 CURVE",
"465 139 LINE",
"529 252 LINE",
"649 252 LINE SMOOTH",
"662 252 OFFCURVE",
"675 272 OFFCURVE",
"668 278 CURVE",
"543 278 LINE",
"553 295 LINE SMOOTH",
"671 502 OFFCURVE",
"758 605 OFFCURVE",
"817 605 CURVE SMOOTH",
"851 605 OFFCURVE",
"880 574 OFFCURVE",
"880 540 CURVE",
"878 526 LINE",
"878 520 OFFCURVE",
"881 518 OFFCURVE",
"887 518 CURVE SMOOTH",
"893 518 OFFCURVE",
"896 527 OFFCURVE",
"896 545 CURVE SMOOTH",
"896 582 OFFCURVE",
"859 621 OFFCURVE",
"819 621 CURVE SMOOTH",
"778 621 OFFCURVE",
"727 587 OFFCURVE",
"691 551 CURVE SMOOTH",
"673 533 OFFCURVE",
"652 509 OFFCURVE",
"630 480 CURVE SMOOTH",
"583 421 OFFCURVE",
"570 398 OFFCURVE",
"551 368 CURVE SMOOTH",
"519 320 OFFCURVE",
"479 279 OFFCURVE",
"479 252 CURVE",
"455 216 LINE",
"448 327 OFFCURVE",
"414 420 OFFCURVE",
"349 497 CURVE SMOOTH",
"313 539 OFFCURVE",
"271 560 OFFCURVE",
"224 560 CURVE SMOOTH",
"156 560 OFFCURVE",
"108 482 OFFCURVE",
"108 410 CURVE SMOOTH",
"108 374 OFFCURVE",
"119 342 OFFCURVE",
"139 314 CURVE SMOOTH",
"142 312 OFFCURVE",
"144 310 OFFCURVE",
"146 310 CURVE SMOOTH",
"151 310 OFFCURVE",
"154 313 OFFCURVE",
"154 319 CURVE",
"114 392 OFFCURVE",
"113 441 OFFCURVE",
"151 500 CURVE SMOOTH",
"171 529 OFFCURVE",
"194 544 OFFCURVE",
"221 544 CURVE SMOOTH",
"275 544 OFFCURVE",
"319 500 OFFCURVE",
"347 440 CURVE SMOOTH",
"373 383 OFFCURVE",
"391 329 OFFCURVE",
"399 278 CURVE",
"251 278 LINE SMOOTH",
"237 278 OFFCURVE",
"224 252 OFFCURVE",
"234 252 CURVE SMOOTH",
"403 252 LINE",
"408 211 OFFCURVE",
"411 176 OFFCURVE",
"411 148 CURVE",
"405 139 LINE",
"132 139 LINE",
"112 132 OFFCURVE",
"103 102 OFFCURVE",
"115 112 CURVE",
"387 112 LINE",
"349 55 OFFCURVE",
"309 2 OFFCURVE",
"267 -49 CURVE SMOOTH",
"208 -119 OFFCURVE",
"151 -154 OFFCURVE",
"99 -154 CURVE SMOOTH",
"88 -154 OFFCURVE",
"82 -157 OFFCURVE",
"82 -162 CURVE SMOOTH",
"82 -167 OFFCURVE",
"90 -170 OFFCURVE",
"105 -170 CURVE SMOOTH"
);
}
);
width = 942;
}
);
note = yen;
unicode = 00A5;
},
{
glyphname = brokenbar;
lastChange = "2020-12-26 00:07:49 +0000";
layers = (
{
layerId = "1691882E-B915-4755-A5B2-757873D945FF";
paths = (
{
closed = 1;
nodes = (
"204 -369 LINE",
"314 168 LINE",
"257 173 LINE",
"142 -369 LINE"
);
},
{
closed = 1;
nodes = (
"454 807 LINE",
"392 807 LINE",
"284 301 LINE",
"341 295 LINE"
);
}
);
width = 485;
}
);
note = brokenbar;
unicode = 00A6;
},
{
glyphname = section;
lastChange = "2020-12-26 00:03:27 +0000";
layers = (
{
layerId = "1691882E-B915-4755-A5B2-757873D945FF";
paths = (
{
closed = 1;
nodes = (
"235 -379 OFFCURVE",
"291 -370 OFFCURVE",
"344 -352 CURVE SMOOTH",
"407 -329 OFFCURVE",
"453 -295 OFFCURVE",
"481 -249 CURVE SMOOTH",
"494 -226 OFFCURVE",
"501 -203 OFFCURVE",
"501 -180 CURVE SMOOTH",
"501 -157 OFFCURVE",
"494 -134 OFFCURVE",
"478 -110 CURVE",
"492 -104 OFFCURVE",
"510 -95 OFFCURVE",
"530 -83 CURVE SMOOTH",
"602 -39 OFFCURVE",
"655 12 OFFCURVE",
"693 71 CURVE SMOOTH",
"714 105 OFFCURVE",
"725 137 OFFCURVE",
"725 169 CURVE SMOOTH",
"725 214 OFFCURVE",
"700 270 OFFCURVE",
"625 316 CURVE SMOOTH",
"600 331 OFFCURVE",
"560 351 OFFCURVE",
"506 376 CURVE SMOOTH",
"452 400 OFFCURVE",
"416 418 OFFCURVE",
"398 429 CURVE SMOOTH",
"350 459 OFFCURVE",
"327 493 OFFCURVE",
"327 531 CURVE SMOOTH",
"327 559 OFFCURVE",
"343 587 OFFCURVE",
"375 615 CURVE SMOOTH",
"396 633 OFFCURVE",
"421 647 OFFCURVE",
"450 658 CURVE SMOOTH",
"505 677 OFFCURVE",
"556 688 OFFCURVE",
"601 688 CURVE SMOOTH",
"653 688 OFFCURVE",
"693 673 OFFCURVE",
"723 645 CURVE SMOOTH",
"743 625 OFFCURVE",
"753 604 OFFCURVE",
"753 582 CURVE SMOOTH",
"753 575 OFFCURVE",
"753 569 OFFCURVE",
"751 562 CURVE SMOOTH",
"744 535 OFFCURVE",
"725 519 OFFCURVE",
"694 515 CURVE SMOOTH",
"677 514 OFFCURVE",
"669 508 OFFCURVE",
"670 500 CURVE SMOOTH",
"671 494 OFFCURVE",
"678 493 OFFCURVE",
"689 496 CURVE SMOOTH",
"716 504 OFFCURVE",
"737 514 OFFCURVE",
"753 527 CURVE SMOOTH",
"776 547 OFFCURVE",
"788 569 OFFCURVE",
"788 594 CURVE SMOOTH",
"788 601 OFFCURVE",
"787 607 OFFCURVE",
"786 613 CURVE SMOOTH",
"771 679 OFFCURVE",
"702 711 OFFCURVE",
"583 711 CURVE SMOOTH",
"523 711 OFFCURVE",
"467 702 OFFCURVE",
"414 684 CURVE SMOOTH",
"351 661 OFFCURVE",
"305 627 OFFCURVE",
"277 580 CURVE SMOOTH",
"263 558 OFFCURVE",
"256 535 OFFCURVE",
"256 511 CURVE SMOOTH",
"256 488 OFFCURVE",
"264 464 OFFCURVE",
"280 441 CURVE",
"262 433 OFFCURVE",
"245 425 OFFCURVE",
"229 415 CURVE SMOOTH",
"156 371 OFFCURVE",
"103 321 OFFCURVE",
"65 261 CURVE SMOOTH",
"44 227 OFFCURVE",
"33 195 OFFCURVE",
"33 163 CURVE SMOOTH",
"33 118 OFFCURVE",
"58 62 OFFCURVE",
"133 16 CURVE SMOOTH",
"158 1 OFFCURVE",
"198 -19 OFFCURVE",
"252 -44 CURVE SMOOTH",
"306 -68 OFFCURVE",
"342 -86 OFFCURVE",
"360 -97 CURVE SMOOTH",
"408 -127 OFFCURVE",
"432 -161 OFFCURVE",
"432 -199 CURVE SMOOTH",
"432 -227 OFFCURVE",
"415 -255 OFFCURVE",
"383 -283 CURVE SMOOTH",
"362 -301 OFFCURVE",
"337 -315 OFFCURVE",
"308 -326 CURVE SMOOTH",
"253 -345 OFFCURVE",
"202 -356 OFFCURVE",
"158 -356 CURVE SMOOTH",
"106 -356 OFFCURVE",
"65 -341 OFFCURVE",
"35 -313 CURVE SMOOTH",
"15 -293 OFFCURVE",
"5 -272 OFFCURVE",
"5 -250 CURVE SMOOTH",
"5 -243 OFFCURVE",
"5 -237 OFFCURVE",
"7 -230 CURVE SMOOTH",
"14 -203 OFFCURVE",
"33 -187 OFFCURVE",
"64 -183 CURVE SMOOTH",
"81 -182 OFFCURVE",
"89 -176 OFFCURVE",
"88 -168 CURVE SMOOTH",
"87 -162 OFFCURVE",
"81 -161 OFFCURVE",
"69 -164 CURVE SMOOTH",
"42 -172 OFFCURVE",
"21 -182 OFFCURVE",
"5 -195 CURVE SMOOTH",
"-18 -215 OFFCURVE",
"-30 -237 OFFCURVE",
"-30 -262 CURVE SMOOTH",
"-30 -269 OFFCURVE",
"-29 -275 OFFCURVE",
"-28 -281 CURVE SMOOTH",
"-13 -347 OFFCURVE",
"56 -379 OFFCURVE",
"175 -379 CURVE SMOOTH"
);
},
{
closed = 1;
nodes = (
"394 -27 OFFCURVE",
"270 -13 OFFCURVE",
"169 66 CURVE SMOOTH",
"129 99 OFFCURVE",
"110 138 OFFCURVE",
"110 181 CURVE SMOOTH",
"110 201 OFFCURVE",
"114 220 OFFCURVE",
"122 241 CURVE SMOOTH",
"146 310 OFFCURVE",
"200 366 OFFCURVE",
"282 410 CURVE SMOOTH",
"300 419 LINE",
"321 398 OFFCURVE",
"374 370 OFFCURVE",
"460 333 CURVE SMOOTH",
"525 305 OFFCURVE",
"568 282 OFFCURVE",
"590 266 CURVE SMOOTH",
"629 233 OFFCURVE",
"648 194 OFFCURVE",
"648 151 CURVE SMOOTH",
"648 131 OFFCURVE",
"644 112 OFFCURVE",
"636 91 CURVE SMOOTH",
"612 22 OFFCURVE",
"559 -34 OFFCURVE",
"476 -78 CURVE SMOOTH",
"458 -87 LINE"
);
}
);
width = 780;
}
);
note = section;
unicode = 00A7;
},
{
glyphname = dieresis;
lastChange = "2020-12-24 21:51:14 +0000";
layers = (
{
anchors = (
{
name = _top;
position = "{145, 511}";
}
);
layerId = "1691882E-B915-4755-A5B2-757873D945FF";
paths = (
{
closed = 1;
nodes = (
"258 652 OFFCURVE",
"275 670 OFFCURVE",
"275 695 CURVE SMOOTH",
"275 720 OFFCURVE",
"256 737 OFFCURVE",
"232 737 CURVE SMOOTH",
"207 737 OFFCURVE",
"190 718 OFFCURVE",
"190 693 CURVE SMOOTH",
"190 668 OFFCURVE",
"208 652 OFFCURVE",
"233 652 CURVE SMOOTH"
);
},
{
closed = 1;
nodes = (
"65 650 OFFCURVE",
"83 669 OFFCURVE",
"83 695 CURVE SMOOTH",
"83 721 OFFCURVE",
"64 739 OFFCURVE",
"38 739 CURVE SMOOTH",
"12 739 OFFCURVE",
"-6 719 OFFCURVE",
"-6 693 CURVE SMOOTH",
"-6 667 OFFCURVE",
"14 650 OFFCURVE",
"40 650 CURVE SMOOTH"
);
}
);
width = 278;
}
);
note = dieresis;
unicode = 00A8;
},
{
glyphname = copyright;
lastChange = "2020-12-26 00:05:32 +0000";
layers = (
{
layerId = "1691882E-B915-4755-A5B2-757873D945FF";
paths = (
{
closed = 1;
nodes = (
"570 -95 OFFCURVE",
"669 -58 OFFCURVE",
"759 14 CURVE SMOOTH",
"858 94 OFFCURVE",
"908 190 OFFCURVE",
"908 302 CURVE SMOOTH",
"908 459 OFFCURVE",
"769 602 OFFCURVE",
"549 602 CURVE SMOOTH",
"439 602 OFFCURVE",
"339 564 OFFCURVE",
"249 492 CURVE SMOOTH",
"149 412 OFFCURVE",
"100 317 OFFCURVE",
"100 205 CURVE SMOOTH",
"100 44 OFFCURVE",
"239 -95 OFFCURVE",
"460 -95 CURVE SMOOTH"
);
},
{
closed = 1;
nodes = (
"510 74 OFFCURVE",
"562 105 OFFCURVE",
"602 169 CURVE",
"614 197 OFFCURVE",
"588 193 OFFCURVE",
"583 179 CURVE",
"545 122 OFFCURVE",
"503 93 OFFCURVE",
"457 93 CURVE SMOOTH",
"414 93 OFFCURVE",
"395 125 OFFCURVE",
"395 173 CURVE SMOOTH",
"395 273 OFFCURVE",
"497 422 OFFCURVE",
"563 422 CURVE SMOOTH",
"579 422 OFFCURVE",
"588 413 OFFCURVE",
"588 394 CURVE SMOOTH",
"588 369 OFFCURVE",
"575 343 OFFCURVE",
"552 317 CURVE",
"557 312 OFFCURVE",
"562 309 OFFCURVE",
"568 309 CURVE SMOOTH",
"575 309 OFFCURVE",
"583 313 OFFCURVE",
"593 322 CURVE SMOOTH",
"612 339 OFFCURVE",
"620 359 OFFCURVE",
"620 382 CURVE SMOOTH",
"620 417 OFFCURVE",
"600 444 OFFCURVE",
"549 444 CURVE SMOOTH",
"497 444 OFFCURVE",
"452 417 OFFCURVE",
"410 362 CURVE SMOOTH",
"370 308 OFFCURVE",
"338 228 OFFCURVE",
"338 169 CURVE SMOOTH",
"338 119 OFFCURVE",
"369 74 OFFCURVE",
"445 74 CURVE SMOOTH"
);
},
{
closed = 1;
nodes = (
"272 -77 OFFCURVE",
"154 55 OFFCURVE",
"154 203 CURVE SMOOTH",
"154 310 OFFCURVE",
"198 403 OFFCURVE",
"288 482 CURVE SMOOTH",
"364 549 OFFCURVE",
"452 583 OFFCURVE",
"552 583 CURVE SMOOTH",
"734 583 OFFCURVE",
"854 450 OFFCURVE",
"854 302 CURVE SMOOTH",
"854 194 OFFCURVE",
"809 102 OFFCURVE",
"720 24 CURVE SMOOTH",
"643 -43 OFFCURVE",
"554 -77 OFFCURVE",
"452 -77 CURVE SMOOTH"
);
}
);
width = 961;
}
);
note = copyright;
unicode = 00A9;
},
{
glyphname = ordfeminine;
lastChange = "2020-12-26 02:12:36 +0000";
layers = (
{
layerId = "1691882E-B915-4755-A5B2-757873D945FF";
paths = (
{
closed = 1;
nodes = (
"74 456 OFFCURVE",
"108 489 OFFCURVE",
"148 554 CURVE",
"132 487 OFFCURVE",
"153 447 OFFCURVE",
"183 458 CURVE",
"214 458 OFFCURVE",
"253 504 OFFCURVE",
"300 597 CURVE",
"307 609 OFFCURVE",
"297 621 OFFCURVE",
"289 603 CURVE SMOOTH",
"246 519 OFFCURVE",
"214 477 OFFCURVE",
"193 477 CURVE SMOOTH",
"192 477 LINE SMOOTH",
"185 477 OFFCURVE",
"181 487 OFFCURVE",
"181 506 CURVE SMOOTH",
"181 525 OFFCURVE",
"193 557 OFFCURVE",
"216 602 CURVE SMOOTH",
"233 634 OFFCURVE",
"246 654 OFFCURVE",
"255 662 CURVE",
"203 649 OFFCURVE",
"216 700 OFFCURVE",
"172 617 CURVE SMOOTH",
"122 525 OFFCURVE",
"83 479 OFFCURVE",
"54 479 CURVE SMOOTH",
"41 479 OFFCURVE",
"34 488 OFFCURVE",
"34 508 CURVE SMOOTH",
"34 527 OFFCURVE",
"45 556 OFFCURVE",
"67 593 CURVE SMOOTH",
"115 670 OFFCURVE",
"160 708 OFFCURVE",
"202 708 CURVE SMOOTH",
"215 708 OFFCURVE",
"225 699 OFFCURVE",
"231 681 CURVE",
"243 677 OFFCURVE",
"248 692 OFFCURVE",
"238 702 CURVE SMOOTH",
"222 718 OFFCURVE",
"203 726 OFFCURVE",
"180 726 CURVE SMOOTH",
"136 726 OFFCURVE",
"97 707 OFFCURVE",
"64 668 CURVE SMOOTH",
"21 616 OFFCURVE",
"0 566 OFFCURVE",
"0 519 CURVE SMOOTH",
"0 481 OFFCURVE",
"23 456 OFFCURVE",
"45 456 CURVE SMOOTH"
);
}
);
width = 304;
}
);
note = ordfeminine;
unicode = 00AA;
},
{
glyphname = logicalnot;
lastChange = "2020-12-26 00:14:48 +0000";
layers = (
{
layerId = "1691882E-B915-4755-A5B2-757873D945FF";
paths = (
{
closed = 1;
nodes = (
"905 28 OFFCURVE",
"918 39 OFFCURVE",
"921 61 CURVE",
"998 423 LINE",
"145 423 LINE SMOOTH",
"129 423 OFFCURVE",
"100 388 OFFCURVE",
"100 370 CURVE SMOOTH",
"100 357 OFFCURVE",
"111 351 OFFCURVE",
"130 351 CURVE SMOOTH",
"914 351 LINE",
"852 61 LINE",
"850 45 OFFCURVE",
"864 28 OFFCURVE",
"881 28 CURVE SMOOTH"
);
}
);
width = 987;
}
);
note = logicalnot;
unicode = 00AC;
},
{
glyphname = registered;
lastChange = "2020-12-26 00:05:49 +0000";
layers = (
{
layerId = "1691882E-B915-4755-A5B2-757873D945FF";
paths = (
{
closed = 1;
nodes = (
"540 -114 OFFCURVE",
"640 -78 OFFCURVE",
"728 -6 CURVE SMOOTH",
"828 75 OFFCURVE",
"877 171 OFFCURVE",
"877 282 CURVE SMOOTH",
"877 439 OFFCURVE",
"739 581 OFFCURVE",
"519 581 CURVE SMOOTH",
"409 581 OFFCURVE",
"308 544 OFFCURVE",
"219 472 CURVE SMOOTH",
"120 392 OFFCURVE",
"71 296 OFFCURVE",
"71 186 CURVE SMOOTH",
"71 24 OFFCURVE",
"209 -114 OFFCURVE",
"430 -114 CURVE SMOOTH"
);
},
{
closed = 1;
nodes = (
"242 -97 OFFCURVE",
"124 36 OFFCURVE",
"124 183 CURVE SMOOTH",
"124 290 OFFCURVE",
"168 383 OFFCURVE",
"257 461 CURVE SMOOTH",
"334 529 OFFCURVE",
"422 563 OFFCURVE",
"522 563 CURVE SMOOTH",
"704 563 OFFCURVE",
"824 430 OFFCURVE",
"824 281 CURVE SMOOTH",
"824 175 OFFCURVE",
"779 82 OFFCURVE",
"690 4 CURVE SMOOTH",
"613 -64 OFFCURVE",
"524 -97 OFFCURVE",
"421 -97 CURVE SMOOTH"
);
},
{
closed = 1;
nodes = (
"332 56 OFFCURVE",
"378 74 OFFCURVE",
"412 112 CURVE SMOOTH",
"440 141 OFFCURVE",
"469 188 OFFCURVE",
"500 250 CURVE",
"503 229 LINE SMOOTH",
"510 178 OFFCURVE",
"520 139 OFFCURVE",
"536 111 CURVE SMOOTH",
"557 75 OFFCURVE",
"584 56 OFFCURVE",
"620 56 CURVE SMOOTH",
"642 56 OFFCURVE",
"659 64 OFFCURVE",
"672 76 CURVE SMOOTH",
"685 90 OFFCURVE",
"704 120 OFFCURVE",
"728 169 CURVE SMOOTH",
"731 177 OFFCURVE",
"726 182 OFFCURVE",
"718 169 CURVE",
"690 108 OFFCURVE",
"661 77 OFFCURVE",
"632 77 CURVE SMOOTH",
"617 77 OFFCURVE",
"601 90 OFFCURVE",
"584 116 CURVE SMOOTH",
"557 156 OFFCURVE",
"539 206 OFFCURVE",
"529 264 CURVE",
"584 264 OFFCURVE",
"632 274 OFFCURVE",
"673 293 CURVE SMOOTH",
"718 315 OFFCURVE",
"740 340 OFFCURVE",
"740 370 CURVE SMOOTH",
"740 403 OFFCURVE",
"713 427 OFFCURVE",
"659 443 CURVE SMOOTH",
"653 444 OFFCURVE",
"644 446 OFFCURVE",
"632 448 CURVE SMOOTH",
"610 452 LINE",
"612 463 OFFCURVE",
"612 468 OFFCURVE",
"608 468 CURVE SMOOTH",
"606 468 OFFCURVE",
"600 464 OFFCURVE",
"592 455 CURVE",
"537 464 OFFCURVE",
"470 465 OFFCURVE",
"392 452 CURVE SMOOTH",
"300 439 OFFCURVE",
"227 379 OFFCURVE",
"227 313 CURVE SMOOTH",
"227 241 OFFCURVE",
"314 215 OFFCURVE",
"366 269 CURVE",
"376 278 OFFCURVE",
"383 288 OFFCURVE",
"384 299 CURVE SMOOTH",
"385 310 OFFCURVE",
"385 316 OFFCURVE",
"382 316 CURVE SMOOTH",
"378 316 OFFCURVE",
"376 293 OFFCURVE",
"358 275 CURVE SMOOTH",
"344 260 OFFCURVE",
"326 253 OFFCURVE",
"306 253 CURVE SMOOTH",
"272 253 OFFCURVE",
"251 281 OFFCURVE",
"251 300 CURVE SMOOTH",
"251 310 OFFCURVE",
"251 317 OFFCURVE",
"252 323 CURVE SMOOTH",
"263 369 OFFCURVE",
"314 415 OFFCURVE",
"398 432 CURVE SMOOTH",
"480 449 OFFCURVE",
"536 447 OFFCURVE",
"581 443 CURVE",
"563 424 OFFCURVE",
"544 396 OFFCURVE",
"522 359 CURVE SMOOTH",
"495 310 OFFCURVE",
"456 218 OFFCURVE",
"378 126 CURVE SMOOTH",
"332 73 OFFCURVE",
"263 56 OFFCURVE",
"233 84 CURVE SMOOTH",
"212 105 OFFCURVE",
"222 149 OFFCURVE",
"259 149 CURVE SMOOTH",
"300 149 OFFCURVE",
"325 137 OFFCURVE",
"298 149 CURVE SMOOTH",
"282 155 OFFCURVE",
"267 157 OFFCURVE",
"253 157 CURVE SMOOTH",
"240 157 OFFCURVE",
"228 155 OFFCURVE",
"217 150 CURVE SMOOTH",
"198 140 OFFCURVE",
"188 128 OFFCURVE",
"188 111 CURVE SMOOTH",
"188 74 OFFCURVE",
"217 56 OFFCURVE",
"275 56 CURVE SMOOTH"
);
},
{
closed = 1;
nodes = (
"545 319 OFFCURVE",
"574 372 OFFCURVE",
"613 437 CURVE",
"655 431 OFFCURVE",
"666 428 OFFCURVE",
"684 413 CURVE SMOOTH",
"704 398 OFFCURVE",
"703 372 OFFCURVE",
"683 342 CURVE SMOOTH",
"660 310 OFFCURVE",
"627 291 OFFCURVE",
"584 286 CURVE SMOOTH",
"527 280 LINE"
);
}
);
width = 961;
}
);
note = registered;
unicode = 00AE;
},
{
glyphname = macron;
lastChange = "2020-12-23 11:07:08 +0000";
layers = (
{
layerId = "1691882E-B915-4755-A5B2-757873D945FF";
paths = (
{
closed = 1;
nodes = (
"448 484 LINE",
"466 529 LINE",
"146 529 LINE",
"127 484 LINE"
);
}
);
width = 485;
}
);
note = macron;
unicode = 00AF;
},
{
glyphname = degree;
lastChange = "2020-12-26 00:07:15 +0000";
layers = (
{
layerId = "1691882E-B915-4755-A5B2-757873D945FF";
paths = (
{
closed = 1;
nodes = (
"216 672 OFFCURVE",
"259 714 OFFCURVE",
"259 767 CURVE SMOOTH",
"259 820 OFFCURVE",
"215 864 OFFCURVE",
"163 864 CURVE SMOOTH",
"111 864 OFFCURVE",
"67 820 OFFCURVE",
"67 767 CURVE SMOOTH",
"67 714 OFFCURVE",
"106 672 OFFCURVE",
"161 672 CURVE SMOOTH"
);
},
{
closed = 1;
nodes = (
"132 691 OFFCURVE",
"90 711 OFFCURVE",
"90 761 CURVE SMOOTH",
"90 809 OFFCURVE",
"121 840 OFFCURVE",
"162 840 CURVE SMOOTH",
"203 840 OFFCURVE",
"234 806 OFFCURVE",
"234 767 CURVE SMOOTH",
"234 728 OFFCURVE",
"198 691 OFFCURVE",
"165 691 CURVE SMOOTH"
);
}
);
width = 323;
}
);
note = degree;
unicode = 00B0;
},
{
glyphname = plusminus;
lastChange = "2020-12-26 00:14:48 +0000";
layers = (
{
layerId = "1691882E-B915-4755-A5B2-757873D945FF";
paths = (
{
closed = 1;
nodes = (
"270 152 OFFCURVE",
"275 152 OFFCURVE",
"279 154 CURVE SMOOTH",
"297 157 OFFCURVE",
"307 164 OFFCURVE",
"308 173 CURVE SMOOTH",
"309 184 OFFCURVE",
"315 220 OFFCURVE",
"325 280 CURVE SMOOTH",
"335 337 LINE",
"495 344 LINE SMOOTH",
"512 344 OFFCURVE",
"520 349 OFFCURVE",
"520 360 CURVE SMOOTH",
"520 366 OFFCURVE",
"516 377 OFFCURVE",
"499 377 CURVE SMOOTH",
"343 377 LINE",
"361 476 OFFCURVE",
"372 533 OFFCURVE",
"377 551 CURVE SMOOTH",
"382 568 OFFCURVE",
"379 577 OFFCURVE",
"371 577 CURVE SMOOTH",
"359 577 OFFCURVE",
"350 568 OFFCURVE",
"344 550 CURVE SMOOTH",
"340 534 OFFCURVE",
"333 505 OFFCURVE",
"323 464 CURVE SMOOTH",
"314 421 OFFCURVE",
"307 392 OFFCURVE",
"303 378 CURVE",
"136 382 LINE",
"120 380 OFFCURVE",
"111 368 OFFCURVE",
"109 347 CURVE",
"110 331 OFFCURVE",
"114 323 OFFCURVE",
"122 324 CURVE SMOOTH",
"134 325 OFFCURVE",
"161 328 OFFCURVE",
"202 329 CURVE SMOOTH",
"243 332 OFFCURVE",
"273 333 OFFCURVE",
"292 335 CURVE",
"263 227 OFFCURVE",
"249 171 OFFCURVE",
"249 167 CURVE SMOOTH",
"249 157 OFFCURVE",
"255 152 OFFCURVE",
"266 152 CURVE SMOOTH"
);
},
{
closed = 1;
nodes = (
"117 59 LINE SMOOTH",
"206 69 OFFCURVE",
"311 75 OFFCURVE",
"434 75 CURVE SMOOTH",
"447 76 OFFCURVE",
"455 80 OFFCURVE",
"455 87 CURVE SMOOTH",
"455 92 LINE",
"451 102 OFFCURVE",
"443 107 OFFCURVE",
"429 107 CURVE SMOOTH",
"117 116 LINE SMOOTH",
"103 116 OFFCURVE",
"97 108 OFFCURVE",
"97 92 CURVE SMOOTH",
"97 78 OFFCURVE",
"106 59 OFFCURVE",
"116 59 CURVE SMOOTH"
);
}
);
width = 458;
}
);
note = plusminus;
unicode = 00B1;
},
{
glyphname = threesuperior;
lastChange = "2020-12-27 03:04:45 +0000";
layers = (
{
layerId = "1691882E-B915-4755-A5B2-757873D945FF";
paths = (
{
closed = 1;
nodes = (
"24 248 OFFCURVE",
"2 252 OFFCURVE",
"-18 262 CURVE",
"-24 260 LINE",
"-30 255 LINE",
"-30 250 LINE",
"16 216 OFFCURVE",
"96 218 OFFCURVE",
"181 260 CURVE SMOOTH",
"225 283 OFFCURVE",
"262 312 OFFCURVE",
"295 351 CURVE SMOOTH",
"328 388 OFFCURVE",
"344 428 OFFCURVE",
"344 461 CURVE SMOOTH",
"344 530 OFFCURVE",
"277 552 OFFCURVE",
"214 552 CURVE",
"272 572 OFFCURVE",
"318 595 OFFCURVE",
"353 619 CURVE SMOOTH",
"402 653 OFFCURVE",
"427 692 OFFCURVE",
"427 732 CURVE SMOOTH",
"427 773 OFFCURVE",
"396 792 OFFCURVE",
"354 792 CURVE SMOOTH",
"295 792 OFFCURVE",
"237 757 OFFCURVE",
"179 687 CURVE",
"179 682 LINE",
"186 676 LINE",
"190 676 LINE",
"251 744 OFFCURVE",
"313 764 OFFCURVE",
"351 762 CURVE SMOOTH",
"373 761 OFFCURVE",
"379 748 OFFCURVE",
"379 732 CURVE SMOOTH",
"379 695 OFFCURVE",
"358 663 OFFCURVE",
"327 636 CURVE SMOOTH",
"275 588 OFFCURVE",
"194 556 OFFCURVE",
"140 533 CURVE",
"136 528 LINE",
"137 520 LINE",
"144 517 LINE",
"276 533 OFFCURVE",
"296 488 OFFCURVE",
"296 464 CURVE SMOOTH",
"296 439 OFFCURVE",
"286 400 OFFCURVE",
"247 362 CURVE SMOOTH",
"214 329 OFFCURVE",
"175 296 OFFCURVE",
"133 275 CURVE SMOOTH",
"99 258 OFFCURVE",
"69 248 OFFCURVE",
"49 248 CURVE SMOOTH"
);
}
);
width = 366;
}
);
note = threesuperior;
unicode = 00B3;
},
{
glyphname = acute;
lastChange = "2020-12-24 21:49:19 +0000";
layers = (
{
anchors = (
{
name = _top;
position = "{152, 519}";
}
);
layerId = "1691882E-B915-4755-A5B2-757873D945FF";
paths = (
{
closed = 1;
nodes = (
"17 603 OFFCURVE",
"264 713 OFFCURVE",
"274 737 CURVE SMOOTH",
"288 764 OFFCURVE",
"270 761 OFFCURVE",
"227 763 CURVE SMOOTH",
"198 763 OFFCURVE",
"171 738 OFFCURVE",
"4 625 CURVE SMOOTH",
"-28 603 OFFCURVE",
"-10 602 OFFCURVE",
"-5 603 CURVE SMOOTH"
);
}
);
width = 267;
}
);
note = acute;
unicode = 00B4;
},
{
glyphname = paragraph;
lastChange = "2020-12-26 00:02:42 +0000";
layers = (
{
layerId = "1691882E-B915-4755-A5B2-757873D945FF";
paths = (
{
closed = 1;
nodes = (
"165 3 LINE",
"378 583 LINE",
"425 583 LINE",
"213 3 LINE",
"277 3 LINE",
"489 583 LINE",
"508 583 LINE",
"526 631 LINE",
"361 631 LINE SMOOTH",
"277 631 OFFCURVE",
"229 612 OFFCURVE",
"184 565 CURVE SMOOTH",
"162 542 OFFCURVE",
"146 518 OFFCURVE",
"137 493 CURVE SMOOTH",
"128 469 OFFCURVE",
"123 448 OFFCURVE",
"123 430 CURVE SMOOTH",
"123 413 OFFCURVE",
"128 399 OFFCURVE",
"137 387 CURVE SMOOTH",
"154 363 OFFCURVE",
"185 352 OFFCURVE",
"229 352 CURVE",
"101 3 LINE"
);
}
);
width = 403;
}
);
note = paragraph;
unicode = 00B6;
},
{
glyphname = periodcentered;
lastChange = "2020-12-26 00:20:00 +0000";
layers = (
{
layerId = "1691882E-B915-4755-A5B2-757873D945FF";
paths = (
{
closed = 1;
nodes = (
"184 254 OFFCURVE",
"226 274 OFFCURVE",
"226 329 CURVE SMOOTH",
"226 344 OFFCURVE",
"209 371 OFFCURVE",
"176 371 CURVE SMOOTH",
"143 371 OFFCURVE",
"106 346 OFFCURVE",
"106 295 CURVE SMOOTH",
"106 280 OFFCURVE",
"123 254 OFFCURVE",
"156 254 CURVE SMOOTH"
);
}
);
width = 261;
}
);
note = periodcentered;
unicode = 00B7;
},
{
glyphname = cedilla;
lastChange = "2020-12-23 11:07:08 +0000";
layers = (
{
layerId = "1691882E-B915-4755-A5B2-757873D945FF";
paths = (
{
closed = 1;
nodes = (
"110 -155 OFFCURVE",
"64 -142 OFFCURVE",
"40 -117 CURVE SMOOTH",
"29 -106 OFFCURVE",
"21 -101 OFFCURVE",
"16 -101 CURVE SMOOTH",
"11 -101 OFFCURVE",
"8 -104 OFFCURVE",
"8 -111 CURVE SMOOTH",
"8 -202 OFFCURVE",
"232 -206 OFFCURVE",
"311 -155 CURVE SMOOTH",
"412 -87 OFFCURVE",
"414 4 OFFCURVE",
"332 45 CURVE SMOOTH",
"258 82 OFFCURVE",
"200 76 OFFCURVE",
"152 69 CURVE",
"152 74 OFFCURVE",
"167 87 OFFCURVE",
"197 108 CURVE SMOOTH",
"218 121 LINE",
"197 179 OFFCURVE",
"85 96 OFFCURVE",
"85 32 CURVE SMOOTH",
"85 21 OFFCURVE",
"101 10 OFFCURVE",
"110 10 CURVE SMOOTH",
"114 10 OFFCURVE",
"128 16 OFFCURVE",
"152 28 CURVE SMOOTH",
"176 40 OFFCURVE",
"201 46 OFFCURVE",
"227 46 CURVE SMOOTH",
"278 46 OFFCURVE",
"334 13 OFFCURVE",
"334 -34 CURVE SMOOTH",
"334 -57 OFFCURVE",
"327 -80 OFFCURVE",
"313 -101 CURVE SMOOTH",
"290 -137 OFFCURVE",
"245 -155 OFFCURVE",
"177 -155 CURVE SMOOTH"
);
}
);
width = 379;
}
);
note = cedilla;
unicode = 00B8;
},
{
glyphname = onesuperior;
lastChange = "2020-12-27 03:03:49 +0000";
layers = (
{
layerId = "1691882E-B915-4755-A5B2-757873D945FF";
paths = (
{
closed = 1;
nodes = (
"108 232 OFFCURVE",
"127 234 OFFCURVE",
"130 236 CURVE",
"389 722 LINE",
"422 785 LINE",
"368 787 LINE SMOOTH",
"345 787 OFFCURVE",
"324 767 OFFCURVE",
"190 677 CURVE SMOOTH",
"164 659 OFFCURVE",
"179 659 OFFCURVE",
"183 659 CURVE",
"194 659 OFFCURVE",
"280 696 OFFCURVE",
"342 727 CURVE",
"82 237 LINE",
"78 230 LINE"
);
}
);
width = 378;
}
);
note = onesuperior;
unicode = 00B9;
},
{
glyphname = ordmasculine;
lastChange = "2020-12-26 02:12:27 +0000";
layers = (
{
layerId = "1691882E-B915-4755-A5B2-757873D945FF";
paths = (
{
closed = 1;
nodes = (
"66 463 LINE SMOOTH",
"86 463 OFFCURVE",
"107 472 OFFCURVE",
"129 489 CURVE",
"152 462 OFFCURVE",
"184 462 OFFCURVE",
"224 490 CURVE SMOOTH",
"244 504 OFFCURVE",
"267 542 OFFCURVE",
"293 603 CURVE SMOOTH",
"298 612 OFFCURVE",
"288 619 OFFCURVE",
"284 610 CURVE SMOOTH",
"261 559 OFFCURVE",
"257 546 OFFCURVE",
"222 505 CURVE",
"181 471 OFFCURVE",
"173 477 OFFCURVE",
"143 501 CURVE",
"242 590 OFFCURVE",
"245 726 OFFCURVE",
"170 726 CURVE SMOOTH",
"167 726 LINE SMOOTH",
"119 726 OFFCURVE",
"55 668 OFFCURVE",
"30 607 CURVE SMOOTH",
"17 576 OFFCURVE",
"11 551 OFFCURVE",
"11 532 CURVE SMOOTH",
"11 493 OFFCURVE",
"27 463 OFFCURVE",
"63 463 CURVE SMOOTH"
);
},
{
closed = 1;
nodes = (
"-3 480 OFFCURVE",
"75 702 OFFCURVE",
"177 702 CURVE SMOOTH",
"194 702 OFFCURVE",
"203 686 OFFCURVE",
"203 656 CURVE SMOOTH",
"203 626 OFFCURVE",
"187 586 OFFCURVE",
"156 537 CURVE",
"158 546 LINE SMOOTH",
"158 560 OFFCURVE",
"150 567 OFFCURVE",
"135 567 CURVE SMOOTH",
"119 567 OFFCURVE",
"110 556 OFFCURVE",
"108 535 CURVE SMOOTH",
"108 523 OFFCURVE",
"112 511 OFFCURVE",
"120 498 CURVE",
"105 486 OFFCURVE",
"91 480 OFFCURVE",
"77 480 CURVE SMOOTH"
);
}
);
width = 315;
}
);
note = ordmasculine;
unicode = 00BA;
},
{
glyphname = onequarter;
lastChange = "2021-01-04 21:50:58 +0000";
layers = (
{
layerId = "1691882E-B915-4755-A5B2-757873D945FF";
paths = (
{
closed = 1;
nodes = (
"290 302 OFFCURVE",
"309 304 OFFCURVE",
"312 306 CURVE",
"571 792 LINE",
"604 855 LINE",
"550 857 LINE SMOOTH",
"527 857 OFFCURVE",
"506 837 OFFCURVE",
"372 747 CURVE SMOOTH",
"346 729 OFFCURVE",
"361 729 OFFCURVE",
"365 729 CURVE",
"376 729 OFFCURVE",
"462 766 OFFCURVE",
"524 797 CURVE",
"264 307 LINE",
"260 300 LINE"
);
},
{
closed = 1;
nodes = (
"137 -82 OFFCURVE",
"253 32 OFFCURVE",
"440 260 CURVE SMOOTH",
"524 360 OFFCURVE",
"630 506 OFFCURVE",
"697 590 CURVE SMOOTH",
"883 823 LINE SMOOTH",
"889 831 OFFCURVE",
"892 836 OFFCURVE",
"892 841 CURVE SMOOTH",
"892 850 OFFCURVE",
"882 854 OFFCURVE",
"873 854 CURVE SMOOTH",
"854 854 OFFCURVE",
"840 848 OFFCURVE",
"830 836 CURVE SMOOTH",
"800 796 OFFCURVE",
"730 703 OFFCURVE",
"641 591 CURVE SMOOTH",
"563 492 OFFCURVE",
"471 378 OFFCURVE",
"384 271 CURVE SMOOTH",
"273 134 OFFCURVE",
"170 8 OFFCURVE",
"109 -60 CURVE SMOOTH",
"103 -67 OFFCURVE",
"100 -72 OFFCURVE",
"100 -76 CURVE SMOOTH",
"100 -80 OFFCURVE",
"103 -82 OFFCURVE",
"107 -82 CURVE SMOOTH"
);
},
{
closed = 1;
nodes = (
"675 0 LINE",
"677 3 OFFCURVE",
"692 34 OFFCURVE",
"713 78 CURVE SMOOTH",
"728 106 OFFCURVE",
"745 141 OFFCURVE",
"768 186 CURVE",
"795 186 LINE",
"802 191 LINE",
"807 202 LINE",
"801 206 LINE",
"778 206 LINE",
"787 221 OFFCURVE",
"844 330 OFFCURVE",
"843 333 CURVE SMOOTH",
"841 339 LINE",
"836 342 LINE",
"825 340 OFFCURVE",
"821 338 OFFCURVE",
"811 336 CURVE SMOOTH",
"805 334 OFFCURVE",
"801 330 OFFCURVE",
"797 323 CURVE SMOOTH",
"734 202 LINE",
"510 198 LINE",
"517 205 OFFCURVE",
"593 272 OFFCURVE",
"736 403 CURVE SMOOTH",
"777 442 OFFCURVE",
"809 473 OFFCURVE",
"831 496 CURVE SMOOTH",
"854 520 OFFCURVE",
"865 535 OFFCURVE",
"864 542 CURVE SMOOTH",
"862 548 LINE",
"856 551 LINE",
"833 547 OFFCURVE",
"821 554 OFFCURVE",
"783 507 CURVE SMOOTH",
"725 429 OFFCURVE",
"629 349 OFFCURVE",
"545 266 CURVE SMOOTH",
"504 223 OFFCURVE",
"479 196 OFFCURVE",
"473 185 CURVE",
"473 177 LINE",
"722 182 LINE",
"700 142 OFFCURVE",
"679 108 OFFCURVE",
"665 80 CURVE SMOOTH",
"640 30 OFFCURVE",
"635 14 OFFCURVE",
"635 0 CURVE"
);
}
);
width = 723;
}
);
leftMetricsKey = fraction;
note = onequarter;
rightMetricsKey = fraction;
unicode = 00BC;
},
{
glyphname = onehalf;
lastChange = "2021-01-04 21:50:53 +0000";
layers = (
{
layerId = "1691882E-B915-4755-A5B2-757873D945FF";
paths = (
{
closed = 1;
nodes = (
"240 292 OFFCURVE",
"259 294 OFFCURVE",
"262 296 CURVE",
"521 782 LINE",
"554 845 LINE",
"500 847 LINE SMOOTH",
"477 847 OFFCURVE",
"456 827 OFFCURVE",
"322 737 CURVE SMOOTH",
"296 719 OFFCURVE",
"311 719 OFFCURVE",
"315 719 CURVE",
"326 719 OFFCURVE",
"412 756 OFFCURVE",
"474 787 CURVE",
"214 297 LINE",
"210 290 LINE"
);
},
{
closed = 1;
nodes = (
"137 -82 OFFCURVE",
"253 32 OFFCURVE",
"440 260 CURVE SMOOTH",
"524 360 OFFCURVE",
"630 506 OFFCURVE",
"697 590 CURVE SMOOTH",
"883 823 LINE SMOOTH",
"889 831 OFFCURVE",
"892 836 OFFCURVE",
"892 841 CURVE SMOOTH",
"892 850 OFFCURVE",
"882 854 OFFCURVE",
"873 854 CURVE SMOOTH",
"854 854 OFFCURVE",
"840 848 OFFCURVE",
"830 836 CURVE SMOOTH",
"800 796 OFFCURVE",
"730 703 OFFCURVE",
"641 591 CURVE SMOOTH",
"563 492 OFFCURVE",
"471 378 OFFCURVE",
"384 271 CURVE SMOOTH",
"273 134 OFFCURVE",
"170 8 OFFCURVE",
"109 -60 CURVE SMOOTH",
"103 -67 OFFCURVE",
"100 -72 OFFCURVE",
"100 -76 CURVE SMOOTH",
"100 -80 OFFCURVE",
"103 -82 OFFCURVE",
"107 -82 CURVE SMOOTH"
);
},
{
closed = 1;
nodes = (
"702 -14 OFFCURVE",
"752 24 OFFCURVE",
"815 100 CURVE",
"815 104 LINE",
"807 110 LINE",
"796 107 OFFCURVE",
"775 80 OFFCURVE",
"747 56 CURVE SMOOTH",
"735 46 OFFCURVE",
"701 16 OFFCURVE",
"686 16 CURVE SMOOTH",
"671 16 OFFCURVE",
"638 29 OFFCURVE",
"564 65 CURVE",
"567 68 OFFCURVE",
"776 267 OFFCURVE",
"855 359 CURVE SMOOTH",
"899 409 OFFCURVE",
"915 449 OFFCURVE",
"915 480 CURVE SMOOTH",
"915 500 OFFCURVE",
"905 516 OFFCURVE",
"891 529 CURVE SMOOTH",
"875 544 OFFCURVE",
"854 551 OFFCURVE",
"828 551 CURVE SMOOTH",
"739 551 OFFCURVE",
"660 468 OFFCURVE",
"627 374 CURVE",
"628 368 LINE",
"640 368 LINE",
"644 372 LINE",
"672 446 OFFCURVE",
"736 521 OFFCURVE",
"800 522 CURVE SMOOTH",
"843 523 OFFCURVE",
"867 507 OFFCURVE",
"867 479 CURVE SMOOTH",
"867 451 OFFCURVE",
"860 411 OFFCURVE",
"823 367 CURVE SMOOTH",
"758 288 OFFCURVE",
"655 188 OFFCURVE",
"534 76 CURVE",
"530 79 OFFCURVE",
"523 80 OFFCURVE",
"513 77 CURVE SMOOTH",
"507 76 OFFCURVE",
"435 4 OFFCURVE",
"433 -2 CURVE",
"446 -10 LINE",
"513 43 LINE",
"539 34 OFFCURVE",
"601 -14 OFFCURVE",
"663 -14 CURVE SMOOTH"
);
}
);
width = 746;
}
);
leftMetricsKey = fraction;
note = onehalf;
rightMetricsKey = fraction;
unicode = 00BD;
},
{
glyphname = threequarters;
lastChange = "2021-01-04 21:50:46 +0000";
layers = (
{
layerId = "1691882E-B915-4755-A5B2-757873D945FF";
paths = (
{
closed = 1;
nodes = (
"154 328 OFFCURVE",
"132 332 OFFCURVE",
"112 342 CURVE",
"106 340 LINE",
"100 335 LINE",
"100 330 LINE",
"146 296 OFFCURVE",
"226 298 OFFCURVE",
"311 340 CURVE SMOOTH",
"355 363 OFFCURVE",
"392 392 OFFCURVE",
"425 431 CURVE SMOOTH",
"458 468 OFFCURVE",
"474 508 OFFCURVE",
"474 541 CURVE SMOOTH",
"474 610 OFFCURVE",
"407 632 OFFCURVE",
"344 632 CURVE",
"402 652 OFFCURVE",
"448 675 OFFCURVE",
"483 699 CURVE SMOOTH",
"532 733 OFFCURVE",
"557 772 OFFCURVE",
"557 812 CURVE SMOOTH",
"557 853 OFFCURVE",
"526 872 OFFCURVE",
"484 872 CURVE SMOOTH",
"425 872 OFFCURVE",
"367 837 OFFCURVE",
"309 767 CURVE",
"309 762 LINE",
"316 756 LINE",
"320 756 LINE",
"381 824 OFFCURVE",
"443 844 OFFCURVE",
"481 842 CURVE SMOOTH",
"503 841 OFFCURVE",
"509 828 OFFCURVE",
"509 812 CURVE SMOOTH",
"509 775 OFFCURVE",
"488 743 OFFCURVE",
"457 716 CURVE SMOOTH",
"405 668 OFFCURVE",
"324 636 OFFCURVE",
"270 613 CURVE",
"266 608 LINE",
"267 600 LINE",
"274 597 LINE",
"406 613 OFFCURVE",
"426 568 OFFCURVE",
"426 544 CURVE SMOOTH",
"426 519 OFFCURVE",
"416 480 OFFCURVE",
"377 442 CURVE SMOOTH",
"344 409 OFFCURVE",
"305 376 OFFCURVE",
"263 355 CURVE SMOOTH",
"229 338 OFFCURVE",
"199 328 OFFCURVE",
"179 328 CURVE SMOOTH"
);
},
{
closed = 1;
nodes = (
"163 -82 OFFCURVE",
"279 32 OFFCURVE",
"466 260 CURVE SMOOTH",
"550 360 OFFCURVE",
"656 506 OFFCURVE",
"723 590 CURVE SMOOTH",
"909 823 LINE SMOOTH",
"915 831 OFFCURVE",
"918 836 OFFCURVE",
"918 841 CURVE SMOOTH",
"918 850 OFFCURVE",
"908 854 OFFCURVE",
"899 854 CURVE SMOOTH",
"880 854 OFFCURVE",
"866 848 OFFCURVE",
"856 836 CURVE SMOOTH",
"826 796 OFFCURVE",
"756 703 OFFCURVE",
"667 591 CURVE SMOOTH",
"589 492 OFFCURVE",
"497 378 OFFCURVE",
"410 271 CURVE SMOOTH",
"299 134 OFFCURVE",
"196 8 OFFCURVE",
"135 -60 CURVE SMOOTH",
"129 -67 OFFCURVE",
"126 -72 OFFCURVE",
"126 -76 CURVE SMOOTH",
"126 -80 OFFCURVE",
"129 -82 OFFCURVE",
"133 -82 CURVE SMOOTH"
);
},
{
closed = 1;
nodes = (
"751 0 LINE",
"753 3 OFFCURVE",
"768 34 OFFCURVE",
"789 78 CURVE SMOOTH",
"804 106 OFFCURVE",
"821 141 OFFCURVE",
"844 186 CURVE",
"871 186 LINE",
"878 191 LINE",
"883 202 LINE",
"877 206 LINE",
"854 206 LINE",
"863 221 OFFCURVE",
"920 330 OFFCURVE",
"919 333 CURVE SMOOTH",
"917 339 LINE",
"912 342 LINE",
"901 340 OFFCURVE",
"897 338 OFFCURVE",
"887 336 CURVE SMOOTH",
"881 334 OFFCURVE",
"877 330 OFFCURVE",
"873 323 CURVE SMOOTH",
"810 202 LINE",
"586 198 LINE",
"593 205 OFFCURVE",
"669 272 OFFCURVE",
"812 403 CURVE SMOOTH",
"853 442 OFFCURVE",
"885 473 OFFCURVE",
"907 496 CURVE SMOOTH",
"930 520 OFFCURVE",
"941 535 OFFCURVE",
"940 542 CURVE SMOOTH",
"938 548 LINE",
"932 551 LINE",
"909 547 OFFCURVE",
"897 554 OFFCURVE",
"859 507 CURVE SMOOTH",
"801 429 OFFCURVE",
"705 349 OFFCURVE",
"621 266 CURVE SMOOTH",
"580 223 OFFCURVE",
"555 196 OFFCURVE",
"549 185 CURVE",
"549 177 LINE",
"798 182 LINE",
"776 142 OFFCURVE",
"755 108 OFFCURVE",
"741 80 CURVE SMOOTH",
"716 30 OFFCURVE",
"711 14 OFFCURVE",
"711 0 CURVE"
);
}
);
width = 771;
}
);
leftMetricsKey = fraction;
note = threequarters;
rightMetricsKey = fraction;
unicode = 00BE;
},
{
glyphname = questiondown;
lastChange = "2020-12-26 13:36:31 +0000";
layers = (
{
layerId = "1691882E-B915-4755-A5B2-757873D945FF";
paths = (
{
closed = 1;
nodes = (
"470 164 OFFCURVE",
"416 97 OFFCURVE",
"315 -3 CURVE SMOOTH",
"264 -52 OFFCURVE",
"228 -88 OFFCURVE",
"207 -111 CURVE SMOOTH",
"147 -179 OFFCURVE",
"116 -239 OFFCURVE",
"116 -290 CURVE SMOOTH",
"116 -340 OFFCURVE",
"166 -389 OFFCURVE",
"245 -391 CURVE SMOOTH",
"344 -394 OFFCURVE",
"502 -310 OFFCURVE",
"502 -211 CURVE SMOOTH",
"502 -181 OFFCURVE",
"485 -140 OFFCURVE",
"434 -140 CURVE SMOOTH",
"394 -140 OFFCURVE",
"361 -169 OFFCURVE",
"361 -214 CURVE SMOOTH",
"361 -246 OFFCURVE",
"379 -262 OFFCURVE",
"409 -262 CURVE SMOOTH",
"436 -262 OFFCURVE",
"469 -244 OFFCURVE",
"478 -212 CURVE",
"478 -219 LINE SMOOTH",
"478 -286 OFFCURVE",
"375 -336 OFFCURVE",
"293 -335 CURVE SMOOTH",
"239 -334 OFFCURVE",
"194 -308 OFFCURVE",
"194 -258 CURVE SMOOTH",
"194 -225 OFFCURVE",
"231 -188 OFFCURVE",
"264 -146 CURVE SMOOTH",
"276 -130 OFFCURVE",
"330 -68 OFFCURVE",
"432 62 CURVE SMOOTH",
"464 106 OFFCURVE",
"523 202 OFFCURVE",
"538 265 CURVE SMOOTH",
"541 283 OFFCURVE",
"519 291 OFFCURVE",
"511 275 CURVE SMOOTH"
);
},
{
closed = 1;
nodes = (
"549 509 OFFCURVE",
"511 490 OFFCURVE",
"511 440 CURVE SMOOTH",
"511 426 OFFCURVE",
"526 403 OFFCURVE",
"555 403 CURVE SMOOTH",
"585 403 OFFCURVE",
"619 425 OFFCURVE",
"619 471 CURVE SMOOTH",
"619 485 OFFCURVE",
"603 509 OFFCURVE",
"574 509 CURVE SMOOTH"
);
}
);
width = 583;
}
);
note = questiondown;
unicode = 00BF;
},
{
glyphname = AE;
lastChange = "2021-01-04 21:50:14 +0000";
layers = (
{
components = (
{
name = E;
transform = "{1, 0, 0, 1, 919, -11}";
}
);
layerId = "1691882E-B915-4755-A5B2-757873D945FF";
paths = (
{
closed = 1;
nodes = (
"1112 334 LINE SMOOTH",
"1126 334 OFFCURVE",
"1188 352 OFFCURVE",
"1199 362 CURVE SMOOTH",
"1223 384 OFFCURVE",
"1187 377 OFFCURVE",
"1109 366 CURVE",
"1000 370 OFFCURVE",
"955.911 372 OFFCURVE",
"919 372 CURVE",
"971.5 512.5 LINE SMOOTH",
"1005 601 OFFCURVE",
"1030 663.333 OFFCURVE",
"1048 698 CURVE",
"1096 698 OFFCURVE",
"1166 729.5 OFFCURVE",
"1166 771.5 CURVE SMOOTH",
"1166 792.5 OFFCURVE",
"1153.667 803 OFFCURVE",
"1129 803 CURVE SMOOTH",
"1111.31 803 OFFCURVE",
"1090.925 797.575 OFFCURVE",
"1065.5 766.5 CURVE SMOOTH",
"1050.5 748.167 OFFCURVE",
"1039.333 732.667 OFFCURVE",
"1032 720 CURVE",
"980.097 714.631 OFFCURVE",
"906.631 713.224 OFFCURVE",
"840.5 707 CURVE SMOOTH",
"812.167 704.333 OFFCURVE",
"778.833 700.333 OFFCURVE",
"740.5 695 CURVE SMOOTH",
"663.833 684.333 OFFCURVE",
"613 663.167 OFFCURVE",
"557 630.5 CURVE SMOOTH",
"501 597.833 OFFCURVE",
"462.167 538.833 OFFCURVE",
"449.5 487.5 CURVE SMOOTH",
"436.692 435.593 OFFCURVE",
"435.193 398.915 OFFCURVE",
"456 356 CURVE SMOOTH",
"472.667 319.333 OFFCURVE",
"498.667 293.333 OFFCURVE",
"534 278 CURVE SMOOTH",
"552.667 270 OFFCURVE",
"571.333 266 OFFCURVE",
"590 266 CURVE SMOOTH",
"608.667 266 OFFCURVE",
"627.333 269.333 OFFCURVE",
"646 276 CURVE SMOOTH",
"684.667 290 OFFCURVE",
"715.333 317.667 OFFCURVE",
"738 359 CURVE SMOOTH",
"751.333 382.333 OFFCURVE",
"758 404 OFFCURVE",
"758 424 CURVE SMOOTH",
"758 444 OFFCURVE",
"754 462.667 OFFCURVE",
"746 480 CURVE SMOOTH",
"742.667 486 OFFCURVE",
"738.667 488.667 OFFCURVE",
"734 488 CURVE SMOOTH",
"719.86 485.172 OFFCURVE",
"737 471.839 OFFCURVE",
"737 448.5 CURVE SMOOTH",
"737 436.167 OFFCURVE",
"731.333 414.667 OFFCURVE",
"720 384 CURVE SMOOTH",
"696 318.667 OFFCURVE",
"655.667 286 OFFCURVE",
"599 286 CURVE SMOOTH",
"541.667 286 OFFCURVE",
"504 342 OFFCURVE",
"504 390 CURVE SMOOTH",
"504 414 OFFCURVE",
"507.333 436.667 OFFCURVE",
"514 458 CURVE SMOOTH",
"530 510 OFFCURVE",
"557 554 OFFCURVE",
"595 590 CURVE SMOOTH",
"627 619.333 OFFCURVE",
"680.333 642.833 OFFCURVE",
"719 655.5 CURVE SMOOTH",
"738.333 661.833 OFFCURVE",
"762.667 667.333 OFFCURVE",
"792 672 CURVE SMOOTH",
"850.667 681.333 OFFCURVE",
"880 683.667 OFFCURVE",
"944 689 CURVE SMOOTH",
"976 691.667 OFFCURVE",
"1000.667 694 OFFCURVE",
"1018 696 CURVE",
"963.333 586.667 OFFCURVE",
"914.667 478.667 OFFCURVE",
"872 372 CURVE",
"833 372 LINE SMOOTH",
"809 372 OFFCURVE",
"767 344.667 OFFCURVE",
"767 322 CURVE",
"770.365 301.81 OFFCURVE",
"810.43 339 OFFCURVE",
"858 339 CURVE",
"766 97 OFFCURVE",
"607 -49.333 OFFCURVE",
"381 -100 CURVE SMOOTH",
"357 -105.333 OFFCURVE",
"331.333 -108 OFFCURVE",
"304 -108 CURVE SMOOTH",
"241.333 -108 OFFCURVE",
"186.667 -96.333 OFFCURVE",
"140 -73 CURVE SMOOTH",
"62.667 -33.667 OFFCURVE",
"24 26 OFFCURVE",
"24 106 CURVE SMOOTH",
"24 157.333 OFFCURVE",
"38 202.333 OFFCURVE",
"66 241 CURVE SMOOTH",
"87.333 270.333 OFFCURVE",
"108 289.333 OFFCURVE",
"128 298 CURVE SMOOTH",
"144.388 304.414 OFFCURVE",
"139.18 317.752 OFFCURVE",
"126 312 CURVE",
"90 310.667 OFFCURVE",
"20 246.333 OFFCURVE",
"4 185 CURVE SMOOTH",
"-26.667 65 OFFCURVE",
"10.667 -38.5 OFFCURVE",
"88 -96.5 CURVE SMOOTH",
"165.333 -154.5 OFFCURVE",
"258.333 -171 OFFCURVE",
"329 -171 CURVE SMOOTH",
"413 -171 OFFCURVE",
"493 -150 OFFCURVE",
"569 -108 CURVE SMOOTH",
"625.667 -76 OFFCURVE",
"675.333 -36.333 OFFCURVE",
"718 11 CURVE SMOOTH",
"805.333 107 OFFCURVE",
"869.333 215.667 OFFCURVE",
"910 337 CURVE",
"1047 332 LINE"
);
},
{
closed = 1;
nodes = (
"1091.333 755.667 OFFCURVE",
"1108 772 OFFCURVE",
"1116 772 CURVE SMOOTH",
"1117.333 772 OFFCURVE",
"1118.333 771.667 OFFCURVE",
"1119 771 CURVE",
"1125.667 769.667 OFFCURVE",
"1129.333 765.333 OFFCURVE",
"1130 758 CURVE SMOOTH",
"1130.667 741.333 OFFCURVE",
"1109.333 729.667 OFFCURVE",
"1066 723 CURVE"
);
},
{
closed = 1;
nodes = (
"1114 349 LINE",
"1114 689 LINE",
"1071 689 LINE",
"1071 349 LINE"
);
}
);
width = 1648;
}
);
note = AE;
rightMetricsKey = E;
unicode = 00C6;
},
{
glyphname = Eth;
lastChange = "2020-12-20 20:29:43 +0000";
layers = (
{
layerId = "1691882E-B915-4755-A5B2-757873D945FF";
paths = (
{
closed = 1;
nodes = (
"244.333 -39 OFFCURVE",
"313 -14 OFFCURVE",
"375 36 CURVE",
"453 1.333 OFFCURVE",
"543.333 -22.333 OFFCURVE",
"646 -35 CURVE SMOOTH",
"662 -37 OFFCURVE",
"678 -38 OFFCURVE",
"694 -38 CURVE SMOOTH",
"736.667 -38 OFFCURVE",
"778.333 -30.667 OFFCURVE",
"819 -16 CURVE SMOOTH",
"874.333 4 OFFCURVE",
"920.667 36.667 OFFCURVE",
"958 82 CURVE SMOOTH",
"1003.333 136 OFFCURVE",
"1026 206.333 OFFCURVE",
"1026 293 CURVE SMOOTH",
"1026 363 OFFCURVE",
"1011 427.667 OFFCURVE",
"981 487 CURVE SMOOTH",
"943.667 561 OFFCURVE",
"889.333 621.667 OFFCURVE",
"818 669 CURVE",
"865 737 LINE",
"892.95 762.692 OFFCURVE",
"929.026 791.198 OFFCURVE",
"905 785 CURVE",
"892.333 785 OFFCURVE",
"871.667 775 OFFCURVE",
"843 755 CURVE SMOOTH",
"823.667 741.667 OFFCURVE",
"809.333 731 OFFCURVE",
"800 723 CURVE",
"775 694 LINE",
"691 738 OFFCURVE",
"602.667 760 OFFCURVE",
"510 760 CURVE SMOOTH",
"481.333 760 OFFCURVE",
"452.333 758 OFFCURVE",
"423 754 CURVE SMOOTH",
"273.667 732 OFFCURVE",
"169.667 681.667 OFFCURVE",
"111 603 CURVE SMOOTH",
"83.667 567 OFFCURVE",
"70 530.667 OFFCURVE",
"70 494 CURVE SMOOTH",
"70 476 OFFCURVE",
"73.333 458 OFFCURVE",
"80 440 CURVE SMOOTH",
"96 392.667 OFFCURVE",
"129.333 360.333 OFFCURVE",
"180 343 CURVE",
"232 334 LINE",
"259.333 334 OFFCURVE",
"286.667 341.333 OFFCURVE",
"314 356 CURVE SMOOTH",
"358.667 381.333 OFFCURVE",
"384.333 418.333 OFFCURVE",
"391 467 CURVE SMOOTH",
"393.667 484.333 OFFCURVE",
"372.333 488 OFFCURVE",
"371 476 CURVE SMOOTH",
"369 450.667 OFFCURVE",
"353.333 423.333 OFFCURVE",
"324 394 CURVE SMOOTH",
"284.373 356.096 OFFCURVE",
"235.502 354.749 OFFCURVE",
"190 367 CURVE SMOOTH",
"141.333 382.333 OFFCURVE",
"117 415.333 OFFCURVE",
"117 466 CURVE SMOOTH",
"117 503.333 OFFCURVE",
"133.667 542.667 OFFCURVE",
"167 584 CURVE SMOOTH",
"221 652 OFFCURVE",
"299.667 697 OFFCURVE",
"403 719 CURVE SMOOTH",
"439 726.333 OFFCURVE",
"474.333 730 OFFCURVE",
"509 730 CURVE SMOOTH",
"593 730 OFFCURVE",
"672.333 707.667 OFFCURVE",
"747 663 CURVE",
"721 633 OFFCURVE",
"694.667 598 OFFCURVE",
"668 558 CURVE SMOOTH",
"648 530 OFFCURVE",
"576.667 402 OFFCURVE",
"534 318 CURVE",
"503.333 318.667 OFFCURVE",
"469 319 OFFCURVE",
"431 319 CURVE SMOOTH",
"406.711 319 OFFCURVE",
"412.507 268.358 OFFCURVE",
"431 271 CURVE SMOOTH",
"513 280 LINE",
"460.333 184.667 OFFCURVE",
"411.667 115.333 OFFCURVE",
"367 72 CURVE",
"293 111.333 OFFCURVE",
"241.5 136.167 OFFCURVE",
"212.5 146.5 CURVE SMOOTH",
"183.5 156.833 OFFCURVE",
"154.667 162 OFFCURVE",
"126 162 CURVE SMOOTH",
"83.333 162 OFFCURVE",
"50 148.333 OFFCURVE",
"26 121 CURVE SMOOTH",
"10.667 103.667 OFFCURVE",
"3 87.5 OFFCURVE",
"3 72.5 CURVE SMOOTH",
"3 57.5 OFFCURVE",
"5.333 44.333 OFFCURVE",
"10 33 CURVE SMOOTH",
"30 -15 OFFCURVE",
"83 -39 OFFCURVE",
"169 -39 CURVE SMOOTH"
);
},
{
closed = 1;
nodes = (
"118.667 -8 OFFCURVE",
"90 6.333 OFFCURVE",
"76 35 CURVE SMOOTH",
"58.043 70.914 OFFCURVE",
"78.181 130 OFFCURVE",
"132.5 130 CURVE SMOOTH",
"152.167 130 OFFCURVE",
"172.333 126.333 OFFCURVE",
"193 119 CURVE SMOOTH",
"213.667 111.667 OFFCURVE",
"263 89.333 OFFCURVE",
"341 52 CURVE",
"285.667 12 OFFCURVE",
"226 -8 OFFCURVE",
"162 -8 CURVE SMOOTH"
);
},
{
closed = 1;
nodes = (
"667.667 -10 OFFCURVE",
"656.333 -9.333 OFFCURVE",
"645 -8 CURVE SMOOTH",
"553.667 0.667 OFFCURVE",
"471.667 21.333 OFFCURVE",
"399 54 CURVE",
"449 96.667 OFFCURVE",
"509.667 174 OFFCURVE",
"581 286 CURVE",
"611.667 287.333 OFFCURVE",
"636.333 288 OFFCURVE",
"655 288 CURVE",
"665 289.333 OFFCURVE",
"670.667 294 OFFCURVE",
"672 302 CURVE",
"669.333 310 OFFCURVE",
"662.333 314.333 OFFCURVE",
"651 315 CURVE SMOOTH",
"601 316 LINE",
"616.333 340.667 OFFCURVE",
"646.333 390.167 OFFCURVE",
"691 464.5 CURVE SMOOTH",
"735.667 538.833 OFFCURVE",
"770 594.333 OFFCURVE",
"794 631 CURVE",
"852.667 585 OFFCURVE",
"897 527.667 OFFCURVE",
"927 459 CURVE SMOOTH",
"951 405 OFFCURVE",
"963 347.333 OFFCURVE",
"963 286 CURVE SMOOTH",
"963 270 OFFCURVE",
"962 253.667 OFFCURVE",
"960 237 CURVE SMOOTH",
"952 165 OFFCURVE",
"918.333 104 OFFCURVE",
"859 54 CURVE SMOOTH",
"807.667 11.333 OFFCURVE",
"747.667 -10 OFFCURVE",
"679 -10 CURVE SMOOTH"
);
}
);
width = 1027;
}
);
note = Eth;
unicode = 00D0;
},
{
glyphname = multiply;
lastChange = "2020-12-26 00:14:48 +0000";
layers = (
{
layerId = "1691882E-B915-4755-A5B2-757873D945FF";
paths = (
{
closed = 1;
nodes = (
"251 91 OFFCURVE",
"277 120 OFFCURVE",
"280 127 CURVE",
"198 285 LINE",
"337 435 LINE",
"337 443 OFFCURVE",
"325 473 OFFCURVE",
"317 473 CURVE",
"178 323 LINE",
"100 483 LINE",
"92 481 OFFCURVE",
"66 453 OFFCURVE",
"63 446 CURVE",
"145 288 LINE",
"6 138 LINE",
"6 131 OFFCURVE",
"21 101 OFFCURVE",
"26 98 CURVE",
"165 248 LINE",
"243 90 LINE"
);
}
);
width = 304;
}
);
note = multiply;
unicode = 00D7;
},
{
glyphname = Thorn;
lastChange = "2020-12-20 20:29:42 +0000";
layers = (
{
layerId = "1691882E-B915-4755-A5B2-757873D945FF";
paths = (
{
closed = 1;
nodes = (
"63.443 3 OFFCURVE",
"74.978 0.021 OFFCURVE",
"92.5 13 CURVE SMOOTH",
"101.5 19.667 OFFCURVE",
"111.333 33.667 OFFCURVE",
"122 55 CURVE SMOOTH",
"197 208 LINE",
"204.333 207.333 OFFCURVE",
"211.667 207 OFFCURVE",
"219 207 CURVE SMOOTH",
"359.398 207 OFFCURVE",
"476.796 256.749 OFFCURVE",
"539 333 CURVE SMOOTH",
"569.667 371 OFFCURVE",
"585 408.667 OFFCURVE",
"585 446 CURVE SMOOTH",
"585 460 OFFCURVE",
"579.333 477 OFFCURVE",
"568 497 CURVE SMOOTH",
"534.667 555.667 OFFCURVE",
"455 599.333 OFFCURVE",
"367 614 CURVE",
"421 750 LINE",
"427 768.667 OFFCURVE",
"430 784.333 OFFCURVE",
"430 797 CURVE SMOOTH",
"430 809.667 OFFCURVE",
"423 822.333 OFFCURVE",
"409 835 CURVE SMOOTH",
"406.333 837.667 OFFCURVE",
"399.667 839.833 OFFCURVE",
"389 841.5 CURVE SMOOTH",
"378.333 843.167 OFFCURVE",
"371.667 846 OFFCURVE",
"369 850 CURVE",
"370.333 798 OFFCURVE",
"304.667 555 OFFCURVE",
"206 347 CURVE SMOOTH",
"162 255 OFFCURVE",
"35 30.667 OFFCURVE",
"11 8 CURVE",
"16.333 8.667 OFFCURVE",
"24.167 8 OFFCURVE",
"34.5 6 CURVE SMOOTH",
"44.833 4 OFFCURVE",
"51.167 3 OFFCURVE",
"53.5 3 CURVE SMOOTH"
);
},
{
closed = 1;
nodes = (
"238 293 LINE",
"248.667 308.333 OFFCURVE",
"272.667 363.667 OFFCURVE",
"310 459 CURVE SMOOTH",
"360 595 LINE",
"406 584.333 OFFCURVE",
"441 572.333 OFFCURVE",
"465 559 CURVE SMOOTH",
"509 532.333 OFFCURVE",
"531 493.333 OFFCURVE",
"531 442 CURVE SMOOTH",
"531 344.126 OFFCURVE",
"414.507 233.279 OFFCURVE",
"206 228 CURVE"
);
}
);
width = 336;
}
);
note = Thorn;
unicode = 00DE;
},
{
glyphname = germandbls;
lastChange = "2020-12-25 20:37:41 +0000";
layers = (
{
layerId = "1691882E-B915-4755-A5B2-757873D945FF";
paths = (
{
closed = 1;
nodes = (
"-156 -346 OFFCURVE",
"-110 -330 OFFCURVE",
"-63 -298 CURVE SMOOTH",
"21 -240 OFFCURVE",
"79 -176 OFFCURVE",
"134 -58 CURVE SMOOTH",
"173 27 OFFCURVE",
"198 96 OFFCURVE",
"232 197 CURVE SMOOTH",
"245 234 OFFCURVE",
"259 277 OFFCURVE",
"275 326 CURVE SMOOTH",
"305 416 OFFCURVE",
"327 482 OFFCURVE",
"342 524 CURVE SMOOTH",
"371 606 OFFCURVE",
"426 650 OFFCURVE",
"470 650 CURVE SMOOTH",
"481 650 OFFCURVE",
"492 648 OFFCURVE",
"503 644 CURVE SMOOTH",
"541 631 OFFCURVE",
"559 601 OFFCURVE",
"559 553 CURVE SMOOTH",
"559 526 OFFCURVE",
"547 476 OFFCURVE",
"519 443 CURVE SMOOTH",
"490 408 OFFCURVE",
"455 380 OFFCURVE",
"433 358 CURVE SMOOTH",
"415 339 OFFCURVE",
"405 312 OFFCURVE",
"405 289 CURVE SMOOTH",
"405 278 OFFCURVE",
"412 247 OFFCURVE",
"426 198 CURVE SMOOTH",
"437 158 OFFCURVE",
"443 130 OFFCURVE",
"443 113 CURVE SMOOTH",
"443 64 OFFCURVE",
"429 28 OFFCURVE",
"399 6 CURVE",
"374 18 OFFCURVE",
"357 46 OFFCURVE",
"357 79 CURVE SMOOTH",
"357 86 LINE SMOOTH",
"357 120 OFFCURVE",
"316 131 OFFCURVE",
"293 99 CURVE SMOOTH",
"285 88 OFFCURVE",
"280 76 OFFCURVE",
"280 64 CURVE SMOOTH",
"280 51 OFFCURVE",
"281 40 OFFCURVE",
"283 32 CURVE SMOOTH",
"293 -6 OFFCURVE",
"322 -24 OFFCURVE",
"369 -24 CURVE SMOOTH",
"381 -24 OFFCURVE",
"395 -21 OFFCURVE",
"410 -14 CURVE",
"433 -21 OFFCURVE",
"457 -20 OFFCURVE",
"482 -12 CURVE SMOOTH",
"497 -8 OFFCURVE",
"511 0 OFFCURVE",
"522 12 CURVE SMOOTH",
"543 34 LINE SMOOTH",
"556 47 OFFCURVE",
"571 71 OFFCURVE",
"580 86 CURVE SMOOTH",
"584 93 OFFCURVE",
"589 103 OFFCURVE",
"595 115 CURVE SMOOTH",
"608 140 OFFCURVE",
"619 164 OFFCURVE",
"621 173 CURVE",
"621 178 OFFCURVE",
"618 180 OFFCURVE",
"612 180 CURVE SMOOTH",
"609 180 OFFCURVE",
"607 178 OFFCURVE",
"605 175 CURVE SMOOTH",
"569 105 OFFCURVE",
"544 61 OFFCURVE",
"530 44 CURVE SMOOTH",
"504 12 OFFCURVE",
"478 -3 OFFCURVE",
"451 -3 CURVE SMOOTH",
"448 -3 OFFCURVE",
"442 -2 OFFCURVE",
"433 -1 CURVE",
"472 26 OFFCURVE",
"504 73 OFFCURVE",
"504 113 CURVE SMOOTH",
"504 147 OFFCURVE",
"482 199 OFFCURVE",
"438 269 CURVE SMOOTH",
"420 297 OFFCURVE",
"423 328 OFFCURVE",
"455 360 CURVE SMOOTH",
"465 369 OFFCURVE",
"474 376 OFFCURVE",
"482 382 CURVE SMOOTH",
"511 402 LINE SMOOTH",
"572 444 OFFCURVE",
"602 494 OFFCURVE",
"602 552 CURVE SMOOTH",
"602 605 OFFCURVE",
"583 643 OFFCURVE",
"530 662 CURVE SMOOTH",
"477 680 OFFCURVE",
"436 682 OFFCURVE",
"401 659 CURVE SMOOTH",
"371 638 OFFCURVE",
"342 602 OFFCURVE",
"315 550 CURVE",
"252 396 OFFCURVE",
"217 278 OFFCURVE",
"185 195 CURVE SMOOTH",
"171 155 OFFCURVE",
"152 106 OFFCURVE",
"129 49 CURVE SMOOTH",
"40 -175 OFFCURVE",
"-65 -291 OFFCURVE",
"-185 -321 CURVE SMOOTH",
"-216 -330 OFFCURVE",
"-248 -315 OFFCURVE",
"-263 -276 CURVE",
"-171 -304 OFFCURVE",
"-179 -272 OFFCURVE",
"-179 -241 CURVE SMOOTH",
"-179 -209 OFFCURVE",
"-290 -208 OFFCURVE",
"-290 -280 CURVE SMOOTH",
"-290 -324 OFFCURVE",
"-257 -346 OFFCURVE",
"-200 -346 CURVE SMOOTH"
);
},
{
closed = 1;
nodes = (
"343 -7 OFFCURVE",
"313 10 OFFCURVE",
"304 33 CURVE SMOOTH",
"298 49 OFFCURVE",
"302 72 OFFCURVE",
"308 82 CURVE SMOOTH",
"317 100 OFFCURVE",
"338 96 OFFCURVE",
"342 82 CURVE SMOOTH",
"352 48 OFFCURVE",
"334 21 OFFCURVE",
"382 -3 CURVE",
"377 -6 OFFCURVE",
"370 -7 OFFCURVE",
"362 -7 CURVE SMOOTH"
);
}
);
width = 585;
}
);
note = germandbls;
unicode = 00DF;
},
